%FSLAX34Y34*%
G04 Gerber Fmt 3.4, Leading zero omitted, Abs format*
G04 (created by PCBNEW (2014-03-19 BZR 4756)-product) date Thu 12 Jun 2014 23:18:30 BST*
%MOIN*%
G01*
G70*
G90*
G04 APERTURE LIST*
%ADD10C,0.005906*%
%ADD11R,0.015700X0.023600*%
%ADD12R,0.025000X0.045000*%
%ADD13R,0.023600X0.015700*%
%ADD14O,0.078700X0.118700*%
%ADD15O,0.118700X0.078700*%
%ADD16R,0.080000X0.068000*%
%ADD17O,0.080000X0.068000*%
%ADD18R,0.023600X0.047200*%
%ADD19R,0.068000X0.068000*%
%ADD20O,0.068000X0.068000*%
%ADD21C,0.059100*%
%ADD22R,0.133900X0.133900*%
%ADD23C,0.035000*%
%ADD24C,0.010000*%
%ADD25C,0.007087*%
G04 APERTURE END LIST*
G54D10*
G54D11*
X46574Y-34645D03*
X46928Y-34645D03*
G54D12*
X45172Y-35925D03*
X45772Y-35925D03*
G54D13*
X45570Y-42893D03*
X45570Y-42539D03*
X43602Y-42893D03*
X43602Y-42539D03*
G54D14*
X60039Y-31988D03*
X58071Y-31988D03*
G54D15*
X44192Y-31496D03*
X44192Y-33464D03*
G54D16*
X65944Y-37326D03*
G54D17*
X65944Y-36326D03*
X65944Y-35326D03*
X65944Y-34326D03*
G54D16*
X67519Y-40082D03*
G54D17*
X67519Y-39082D03*
X67519Y-38082D03*
X67519Y-37082D03*
G54D15*
X44192Y-43701D03*
X44192Y-45669D03*
G54D14*
X63976Y-31988D03*
X62008Y-31988D03*
G54D12*
X45172Y-34744D03*
X45772Y-34744D03*
X47248Y-35925D03*
X46648Y-35925D03*
G54D18*
X45807Y-31436D03*
X46299Y-31436D03*
X46811Y-31436D03*
X47303Y-31436D03*
X47303Y-33720D03*
X46811Y-33720D03*
X46299Y-33720D03*
X45787Y-33720D03*
G54D17*
X58078Y-45527D03*
X58078Y-44527D03*
X58078Y-43527D03*
X58078Y-42527D03*
X58078Y-41527D03*
X58078Y-40527D03*
X58078Y-39527D03*
X58078Y-38527D03*
G54D16*
X64074Y-38527D03*
G54D17*
X64074Y-39527D03*
X64074Y-40527D03*
X64074Y-41527D03*
X64074Y-42527D03*
X64074Y-43527D03*
X64074Y-44527D03*
X64074Y-45527D03*
G54D19*
X52255Y-36795D03*
G54D20*
X53255Y-36795D03*
X52255Y-37795D03*
X53255Y-37795D03*
X52255Y-38795D03*
X53255Y-38795D03*
G54D17*
X49803Y-41917D03*
X49803Y-40917D03*
X49803Y-39917D03*
X49803Y-38917D03*
X49803Y-37917D03*
X49803Y-36917D03*
X49803Y-35917D03*
X49803Y-34917D03*
X49803Y-33917D03*
X49803Y-32917D03*
X49803Y-31917D03*
G54D16*
X49803Y-30917D03*
G54D17*
X55807Y-30917D03*
X55807Y-31917D03*
X55807Y-32917D03*
X55807Y-33917D03*
X55807Y-34917D03*
X55807Y-35917D03*
X55807Y-36917D03*
X55807Y-37917D03*
X55807Y-38917D03*
X55807Y-39917D03*
X55807Y-40917D03*
X55807Y-41917D03*
G54D10*
G36*
X44035Y-37283D02*
X43917Y-37283D01*
X43917Y-36654D01*
X44035Y-36654D01*
X44035Y-37283D01*
X44035Y-37283D01*
G37*
G36*
X44261Y-37283D02*
X44143Y-37283D01*
X44143Y-36654D01*
X44261Y-36654D01*
X44261Y-37283D01*
X44261Y-37283D01*
G37*
G36*
X44517Y-37283D02*
X44399Y-37283D01*
X44399Y-36654D01*
X44517Y-36654D01*
X44517Y-37283D01*
X44517Y-37283D01*
G37*
G36*
X44773Y-37283D02*
X44655Y-37283D01*
X44655Y-36654D01*
X44773Y-36654D01*
X44773Y-37283D01*
X44773Y-37283D01*
G37*
G36*
X45029Y-37283D02*
X44911Y-37283D01*
X44911Y-36654D01*
X45029Y-36654D01*
X45029Y-37283D01*
X45029Y-37283D01*
G37*
G36*
X45285Y-37283D02*
X45167Y-37283D01*
X45167Y-36654D01*
X45285Y-36654D01*
X45285Y-37283D01*
X45285Y-37283D01*
G37*
G36*
X46309Y-39723D02*
X46191Y-39723D01*
X46191Y-39094D01*
X46309Y-39094D01*
X46309Y-39723D01*
X46309Y-39723D01*
G37*
G36*
X46053Y-39723D02*
X45935Y-39723D01*
X45935Y-39094D01*
X46053Y-39094D01*
X46053Y-39723D01*
X46053Y-39723D01*
G37*
G36*
X45797Y-39723D02*
X45679Y-39723D01*
X45679Y-39094D01*
X45797Y-39094D01*
X45797Y-39723D01*
X45797Y-39723D01*
G37*
G36*
X45541Y-39723D02*
X45423Y-39723D01*
X45423Y-39094D01*
X45541Y-39094D01*
X45541Y-39723D01*
X45541Y-39723D01*
G37*
G36*
X45541Y-37283D02*
X45423Y-37283D01*
X45423Y-36654D01*
X45541Y-36654D01*
X45541Y-37283D01*
X45541Y-37283D01*
G37*
G36*
X45797Y-37283D02*
X45679Y-37283D01*
X45679Y-36654D01*
X45797Y-36654D01*
X45797Y-37283D01*
X45797Y-37283D01*
G37*
G36*
X46053Y-37283D02*
X45935Y-37283D01*
X45935Y-36654D01*
X46053Y-36654D01*
X46053Y-37283D01*
X46053Y-37283D01*
G37*
G36*
X46309Y-37283D02*
X46191Y-37283D01*
X46191Y-36654D01*
X46309Y-36654D01*
X46309Y-37283D01*
X46309Y-37283D01*
G37*
G36*
X45285Y-39723D02*
X45167Y-39723D01*
X45167Y-39094D01*
X45285Y-39094D01*
X45285Y-39723D01*
X45285Y-39723D01*
G37*
G36*
X45029Y-39723D02*
X44911Y-39723D01*
X44911Y-39094D01*
X45029Y-39094D01*
X45029Y-39723D01*
X45029Y-39723D01*
G37*
G36*
X44773Y-39723D02*
X44655Y-39723D01*
X44655Y-39094D01*
X44773Y-39094D01*
X44773Y-39723D01*
X44773Y-39723D01*
G37*
G36*
X44517Y-39723D02*
X44399Y-39723D01*
X44399Y-39094D01*
X44517Y-39094D01*
X44517Y-39723D01*
X44517Y-39723D01*
G37*
G36*
X44261Y-39723D02*
X44143Y-39723D01*
X44143Y-39094D01*
X44261Y-39094D01*
X44261Y-39723D01*
X44261Y-39723D01*
G37*
G36*
X44005Y-39723D02*
X43887Y-39723D01*
X43887Y-39094D01*
X44005Y-39094D01*
X44005Y-39723D01*
X44005Y-39723D01*
G37*
G54D21*
X45547Y-41141D03*
X43625Y-41141D03*
G54D22*
X67716Y-32283D03*
X67716Y-44488D03*
G54D23*
X44764Y-35934D03*
X46328Y-38812D03*
X45210Y-38010D03*
X44080Y-36319D03*
X54555Y-34288D03*
X42824Y-36132D03*
X54646Y-35530D03*
X46950Y-34242D03*
X51522Y-40222D03*
G54D24*
X46299Y-31822D02*
X45807Y-31822D01*
X46299Y-31436D02*
X46299Y-31822D01*
X45807Y-31436D02*
X45807Y-31629D01*
X45807Y-31629D02*
X45807Y-31822D01*
X45070Y-31629D02*
X44936Y-31496D01*
X45807Y-31629D02*
X45070Y-31629D01*
X44192Y-31496D02*
X44936Y-31496D01*
X49803Y-32917D02*
X49803Y-33917D01*
X49803Y-33917D02*
X49253Y-33917D01*
X44192Y-33464D02*
X44192Y-34007D01*
X43602Y-42893D02*
X45570Y-42893D01*
X55807Y-31917D02*
X56357Y-31917D01*
X64074Y-39527D02*
X63524Y-39527D01*
X63524Y-44732D02*
X63524Y-39527D01*
X63829Y-45037D02*
X63524Y-44732D01*
X64074Y-45037D02*
X63829Y-45037D01*
X64074Y-45527D02*
X64074Y-45037D01*
X43946Y-39176D02*
X43946Y-38943D01*
X66207Y-34816D02*
X65944Y-34816D01*
X67519Y-36128D02*
X66207Y-34816D01*
X67519Y-37082D02*
X67519Y-36128D01*
X65944Y-34326D02*
X65944Y-34816D01*
X43946Y-39176D02*
X43946Y-39408D01*
X43178Y-42737D02*
X43334Y-42893D01*
X43178Y-40642D02*
X43178Y-42737D01*
X43946Y-39874D02*
X43178Y-40642D01*
X43946Y-39408D02*
X43946Y-39874D01*
X43602Y-42893D02*
X43334Y-42893D01*
X43755Y-38752D02*
X43946Y-38943D01*
X43755Y-34445D02*
X43755Y-38752D01*
X44192Y-34007D02*
X43755Y-34445D01*
X63524Y-39084D02*
X56357Y-31917D01*
X63524Y-39527D02*
X63524Y-39084D01*
X47303Y-33720D02*
X47303Y-34106D01*
X49063Y-34106D02*
X49253Y-33917D01*
X47303Y-34106D02*
X49063Y-34106D01*
X47303Y-34500D02*
X47157Y-34645D01*
X47303Y-34106D02*
X47303Y-34500D01*
X46928Y-34645D02*
X47043Y-34645D01*
X47043Y-34645D02*
X47157Y-34645D01*
X46047Y-35641D02*
X46047Y-35925D01*
X47043Y-34645D02*
X46047Y-35641D01*
X45772Y-35925D02*
X46047Y-35925D01*
X46574Y-34645D02*
X46477Y-34645D01*
X46299Y-33720D02*
X46299Y-34106D01*
X46299Y-34466D02*
X46477Y-34645D01*
X46299Y-34106D02*
X46299Y-34466D01*
X47216Y-32417D02*
X46299Y-33334D01*
X50307Y-32417D02*
X47216Y-32417D01*
X55316Y-37427D02*
X50307Y-32417D01*
X55807Y-37427D02*
X55316Y-37427D01*
X55807Y-37917D02*
X55807Y-37427D01*
X46299Y-33720D02*
X46299Y-33334D01*
X45787Y-33720D02*
X45787Y-34106D01*
X45172Y-35925D02*
X45310Y-35925D01*
X45310Y-35256D02*
X45172Y-35119D01*
X45310Y-35925D02*
X45310Y-35256D01*
X45172Y-34744D02*
X45172Y-35119D01*
X45772Y-34121D02*
X45772Y-34744D01*
X45787Y-34106D02*
X45772Y-34121D01*
X45172Y-34744D02*
X45447Y-34744D01*
X45772Y-34744D02*
X45447Y-34744D01*
X52765Y-36412D02*
X52765Y-36795D01*
X52658Y-36305D02*
X52765Y-36412D01*
X50353Y-36305D02*
X52658Y-36305D01*
X50241Y-36417D02*
X50353Y-36305D01*
X48016Y-36417D02*
X50241Y-36417D01*
X47523Y-35925D02*
X48016Y-36417D01*
X47248Y-35925D02*
X47523Y-35925D01*
X53255Y-36795D02*
X52765Y-36795D01*
X64337Y-44037D02*
X64074Y-44037D01*
X66271Y-42104D02*
X64337Y-44037D01*
X66271Y-39576D02*
X66271Y-42104D01*
X67274Y-38572D02*
X66271Y-39576D01*
X67519Y-38572D02*
X67274Y-38572D01*
X67519Y-38082D02*
X67519Y-38572D01*
X64074Y-44527D02*
X64074Y-44037D01*
X46918Y-36300D02*
X47248Y-36300D01*
X46250Y-36968D02*
X46918Y-36300D01*
X47248Y-35925D02*
X47248Y-36300D01*
X45172Y-35925D02*
X44897Y-35925D01*
X44887Y-35934D02*
X44897Y-35925D01*
X44764Y-35934D02*
X44887Y-35934D01*
X45570Y-41165D02*
X45570Y-42539D01*
X45547Y-41141D02*
X45570Y-41165D01*
X44458Y-40052D02*
X45547Y-41141D01*
X44458Y-39408D02*
X44458Y-40052D01*
X43602Y-41165D02*
X43625Y-41141D01*
X43602Y-42539D02*
X43602Y-41165D01*
X44202Y-40564D02*
X44202Y-39408D01*
X43625Y-41141D02*
X44202Y-40564D01*
X46250Y-39408D02*
X46250Y-38943D01*
X46250Y-38890D02*
X46328Y-38812D01*
X46250Y-38943D02*
X46250Y-38890D01*
X45210Y-38160D02*
X45994Y-38943D01*
X45210Y-38010D02*
X45210Y-38160D01*
X45994Y-39408D02*
X45994Y-38943D01*
X49803Y-30917D02*
X49803Y-31407D01*
X44458Y-36968D02*
X44458Y-36503D01*
X44419Y-36319D02*
X44080Y-36319D01*
X44419Y-36464D02*
X44419Y-36319D01*
X44458Y-36503D02*
X44419Y-36464D01*
X49313Y-31407D02*
X49803Y-31407D01*
X48503Y-32217D02*
X49313Y-31407D01*
X46711Y-32217D02*
X48503Y-32217D01*
X44419Y-34509D02*
X46711Y-32217D01*
X44419Y-36319D02*
X44419Y-34509D01*
X64842Y-36248D02*
X60582Y-31988D01*
X64842Y-40514D02*
X64842Y-36248D01*
X64319Y-41037D02*
X64842Y-40514D01*
X64074Y-41037D02*
X64319Y-41037D01*
X64074Y-41527D02*
X64074Y-41037D01*
X60039Y-31988D02*
X60582Y-31988D01*
X64624Y-37998D02*
X58614Y-31988D01*
X64624Y-39732D02*
X64624Y-37998D01*
X64319Y-40037D02*
X64624Y-39732D01*
X64074Y-40037D02*
X64319Y-40037D01*
X64074Y-40527D02*
X64074Y-40037D01*
X58071Y-31988D02*
X58614Y-31988D01*
X58323Y-44037D02*
X58078Y-44037D01*
X58635Y-43725D02*
X58323Y-44037D01*
X58635Y-37985D02*
X58635Y-43725D01*
X56067Y-35417D02*
X58635Y-37985D01*
X55221Y-35417D02*
X56067Y-35417D01*
X51721Y-31917D02*
X55221Y-35417D01*
X49803Y-31917D02*
X51721Y-31917D01*
X58078Y-44527D02*
X58078Y-44037D01*
X54684Y-34417D02*
X54555Y-34288D01*
X56067Y-34417D02*
X54684Y-34417D01*
X62861Y-41210D02*
X56067Y-34417D01*
X62861Y-45083D02*
X62861Y-41210D01*
X63805Y-46027D02*
X62861Y-45083D01*
X64348Y-46027D02*
X63805Y-46027D01*
X67519Y-42856D02*
X64348Y-46027D01*
X67519Y-40082D02*
X67519Y-42856D01*
X42824Y-43756D02*
X42824Y-36132D01*
X44192Y-45125D02*
X42824Y-43756D01*
X44192Y-45669D02*
X44192Y-45125D01*
X64074Y-43527D02*
X64074Y-43037D01*
X63976Y-31988D02*
X64519Y-31988D01*
X65243Y-32711D02*
X64519Y-31988D01*
X65243Y-42133D02*
X65243Y-32711D01*
X64338Y-43037D02*
X65243Y-42133D01*
X64074Y-43037D02*
X64338Y-43037D01*
X64074Y-42527D02*
X64074Y-42037D01*
X62008Y-31988D02*
X62551Y-31988D01*
X65043Y-34479D02*
X62551Y-31988D01*
X65043Y-41314D02*
X65043Y-34479D01*
X64319Y-42037D02*
X65043Y-41314D01*
X64074Y-42037D02*
X64319Y-42037D01*
X51643Y-36917D02*
X51765Y-36795D01*
X49803Y-36917D02*
X51643Y-36917D01*
X52255Y-36795D02*
X51765Y-36795D01*
X57815Y-39037D02*
X58078Y-39037D01*
X56851Y-38073D02*
X57815Y-39037D01*
X56851Y-37175D02*
X56851Y-38073D01*
X56093Y-36417D02*
X56851Y-37175D01*
X55533Y-36417D02*
X56093Y-36417D01*
X54646Y-35530D02*
X55533Y-36417D01*
X58078Y-39527D02*
X58078Y-39037D01*
X57588Y-40037D02*
X58078Y-40037D01*
X56968Y-39417D02*
X57588Y-40037D01*
X55528Y-39417D02*
X56968Y-39417D01*
X54397Y-38285D02*
X55528Y-39417D01*
X53052Y-38285D02*
X54397Y-38285D01*
X52746Y-37979D02*
X53052Y-38285D01*
X52746Y-37795D02*
X52746Y-37979D01*
X52255Y-37795D02*
X52746Y-37795D01*
X58078Y-40527D02*
X58078Y-40037D01*
X49803Y-38917D02*
X50303Y-38917D01*
X51643Y-38917D02*
X51765Y-38795D01*
X50303Y-38917D02*
X51643Y-38917D01*
X52255Y-38795D02*
X51765Y-38795D01*
X45994Y-36579D02*
X45994Y-36968D01*
X46648Y-35925D02*
X45994Y-36579D01*
X47303Y-31436D02*
X47303Y-31243D01*
X47110Y-31050D02*
X46811Y-31050D01*
X47303Y-31243D02*
X47110Y-31050D01*
X46811Y-31436D02*
X46811Y-31050D01*
X48119Y-30427D02*
X47303Y-31243D01*
X51208Y-30427D02*
X48119Y-30427D01*
X52198Y-31417D02*
X51208Y-30427D01*
X56414Y-31417D02*
X52198Y-31417D01*
X63524Y-38527D02*
X56414Y-31417D01*
X64074Y-38527D02*
X63524Y-38527D01*
X46815Y-34106D02*
X46811Y-34106D01*
X46950Y-34242D02*
X46815Y-34106D01*
X46811Y-33720D02*
X46811Y-34106D01*
X55544Y-38427D02*
X55807Y-38427D01*
X53746Y-36629D02*
X55544Y-38427D01*
X53746Y-36571D02*
X53746Y-36629D01*
X52591Y-35417D02*
X53746Y-36571D01*
X46591Y-35417D02*
X52591Y-35417D01*
X46271Y-35737D02*
X46591Y-35417D01*
X46271Y-35993D02*
X46271Y-35737D01*
X45761Y-36503D02*
X46271Y-35993D01*
X44714Y-36503D02*
X45761Y-36503D01*
X44714Y-36968D02*
X44714Y-36503D01*
X55807Y-38917D02*
X55807Y-38427D01*
X45482Y-37336D02*
X45482Y-36968D01*
X45958Y-37812D02*
X45482Y-37336D01*
X46071Y-37812D02*
X45958Y-37812D01*
X48676Y-40417D02*
X46071Y-37812D01*
X51187Y-40417D02*
X48676Y-40417D01*
X51327Y-40557D02*
X51187Y-40417D01*
X55167Y-40557D02*
X51327Y-40557D01*
X55316Y-40407D02*
X55167Y-40557D01*
X55807Y-40407D02*
X55316Y-40407D01*
X55807Y-39917D02*
X55807Y-40407D01*
X55807Y-40917D02*
X55807Y-41407D01*
X49383Y-41407D02*
X55807Y-41407D01*
X45988Y-38012D02*
X49383Y-41407D01*
X45804Y-38012D02*
X45988Y-38012D01*
X45226Y-37434D02*
X45804Y-38012D01*
X45226Y-36968D02*
X45226Y-37434D01*
X45738Y-37309D02*
X45738Y-36968D01*
X46027Y-37598D02*
X45738Y-37309D01*
X46196Y-37598D02*
X46027Y-37598D01*
X48005Y-39407D02*
X46196Y-37598D01*
X50708Y-39407D02*
X48005Y-39407D01*
X51522Y-40222D02*
X50708Y-39407D01*
G54D10*
G36*
X55379Y-37612D02*
X55297Y-37735D01*
X55267Y-37887D01*
X53926Y-36547D01*
X53917Y-36500D01*
X53877Y-36440D01*
X52722Y-35286D01*
X52662Y-35246D01*
X52591Y-35231D01*
X50224Y-35231D01*
X50312Y-35099D01*
X50349Y-34917D01*
X50328Y-34815D01*
X50328Y-34005D01*
X50328Y-33829D01*
X50328Y-33005D01*
X50303Y-32931D01*
X49816Y-32931D01*
X49816Y-33391D01*
X49876Y-33391D01*
X50057Y-33349D01*
X50207Y-33242D01*
X50306Y-33085D01*
X50328Y-33005D01*
X50328Y-33829D01*
X50306Y-33748D01*
X50207Y-33591D01*
X50057Y-33484D01*
X49876Y-33443D01*
X49816Y-33443D01*
X49816Y-33903D01*
X50303Y-33903D01*
X50328Y-33829D01*
X50328Y-34005D01*
X50303Y-33931D01*
X49816Y-33931D01*
X49816Y-34391D01*
X49876Y-34391D01*
X50057Y-34349D01*
X50207Y-34242D01*
X50306Y-34085D01*
X50328Y-34005D01*
X50328Y-34815D01*
X50312Y-34735D01*
X50209Y-34581D01*
X50055Y-34478D01*
X49873Y-34441D01*
X49789Y-34441D01*
X49789Y-34391D01*
X49789Y-33931D01*
X49789Y-33903D01*
X49789Y-33443D01*
X49789Y-33391D01*
X49789Y-32931D01*
X49302Y-32931D01*
X49277Y-33005D01*
X49300Y-33085D01*
X49398Y-33242D01*
X49549Y-33349D01*
X49729Y-33391D01*
X49789Y-33391D01*
X49789Y-33443D01*
X49729Y-33443D01*
X49549Y-33484D01*
X49398Y-33591D01*
X49300Y-33748D01*
X49277Y-33829D01*
X49302Y-33903D01*
X49789Y-33903D01*
X49789Y-33931D01*
X49302Y-33931D01*
X49277Y-34005D01*
X49300Y-34085D01*
X49398Y-34242D01*
X49549Y-34349D01*
X49729Y-34391D01*
X49789Y-34391D01*
X49789Y-34441D01*
X49732Y-34441D01*
X49550Y-34478D01*
X49396Y-34581D01*
X49293Y-34735D01*
X49257Y-34917D01*
X49293Y-35099D01*
X49382Y-35231D01*
X47554Y-35231D01*
X47554Y-33983D01*
X47554Y-33930D01*
X47554Y-33767D01*
X47554Y-33673D01*
X47554Y-33511D01*
X47554Y-33458D01*
X47534Y-33408D01*
X47496Y-33371D01*
X47447Y-33350D01*
X47350Y-33350D01*
X47316Y-33384D01*
X47316Y-33706D01*
X47521Y-33706D01*
X47554Y-33673D01*
X47554Y-33767D01*
X47521Y-33734D01*
X47316Y-33734D01*
X47316Y-34057D01*
X47350Y-34090D01*
X47447Y-34090D01*
X47496Y-34070D01*
X47534Y-34032D01*
X47554Y-33983D01*
X47554Y-35231D01*
X47141Y-35231D01*
X47141Y-34790D01*
X47141Y-34737D01*
X47141Y-34692D01*
X47107Y-34659D01*
X46942Y-34659D01*
X46942Y-34864D01*
X46976Y-34897D01*
X47034Y-34897D01*
X47083Y-34877D01*
X47120Y-34839D01*
X47141Y-34790D01*
X47141Y-35231D01*
X46591Y-35231D01*
X46520Y-35246D01*
X46460Y-35286D01*
X46140Y-35605D01*
X46100Y-35666D01*
X46086Y-35737D01*
X46086Y-35916D01*
X46031Y-35971D01*
X46031Y-35877D01*
X46031Y-35726D01*
X46031Y-35673D01*
X46010Y-35624D01*
X45973Y-35586D01*
X45924Y-35566D01*
X45819Y-35566D01*
X45786Y-35599D01*
X45786Y-35911D01*
X45997Y-35911D01*
X46031Y-35877D01*
X46031Y-35971D01*
X46030Y-35971D01*
X45997Y-35938D01*
X45786Y-35938D01*
X45786Y-35946D01*
X45758Y-35946D01*
X45758Y-35938D01*
X45758Y-35911D01*
X45758Y-35599D01*
X45725Y-35566D01*
X45620Y-35566D01*
X45571Y-35586D01*
X45533Y-35624D01*
X45513Y-35673D01*
X45513Y-35726D01*
X45513Y-35877D01*
X45547Y-35911D01*
X45758Y-35911D01*
X45758Y-35938D01*
X45547Y-35938D01*
X45513Y-35972D01*
X45513Y-36123D01*
X45513Y-36176D01*
X45533Y-36226D01*
X45571Y-36263D01*
X45620Y-36284D01*
X45718Y-36284D01*
X45684Y-36318D01*
X44714Y-36318D01*
X44643Y-36332D01*
X44604Y-36358D01*
X44604Y-36319D01*
X44604Y-36204D01*
X44702Y-36244D01*
X44825Y-36245D01*
X44923Y-36204D01*
X44932Y-36226D01*
X44970Y-36265D01*
X45020Y-36285D01*
X45074Y-36285D01*
X45324Y-36285D01*
X45374Y-36265D01*
X45412Y-36226D01*
X45432Y-36177D01*
X45432Y-36123D01*
X45432Y-36061D01*
X45441Y-36056D01*
X45481Y-35996D01*
X45495Y-35925D01*
X45495Y-35256D01*
X45481Y-35185D01*
X45441Y-35125D01*
X45386Y-35071D01*
X45412Y-35045D01*
X45432Y-34996D01*
X45432Y-34942D01*
X45432Y-34929D01*
X45447Y-34929D01*
X45512Y-34929D01*
X45512Y-34996D01*
X45532Y-35045D01*
X45570Y-35083D01*
X45620Y-35104D01*
X45674Y-35104D01*
X45924Y-35104D01*
X45974Y-35083D01*
X46012Y-35045D01*
X46032Y-34996D01*
X46032Y-34942D01*
X46032Y-34492D01*
X46012Y-34442D01*
X45974Y-34404D01*
X45957Y-34397D01*
X45957Y-34178D01*
X45958Y-34177D01*
X45972Y-34106D01*
X45972Y-34106D01*
X45972Y-34075D01*
X45981Y-34071D01*
X46019Y-34033D01*
X46040Y-33983D01*
X46040Y-33929D01*
X46040Y-33457D01*
X46019Y-33408D01*
X45981Y-33369D01*
X45932Y-33349D01*
X45878Y-33349D01*
X45841Y-33349D01*
X46788Y-32402D01*
X46968Y-32402D01*
X46168Y-33203D01*
X46127Y-33263D01*
X46113Y-33334D01*
X46113Y-33366D01*
X46104Y-33369D01*
X46066Y-33408D01*
X46045Y-33457D01*
X46045Y-33511D01*
X46045Y-33983D01*
X46066Y-34033D01*
X46104Y-34071D01*
X46113Y-34075D01*
X46113Y-34106D01*
X46113Y-34466D01*
X46127Y-34537D01*
X46168Y-34598D01*
X46346Y-34776D01*
X46361Y-34786D01*
X46361Y-34790D01*
X46381Y-34840D01*
X46419Y-34878D01*
X46469Y-34899D01*
X46523Y-34899D01*
X46680Y-34899D01*
X46730Y-34878D01*
X46753Y-34855D01*
X46774Y-34877D01*
X46823Y-34897D01*
X46881Y-34897D01*
X46915Y-34864D01*
X46915Y-34659D01*
X46907Y-34659D01*
X46907Y-34631D01*
X46915Y-34631D01*
X46915Y-34624D01*
X46942Y-34624D01*
X46942Y-34631D01*
X47107Y-34631D01*
X47141Y-34598D01*
X47141Y-34554D01*
X47141Y-34501D01*
X47138Y-34493D01*
X47213Y-34418D01*
X47261Y-34304D01*
X47261Y-34180D01*
X47224Y-34090D01*
X47255Y-34090D01*
X47289Y-34057D01*
X47289Y-33734D01*
X47281Y-33734D01*
X47281Y-33706D01*
X47289Y-33706D01*
X47289Y-33384D01*
X47255Y-33350D01*
X47158Y-33350D01*
X47109Y-33371D01*
X47071Y-33408D01*
X47057Y-33441D01*
X47043Y-33408D01*
X47005Y-33369D01*
X46956Y-33349D01*
X46902Y-33349D01*
X46666Y-33349D01*
X46616Y-33369D01*
X46578Y-33408D01*
X46557Y-33457D01*
X46557Y-33511D01*
X46557Y-33983D01*
X46578Y-34033D01*
X46616Y-34071D01*
X46625Y-34075D01*
X46625Y-34106D01*
X46639Y-34177D01*
X46640Y-34179D01*
X46640Y-34180D01*
X46640Y-34303D01*
X46676Y-34392D01*
X46626Y-34392D01*
X46486Y-34392D01*
X46484Y-34390D01*
X46484Y-34106D01*
X46484Y-34075D01*
X46493Y-34071D01*
X46531Y-34033D01*
X46552Y-33983D01*
X46552Y-33929D01*
X46552Y-33457D01*
X46531Y-33408D01*
X46509Y-33386D01*
X47293Y-32602D01*
X49391Y-32602D01*
X49300Y-32748D01*
X49277Y-32829D01*
X49302Y-32903D01*
X49789Y-32903D01*
X49789Y-32895D01*
X49816Y-32895D01*
X49816Y-32903D01*
X50303Y-32903D01*
X50328Y-32829D01*
X50306Y-32748D01*
X50214Y-32602D01*
X50230Y-32602D01*
X55185Y-37558D01*
X55246Y-37598D01*
X55316Y-37612D01*
X55379Y-37612D01*
X55379Y-37612D01*
G37*
G54D25*
X55379Y-37612D02*
X55297Y-37735D01*
X55267Y-37887D01*
X53926Y-36547D01*
X53917Y-36500D01*
X53877Y-36440D01*
X52722Y-35286D01*
X52662Y-35246D01*
X52591Y-35231D01*
X50224Y-35231D01*
X50312Y-35099D01*
X50349Y-34917D01*
X50328Y-34815D01*
X50328Y-34005D01*
X50328Y-33829D01*
X50328Y-33005D01*
X50303Y-32931D01*
X49816Y-32931D01*
X49816Y-33391D01*
X49876Y-33391D01*
X50057Y-33349D01*
X50207Y-33242D01*
X50306Y-33085D01*
X50328Y-33005D01*
X50328Y-33829D01*
X50306Y-33748D01*
X50207Y-33591D01*
X50057Y-33484D01*
X49876Y-33443D01*
X49816Y-33443D01*
X49816Y-33903D01*
X50303Y-33903D01*
X50328Y-33829D01*
X50328Y-34005D01*
X50303Y-33931D01*
X49816Y-33931D01*
X49816Y-34391D01*
X49876Y-34391D01*
X50057Y-34349D01*
X50207Y-34242D01*
X50306Y-34085D01*
X50328Y-34005D01*
X50328Y-34815D01*
X50312Y-34735D01*
X50209Y-34581D01*
X50055Y-34478D01*
X49873Y-34441D01*
X49789Y-34441D01*
X49789Y-34391D01*
X49789Y-33931D01*
X49789Y-33903D01*
X49789Y-33443D01*
X49789Y-33391D01*
X49789Y-32931D01*
X49302Y-32931D01*
X49277Y-33005D01*
X49300Y-33085D01*
X49398Y-33242D01*
X49549Y-33349D01*
X49729Y-33391D01*
X49789Y-33391D01*
X49789Y-33443D01*
X49729Y-33443D01*
X49549Y-33484D01*
X49398Y-33591D01*
X49300Y-33748D01*
X49277Y-33829D01*
X49302Y-33903D01*
X49789Y-33903D01*
X49789Y-33931D01*
X49302Y-33931D01*
X49277Y-34005D01*
X49300Y-34085D01*
X49398Y-34242D01*
X49549Y-34349D01*
X49729Y-34391D01*
X49789Y-34391D01*
X49789Y-34441D01*
X49732Y-34441D01*
X49550Y-34478D01*
X49396Y-34581D01*
X49293Y-34735D01*
X49257Y-34917D01*
X49293Y-35099D01*
X49382Y-35231D01*
X47554Y-35231D01*
X47554Y-33983D01*
X47554Y-33930D01*
X47554Y-33767D01*
X47554Y-33673D01*
X47554Y-33511D01*
X47554Y-33458D01*
X47534Y-33408D01*
X47496Y-33371D01*
X47447Y-33350D01*
X47350Y-33350D01*
X47316Y-33384D01*
X47316Y-33706D01*
X47521Y-33706D01*
X47554Y-33673D01*
X47554Y-33767D01*
X47521Y-33734D01*
X47316Y-33734D01*
X47316Y-34057D01*
X47350Y-34090D01*
X47447Y-34090D01*
X47496Y-34070D01*
X47534Y-34032D01*
X47554Y-33983D01*
X47554Y-35231D01*
X47141Y-35231D01*
X47141Y-34790D01*
X47141Y-34737D01*
X47141Y-34692D01*
X47107Y-34659D01*
X46942Y-34659D01*
X46942Y-34864D01*
X46976Y-34897D01*
X47034Y-34897D01*
X47083Y-34877D01*
X47120Y-34839D01*
X47141Y-34790D01*
X47141Y-35231D01*
X46591Y-35231D01*
X46520Y-35246D01*
X46460Y-35286D01*
X46140Y-35605D01*
X46100Y-35666D01*
X46086Y-35737D01*
X46086Y-35916D01*
X46031Y-35971D01*
X46031Y-35877D01*
X46031Y-35726D01*
X46031Y-35673D01*
X46010Y-35624D01*
X45973Y-35586D01*
X45924Y-35566D01*
X45819Y-35566D01*
X45786Y-35599D01*
X45786Y-35911D01*
X45997Y-35911D01*
X46031Y-35877D01*
X46031Y-35971D01*
X46030Y-35971D01*
X45997Y-35938D01*
X45786Y-35938D01*
X45786Y-35946D01*
X45758Y-35946D01*
X45758Y-35938D01*
X45758Y-35911D01*
X45758Y-35599D01*
X45725Y-35566D01*
X45620Y-35566D01*
X45571Y-35586D01*
X45533Y-35624D01*
X45513Y-35673D01*
X45513Y-35726D01*
X45513Y-35877D01*
X45547Y-35911D01*
X45758Y-35911D01*
X45758Y-35938D01*
X45547Y-35938D01*
X45513Y-35972D01*
X45513Y-36123D01*
X45513Y-36176D01*
X45533Y-36226D01*
X45571Y-36263D01*
X45620Y-36284D01*
X45718Y-36284D01*
X45684Y-36318D01*
X44714Y-36318D01*
X44643Y-36332D01*
X44604Y-36358D01*
X44604Y-36319D01*
X44604Y-36204D01*
X44702Y-36244D01*
X44825Y-36245D01*
X44923Y-36204D01*
X44932Y-36226D01*
X44970Y-36265D01*
X45020Y-36285D01*
X45074Y-36285D01*
X45324Y-36285D01*
X45374Y-36265D01*
X45412Y-36226D01*
X45432Y-36177D01*
X45432Y-36123D01*
X45432Y-36061D01*
X45441Y-36056D01*
X45481Y-35996D01*
X45495Y-35925D01*
X45495Y-35256D01*
X45481Y-35185D01*
X45441Y-35125D01*
X45386Y-35071D01*
X45412Y-35045D01*
X45432Y-34996D01*
X45432Y-34942D01*
X45432Y-34929D01*
X45447Y-34929D01*
X45512Y-34929D01*
X45512Y-34996D01*
X45532Y-35045D01*
X45570Y-35083D01*
X45620Y-35104D01*
X45674Y-35104D01*
X45924Y-35104D01*
X45974Y-35083D01*
X46012Y-35045D01*
X46032Y-34996D01*
X46032Y-34942D01*
X46032Y-34492D01*
X46012Y-34442D01*
X45974Y-34404D01*
X45957Y-34397D01*
X45957Y-34178D01*
X45958Y-34177D01*
X45972Y-34106D01*
X45972Y-34106D01*
X45972Y-34075D01*
X45981Y-34071D01*
X46019Y-34033D01*
X46040Y-33983D01*
X46040Y-33929D01*
X46040Y-33457D01*
X46019Y-33408D01*
X45981Y-33369D01*
X45932Y-33349D01*
X45878Y-33349D01*
X45841Y-33349D01*
X46788Y-32402D01*
X46968Y-32402D01*
X46168Y-33203D01*
X46127Y-33263D01*
X46113Y-33334D01*
X46113Y-33366D01*
X46104Y-33369D01*
X46066Y-33408D01*
X46045Y-33457D01*
X46045Y-33511D01*
X46045Y-33983D01*
X46066Y-34033D01*
X46104Y-34071D01*
X46113Y-34075D01*
X46113Y-34106D01*
X46113Y-34466D01*
X46127Y-34537D01*
X46168Y-34598D01*
X46346Y-34776D01*
X46361Y-34786D01*
X46361Y-34790D01*
X46381Y-34840D01*
X46419Y-34878D01*
X46469Y-34899D01*
X46523Y-34899D01*
X46680Y-34899D01*
X46730Y-34878D01*
X46753Y-34855D01*
X46774Y-34877D01*
X46823Y-34897D01*
X46881Y-34897D01*
X46915Y-34864D01*
X46915Y-34659D01*
X46907Y-34659D01*
X46907Y-34631D01*
X46915Y-34631D01*
X46915Y-34624D01*
X46942Y-34624D01*
X46942Y-34631D01*
X47107Y-34631D01*
X47141Y-34598D01*
X47141Y-34554D01*
X47141Y-34501D01*
X47138Y-34493D01*
X47213Y-34418D01*
X47261Y-34304D01*
X47261Y-34180D01*
X47224Y-34090D01*
X47255Y-34090D01*
X47289Y-34057D01*
X47289Y-33734D01*
X47281Y-33734D01*
X47281Y-33706D01*
X47289Y-33706D01*
X47289Y-33384D01*
X47255Y-33350D01*
X47158Y-33350D01*
X47109Y-33371D01*
X47071Y-33408D01*
X47057Y-33441D01*
X47043Y-33408D01*
X47005Y-33369D01*
X46956Y-33349D01*
X46902Y-33349D01*
X46666Y-33349D01*
X46616Y-33369D01*
X46578Y-33408D01*
X46557Y-33457D01*
X46557Y-33511D01*
X46557Y-33983D01*
X46578Y-34033D01*
X46616Y-34071D01*
X46625Y-34075D01*
X46625Y-34106D01*
X46639Y-34177D01*
X46640Y-34179D01*
X46640Y-34180D01*
X46640Y-34303D01*
X46676Y-34392D01*
X46626Y-34392D01*
X46486Y-34392D01*
X46484Y-34390D01*
X46484Y-34106D01*
X46484Y-34075D01*
X46493Y-34071D01*
X46531Y-34033D01*
X46552Y-33983D01*
X46552Y-33929D01*
X46552Y-33457D01*
X46531Y-33408D01*
X46509Y-33386D01*
X47293Y-32602D01*
X49391Y-32602D01*
X49300Y-32748D01*
X49277Y-32829D01*
X49302Y-32903D01*
X49789Y-32903D01*
X49789Y-32895D01*
X49816Y-32895D01*
X49816Y-32903D01*
X50303Y-32903D01*
X50328Y-32829D01*
X50306Y-32748D01*
X50214Y-32602D01*
X50230Y-32602D01*
X55185Y-37558D01*
X55246Y-37598D01*
X55316Y-37612D01*
X55379Y-37612D01*
G54D10*
G36*
X69559Y-45460D02*
X69461Y-45950D01*
X69190Y-46355D01*
X68785Y-46626D01*
X68521Y-46679D01*
X68521Y-45184D01*
X68521Y-45130D01*
X68521Y-43791D01*
X68521Y-32979D01*
X68521Y-32926D01*
X68521Y-31587D01*
X68500Y-31537D01*
X68462Y-31499D01*
X68412Y-31478D01*
X68359Y-31478D01*
X67020Y-31478D01*
X66970Y-31499D01*
X66932Y-31537D01*
X66911Y-31587D01*
X66911Y-31640D01*
X66911Y-32979D01*
X66932Y-33029D01*
X66970Y-33067D01*
X67020Y-33088D01*
X67073Y-33088D01*
X68412Y-33088D01*
X68462Y-33067D01*
X68500Y-33029D01*
X68521Y-32979D01*
X68521Y-43791D01*
X68500Y-43741D01*
X68462Y-43703D01*
X68412Y-43683D01*
X68359Y-43683D01*
X68065Y-43683D01*
X68065Y-39082D01*
X68029Y-38900D01*
X67926Y-38746D01*
X67772Y-38643D01*
X67694Y-38627D01*
X67705Y-38572D01*
X67705Y-38535D01*
X67772Y-38521D01*
X67926Y-38418D01*
X68029Y-38264D01*
X68065Y-38082D01*
X68045Y-37980D01*
X68045Y-37170D01*
X68045Y-36994D01*
X68022Y-36914D01*
X67924Y-36757D01*
X67773Y-36650D01*
X67593Y-36608D01*
X67533Y-36608D01*
X67533Y-37068D01*
X68019Y-37068D01*
X68045Y-36994D01*
X68045Y-37170D01*
X68019Y-37096D01*
X67533Y-37096D01*
X67533Y-37556D01*
X67593Y-37556D01*
X67773Y-37515D01*
X67924Y-37408D01*
X68022Y-37251D01*
X68045Y-37170D01*
X68045Y-37980D01*
X68029Y-37900D01*
X67926Y-37746D01*
X67772Y-37643D01*
X67590Y-37607D01*
X67505Y-37607D01*
X67505Y-37556D01*
X67505Y-37096D01*
X67505Y-37068D01*
X67505Y-36608D01*
X67445Y-36608D01*
X67265Y-36650D01*
X67114Y-36757D01*
X67016Y-36914D01*
X66994Y-36994D01*
X67019Y-37068D01*
X67505Y-37068D01*
X67505Y-37096D01*
X67019Y-37096D01*
X66994Y-37170D01*
X67016Y-37251D01*
X67114Y-37408D01*
X67265Y-37515D01*
X67445Y-37556D01*
X67505Y-37556D01*
X67505Y-37607D01*
X67449Y-37607D01*
X67267Y-37643D01*
X67113Y-37746D01*
X67009Y-37900D01*
X66973Y-38082D01*
X67009Y-38264D01*
X67113Y-38418D01*
X67145Y-38440D01*
X67143Y-38441D01*
X66139Y-39445D01*
X66099Y-39505D01*
X66085Y-39576D01*
X66085Y-42027D01*
X64614Y-43498D01*
X64584Y-43345D01*
X64481Y-43191D01*
X64458Y-43176D01*
X64469Y-43168D01*
X65374Y-42264D01*
X65414Y-42204D01*
X65428Y-42133D01*
X65428Y-37739D01*
X65430Y-37743D01*
X65468Y-37781D01*
X65517Y-37802D01*
X65571Y-37802D01*
X66371Y-37802D01*
X66421Y-37781D01*
X66459Y-37743D01*
X66480Y-37693D01*
X66480Y-37639D01*
X66480Y-36959D01*
X66459Y-36910D01*
X66421Y-36871D01*
X66371Y-36851D01*
X66317Y-36851D01*
X65517Y-36851D01*
X65468Y-36871D01*
X65430Y-36910D01*
X65428Y-36913D01*
X65428Y-36475D01*
X65435Y-36508D01*
X65538Y-36662D01*
X65692Y-36766D01*
X65874Y-36802D01*
X66015Y-36802D01*
X66197Y-36766D01*
X66351Y-36662D01*
X66454Y-36508D01*
X66490Y-36326D01*
X66454Y-36144D01*
X66351Y-35990D01*
X66197Y-35887D01*
X66015Y-35851D01*
X65874Y-35851D01*
X65692Y-35887D01*
X65538Y-35990D01*
X65435Y-36144D01*
X65428Y-36177D01*
X65428Y-35475D01*
X65435Y-35508D01*
X65538Y-35662D01*
X65692Y-35766D01*
X65874Y-35802D01*
X66015Y-35802D01*
X66197Y-35766D01*
X66351Y-35662D01*
X66454Y-35508D01*
X66490Y-35326D01*
X66470Y-35224D01*
X66470Y-34414D01*
X66470Y-34239D01*
X66447Y-34158D01*
X66349Y-34001D01*
X66198Y-33894D01*
X66018Y-33852D01*
X65958Y-33852D01*
X65958Y-34312D01*
X66445Y-34312D01*
X66470Y-34239D01*
X66470Y-34414D01*
X66445Y-34340D01*
X65958Y-34340D01*
X65958Y-34800D01*
X66018Y-34800D01*
X66198Y-34759D01*
X66349Y-34652D01*
X66447Y-34495D01*
X66470Y-34414D01*
X66470Y-35224D01*
X66454Y-35144D01*
X66351Y-34990D01*
X66197Y-34887D01*
X66015Y-34851D01*
X65874Y-34851D01*
X65692Y-34887D01*
X65538Y-34990D01*
X65435Y-35144D01*
X65428Y-35177D01*
X65428Y-34448D01*
X65441Y-34495D01*
X65540Y-34652D01*
X65690Y-34759D01*
X65871Y-34800D01*
X65931Y-34800D01*
X65931Y-34340D01*
X65923Y-34340D01*
X65923Y-34312D01*
X65931Y-34312D01*
X65931Y-33852D01*
X65871Y-33852D01*
X65690Y-33894D01*
X65540Y-34001D01*
X65441Y-34158D01*
X65428Y-34205D01*
X65428Y-32711D01*
X65414Y-32640D01*
X65374Y-32580D01*
X65374Y-32580D01*
X64650Y-31857D01*
X64590Y-31816D01*
X64519Y-31802D01*
X64505Y-31802D01*
X64505Y-31773D01*
X64464Y-31571D01*
X64350Y-31399D01*
X64178Y-31285D01*
X63976Y-31244D01*
X63773Y-31285D01*
X63602Y-31399D01*
X63487Y-31571D01*
X63447Y-31773D01*
X63447Y-32202D01*
X63487Y-32404D01*
X63602Y-32576D01*
X63773Y-32691D01*
X63976Y-32731D01*
X64178Y-32691D01*
X64350Y-32576D01*
X64464Y-32404D01*
X64499Y-32230D01*
X65057Y-32788D01*
X65057Y-34231D01*
X62682Y-31857D01*
X62622Y-31816D01*
X62551Y-31802D01*
X62537Y-31802D01*
X62537Y-31773D01*
X62496Y-31571D01*
X62382Y-31399D01*
X62210Y-31285D01*
X62008Y-31244D01*
X61805Y-31285D01*
X61634Y-31399D01*
X61519Y-31571D01*
X61479Y-31773D01*
X61479Y-32202D01*
X61519Y-32404D01*
X61634Y-32576D01*
X61805Y-32691D01*
X62008Y-32731D01*
X62210Y-32691D01*
X62382Y-32576D01*
X62496Y-32404D01*
X62531Y-32230D01*
X64857Y-34556D01*
X64857Y-36000D01*
X60713Y-31857D01*
X60653Y-31816D01*
X60582Y-31802D01*
X60568Y-31802D01*
X60568Y-31773D01*
X60527Y-31571D01*
X60413Y-31399D01*
X60241Y-31285D01*
X60039Y-31244D01*
X59836Y-31285D01*
X59665Y-31399D01*
X59550Y-31571D01*
X59510Y-31773D01*
X59510Y-32202D01*
X59550Y-32404D01*
X59665Y-32576D01*
X59836Y-32691D01*
X60039Y-32731D01*
X60241Y-32691D01*
X60413Y-32576D01*
X60527Y-32404D01*
X60562Y-32230D01*
X64657Y-36325D01*
X64657Y-37768D01*
X58745Y-31857D01*
X58685Y-31816D01*
X58614Y-31802D01*
X58600Y-31802D01*
X58600Y-31773D01*
X58559Y-31571D01*
X58445Y-31399D01*
X58273Y-31285D01*
X58071Y-31244D01*
X57868Y-31285D01*
X57697Y-31399D01*
X57582Y-31571D01*
X57542Y-31773D01*
X57542Y-32202D01*
X57562Y-32302D01*
X56545Y-31286D01*
X56485Y-31246D01*
X56414Y-31231D01*
X56228Y-31231D01*
X56316Y-31099D01*
X56353Y-30917D01*
X56316Y-30735D01*
X56213Y-30581D01*
X56059Y-30478D01*
X55877Y-30441D01*
X55736Y-30441D01*
X55554Y-30478D01*
X55400Y-30581D01*
X55297Y-30735D01*
X55261Y-30917D01*
X55297Y-31099D01*
X55385Y-31231D01*
X52275Y-31231D01*
X51339Y-30296D01*
X51279Y-30255D01*
X51208Y-30241D01*
X48119Y-30241D01*
X48048Y-30255D01*
X48024Y-30271D01*
X47988Y-30296D01*
X47303Y-30981D01*
X47241Y-30919D01*
X47181Y-30879D01*
X47110Y-30865D01*
X46811Y-30865D01*
X46740Y-30879D01*
X46679Y-30919D01*
X46639Y-30979D01*
X46625Y-31050D01*
X46625Y-31082D01*
X46616Y-31085D01*
X46578Y-31124D01*
X46557Y-31173D01*
X46557Y-31227D01*
X46557Y-31699D01*
X46578Y-31749D01*
X46616Y-31787D01*
X46666Y-31808D01*
X46720Y-31808D01*
X46956Y-31808D01*
X47005Y-31787D01*
X47043Y-31749D01*
X47057Y-31717D01*
X47070Y-31749D01*
X47108Y-31787D01*
X47158Y-31808D01*
X47212Y-31808D01*
X47448Y-31808D01*
X47497Y-31787D01*
X47535Y-31749D01*
X47556Y-31699D01*
X47556Y-31645D01*
X47556Y-31252D01*
X48196Y-30612D01*
X49267Y-30612D01*
X49267Y-31231D01*
X49242Y-31236D01*
X49181Y-31276D01*
X48426Y-32031D01*
X46711Y-32031D01*
X46640Y-32045D01*
X46580Y-32086D01*
X46552Y-32114D01*
X46552Y-31699D01*
X46552Y-31645D01*
X46552Y-31173D01*
X46531Y-31124D01*
X46493Y-31085D01*
X46444Y-31065D01*
X46390Y-31065D01*
X46154Y-31065D01*
X46104Y-31085D01*
X46066Y-31124D01*
X46053Y-31155D01*
X46039Y-31124D01*
X46001Y-31085D01*
X45952Y-31065D01*
X45898Y-31065D01*
X45662Y-31065D01*
X45612Y-31085D01*
X45574Y-31124D01*
X45553Y-31173D01*
X45553Y-31227D01*
X45553Y-31444D01*
X45146Y-31444D01*
X45067Y-31365D01*
X45007Y-31324D01*
X44936Y-31310D01*
X44899Y-31310D01*
X44895Y-31293D01*
X44781Y-31122D01*
X44609Y-31007D01*
X44407Y-30967D01*
X43978Y-30967D01*
X43776Y-31007D01*
X43604Y-31122D01*
X43489Y-31293D01*
X43449Y-31496D01*
X43489Y-31698D01*
X43604Y-31870D01*
X43776Y-31984D01*
X43978Y-32025D01*
X44407Y-32025D01*
X44609Y-31984D01*
X44781Y-31870D01*
X44888Y-31710D01*
X44938Y-31760D01*
X44938Y-31760D01*
X44999Y-31801D01*
X45070Y-31815D01*
X45621Y-31815D01*
X45621Y-31822D01*
X45635Y-31893D01*
X45676Y-31953D01*
X45736Y-31994D01*
X45807Y-32008D01*
X46299Y-32008D01*
X46370Y-31994D01*
X46430Y-31953D01*
X46470Y-31893D01*
X46484Y-31822D01*
X46484Y-31791D01*
X46493Y-31787D01*
X46531Y-31749D01*
X46552Y-31699D01*
X46552Y-32114D01*
X44911Y-33755D01*
X44911Y-33560D01*
X44911Y-33368D01*
X44885Y-33275D01*
X44775Y-33101D01*
X44607Y-32982D01*
X44406Y-32936D01*
X44206Y-32936D01*
X44206Y-33450D01*
X44886Y-33450D01*
X44911Y-33368D01*
X44911Y-33560D01*
X44886Y-33478D01*
X44206Y-33478D01*
X44206Y-33991D01*
X44406Y-33991D01*
X44607Y-33946D01*
X44775Y-33827D01*
X44885Y-33653D01*
X44911Y-33560D01*
X44911Y-33755D01*
X44288Y-34378D01*
X44248Y-34438D01*
X44234Y-34509D01*
X44234Y-36046D01*
X44179Y-36023D01*
X44179Y-33991D01*
X44179Y-33478D01*
X44179Y-33450D01*
X44179Y-32936D01*
X43979Y-32936D01*
X43778Y-32982D01*
X43610Y-33101D01*
X43500Y-33275D01*
X43474Y-33368D01*
X43499Y-33450D01*
X44179Y-33450D01*
X44179Y-33478D01*
X43499Y-33478D01*
X43474Y-33560D01*
X43500Y-33653D01*
X43610Y-33827D01*
X43778Y-33946D01*
X43979Y-33991D01*
X44179Y-33991D01*
X44179Y-36023D01*
X44142Y-36008D01*
X44019Y-36008D01*
X43905Y-36055D01*
X43817Y-36143D01*
X43770Y-36257D01*
X43770Y-36380D01*
X43817Y-36494D01*
X43855Y-36532D01*
X43840Y-36539D01*
X43802Y-36577D01*
X43781Y-36627D01*
X43781Y-36680D01*
X43781Y-37310D01*
X43802Y-37360D01*
X43840Y-37398D01*
X43890Y-37419D01*
X43944Y-37419D01*
X44062Y-37419D01*
X44089Y-37408D01*
X44116Y-37419D01*
X44170Y-37419D01*
X44288Y-37419D01*
X44330Y-37401D01*
X44372Y-37419D01*
X44426Y-37419D01*
X44544Y-37419D01*
X44586Y-37401D01*
X44628Y-37419D01*
X44682Y-37419D01*
X44800Y-37419D01*
X44842Y-37401D01*
X44884Y-37419D01*
X44938Y-37419D01*
X45040Y-37419D01*
X45040Y-37434D01*
X45055Y-37505D01*
X45095Y-37565D01*
X45230Y-37700D01*
X45149Y-37700D01*
X45035Y-37747D01*
X44947Y-37834D01*
X44900Y-37948D01*
X44900Y-38072D01*
X44947Y-38186D01*
X45034Y-38273D01*
X45080Y-38292D01*
X45746Y-38958D01*
X45652Y-38958D01*
X45610Y-38975D01*
X45568Y-38958D01*
X45514Y-38958D01*
X45396Y-38958D01*
X45354Y-38975D01*
X45312Y-38958D01*
X45258Y-38958D01*
X45140Y-38958D01*
X45098Y-38975D01*
X45056Y-38958D01*
X45002Y-38958D01*
X44884Y-38958D01*
X44842Y-38975D01*
X44800Y-38958D01*
X44746Y-38958D01*
X44628Y-38958D01*
X44586Y-38975D01*
X44544Y-38958D01*
X44490Y-38958D01*
X44372Y-38958D01*
X44330Y-38975D01*
X44288Y-38958D01*
X44234Y-38958D01*
X44116Y-38958D01*
X44066Y-38979D01*
X44049Y-38996D01*
X44027Y-38987D01*
X43984Y-38987D01*
X43866Y-38987D01*
X43827Y-39003D01*
X43797Y-39033D01*
X43781Y-39072D01*
X43781Y-39115D01*
X43781Y-39745D01*
X43797Y-39784D01*
X43827Y-39814D01*
X43866Y-39830D01*
X43908Y-39830D01*
X44017Y-39830D01*
X44017Y-40487D01*
X43770Y-40735D01*
X43711Y-40710D01*
X43540Y-40710D01*
X43381Y-40776D01*
X43260Y-40897D01*
X43194Y-41055D01*
X43194Y-41227D01*
X43260Y-41385D01*
X43381Y-41506D01*
X43416Y-41521D01*
X43416Y-42342D01*
X43407Y-42346D01*
X43369Y-42384D01*
X43348Y-42434D01*
X43348Y-42487D01*
X43348Y-42644D01*
X43369Y-42694D01*
X43392Y-42717D01*
X43370Y-42739D01*
X43350Y-42788D01*
X43350Y-42846D01*
X43383Y-42879D01*
X43588Y-42879D01*
X43588Y-42871D01*
X43616Y-42871D01*
X43616Y-42879D01*
X43820Y-42879D01*
X43854Y-42846D01*
X43854Y-42788D01*
X43833Y-42739D01*
X43812Y-42717D01*
X43835Y-42694D01*
X43855Y-42644D01*
X43855Y-42591D01*
X43855Y-42434D01*
X43835Y-42384D01*
X43797Y-42346D01*
X43787Y-42342D01*
X43787Y-41540D01*
X43869Y-41507D01*
X43990Y-41386D01*
X44056Y-41227D01*
X44056Y-41056D01*
X44032Y-40997D01*
X44333Y-40695D01*
X44333Y-40695D01*
X44357Y-40659D01*
X44374Y-40635D01*
X44374Y-40635D01*
X44388Y-40564D01*
X44388Y-40244D01*
X45140Y-40997D01*
X45116Y-41055D01*
X45116Y-41227D01*
X45182Y-41385D01*
X45303Y-41506D01*
X45385Y-41540D01*
X45385Y-42342D01*
X45376Y-42346D01*
X45338Y-42384D01*
X45317Y-42434D01*
X45317Y-42487D01*
X45317Y-42644D01*
X45338Y-42694D01*
X45360Y-42717D01*
X45339Y-42739D01*
X45319Y-42788D01*
X45319Y-42846D01*
X45352Y-42879D01*
X45557Y-42879D01*
X45557Y-42871D01*
X45584Y-42871D01*
X45584Y-42879D01*
X45789Y-42879D01*
X45822Y-42846D01*
X45822Y-42788D01*
X45802Y-42739D01*
X45780Y-42717D01*
X45803Y-42694D01*
X45824Y-42644D01*
X45824Y-42591D01*
X45824Y-42434D01*
X45803Y-42384D01*
X45765Y-42346D01*
X45756Y-42342D01*
X45756Y-41521D01*
X45791Y-41507D01*
X45912Y-41386D01*
X45978Y-41227D01*
X45978Y-41056D01*
X45913Y-40897D01*
X45792Y-40776D01*
X45633Y-40710D01*
X45462Y-40710D01*
X45403Y-40735D01*
X44644Y-39975D01*
X44644Y-39859D01*
X44682Y-39859D01*
X44800Y-39859D01*
X44842Y-39841D01*
X44884Y-39859D01*
X44938Y-39859D01*
X45056Y-39859D01*
X45098Y-39841D01*
X45140Y-39859D01*
X45194Y-39859D01*
X45312Y-39859D01*
X45354Y-39842D01*
X45396Y-39859D01*
X45450Y-39859D01*
X45568Y-39859D01*
X45610Y-39841D01*
X45652Y-39859D01*
X45706Y-39859D01*
X45824Y-39859D01*
X45866Y-39841D01*
X45908Y-39859D01*
X45962Y-39859D01*
X46080Y-39859D01*
X46122Y-39841D01*
X46164Y-39859D01*
X46218Y-39859D01*
X46336Y-39859D01*
X46385Y-39838D01*
X46424Y-39800D01*
X46444Y-39750D01*
X46444Y-39696D01*
X46444Y-39099D01*
X46503Y-39075D01*
X46591Y-38988D01*
X46623Y-38909D01*
X49252Y-41538D01*
X49312Y-41578D01*
X49383Y-41592D01*
X49388Y-41592D01*
X49293Y-41735D01*
X49257Y-41917D01*
X49293Y-42099D01*
X49396Y-42253D01*
X49550Y-42356D01*
X49732Y-42392D01*
X49873Y-42392D01*
X50055Y-42356D01*
X50209Y-42253D01*
X50312Y-42099D01*
X50349Y-41917D01*
X50312Y-41735D01*
X50217Y-41592D01*
X55392Y-41592D01*
X55297Y-41735D01*
X55261Y-41917D01*
X55297Y-42099D01*
X55400Y-42253D01*
X55554Y-42356D01*
X55736Y-42392D01*
X55877Y-42392D01*
X56059Y-42356D01*
X56213Y-42253D01*
X56316Y-42099D01*
X56353Y-41917D01*
X56316Y-41735D01*
X56213Y-41581D01*
X56059Y-41478D01*
X55981Y-41462D01*
X55992Y-41407D01*
X55992Y-41369D01*
X56059Y-41356D01*
X56213Y-41253D01*
X56316Y-41099D01*
X56353Y-40917D01*
X56316Y-40735D01*
X56213Y-40581D01*
X56059Y-40478D01*
X55981Y-40462D01*
X55992Y-40407D01*
X55992Y-40369D01*
X56059Y-40356D01*
X56213Y-40253D01*
X56316Y-40099D01*
X56353Y-39917D01*
X56316Y-39735D01*
X56228Y-39602D01*
X56891Y-39602D01*
X57457Y-40168D01*
X57493Y-40192D01*
X57517Y-40208D01*
X57517Y-40208D01*
X57588Y-40222D01*
X57651Y-40222D01*
X57569Y-40345D01*
X57532Y-40527D01*
X57569Y-40709D01*
X57672Y-40863D01*
X57826Y-40966D01*
X58008Y-41002D01*
X58149Y-41002D01*
X58331Y-40966D01*
X58449Y-40887D01*
X58449Y-41167D01*
X58331Y-41088D01*
X58149Y-41052D01*
X58008Y-41052D01*
X57826Y-41088D01*
X57672Y-41191D01*
X57569Y-41345D01*
X57532Y-41527D01*
X57569Y-41709D01*
X57672Y-41863D01*
X57826Y-41966D01*
X58008Y-42002D01*
X58149Y-42002D01*
X58331Y-41966D01*
X58449Y-41887D01*
X58449Y-42167D01*
X58331Y-42088D01*
X58149Y-42052D01*
X58008Y-42052D01*
X57826Y-42088D01*
X57672Y-42191D01*
X57569Y-42345D01*
X57532Y-42527D01*
X57569Y-42709D01*
X57672Y-42863D01*
X57826Y-42966D01*
X58008Y-43002D01*
X58149Y-43002D01*
X58331Y-42966D01*
X58449Y-42887D01*
X58449Y-43167D01*
X58331Y-43088D01*
X58149Y-43052D01*
X58008Y-43052D01*
X57826Y-43088D01*
X57672Y-43191D01*
X57569Y-43345D01*
X57532Y-43527D01*
X57569Y-43709D01*
X57672Y-43863D01*
X57826Y-43966D01*
X57904Y-43982D01*
X57893Y-44037D01*
X57893Y-44074D01*
X57826Y-44088D01*
X57672Y-44191D01*
X57569Y-44345D01*
X57532Y-44527D01*
X57569Y-44709D01*
X57672Y-44863D01*
X57826Y-44966D01*
X58008Y-45002D01*
X58149Y-45002D01*
X58331Y-44966D01*
X58485Y-44863D01*
X58588Y-44709D01*
X58624Y-44527D01*
X58588Y-44345D01*
X58485Y-44191D01*
X58453Y-44169D01*
X58454Y-44168D01*
X58766Y-43856D01*
X58806Y-43796D01*
X58820Y-43725D01*
X58820Y-37985D01*
X58806Y-37914D01*
X58806Y-37914D01*
X58790Y-37890D01*
X58766Y-37854D01*
X56198Y-35286D01*
X56181Y-35275D01*
X56213Y-35253D01*
X56316Y-35099D01*
X56345Y-34957D01*
X62675Y-41287D01*
X62675Y-45083D01*
X62689Y-45154D01*
X62729Y-45214D01*
X63674Y-46158D01*
X63674Y-46158D01*
X63734Y-46199D01*
X63805Y-46213D01*
X64348Y-46213D01*
X64419Y-46199D01*
X64479Y-46158D01*
X67650Y-42987D01*
X67650Y-42987D01*
X67674Y-42951D01*
X67691Y-42927D01*
X67691Y-42927D01*
X67705Y-42856D01*
X67705Y-40558D01*
X67946Y-40558D01*
X67996Y-40537D01*
X68034Y-40499D01*
X68055Y-40449D01*
X68055Y-40395D01*
X68055Y-39715D01*
X68034Y-39665D01*
X67996Y-39627D01*
X67946Y-39607D01*
X67892Y-39607D01*
X67092Y-39607D01*
X67042Y-39627D01*
X67004Y-39665D01*
X66984Y-39715D01*
X66984Y-39769D01*
X66984Y-40449D01*
X67004Y-40499D01*
X67042Y-40537D01*
X67092Y-40558D01*
X67146Y-40558D01*
X67334Y-40558D01*
X67334Y-42779D01*
X64600Y-45513D01*
X64600Y-45513D01*
X64574Y-45513D01*
X64600Y-45439D01*
X64577Y-45358D01*
X64479Y-45202D01*
X64328Y-45095D01*
X64148Y-45053D01*
X64088Y-45053D01*
X64088Y-45513D01*
X64096Y-45513D01*
X64096Y-45541D01*
X64088Y-45541D01*
X64088Y-45549D01*
X64061Y-45549D01*
X64061Y-45541D01*
X64053Y-45541D01*
X64053Y-45513D01*
X64061Y-45513D01*
X64061Y-45053D01*
X64001Y-45053D01*
X63820Y-45095D01*
X63669Y-45202D01*
X63571Y-45358D01*
X63549Y-45439D01*
X63574Y-45513D01*
X63553Y-45513D01*
X63046Y-45006D01*
X63046Y-41210D01*
X63032Y-41139D01*
X63032Y-41139D01*
X63016Y-41115D01*
X62992Y-41079D01*
X56198Y-34286D01*
X56181Y-34274D01*
X56213Y-34253D01*
X56316Y-34099D01*
X56353Y-33917D01*
X56353Y-32917D01*
X56332Y-32815D01*
X56332Y-32005D01*
X56307Y-31931D01*
X55820Y-31931D01*
X55820Y-32391D01*
X55880Y-32391D01*
X56061Y-32349D01*
X56211Y-32242D01*
X56310Y-32085D01*
X56332Y-32005D01*
X56332Y-32815D01*
X56316Y-32735D01*
X56213Y-32581D01*
X56059Y-32478D01*
X55877Y-32441D01*
X55793Y-32441D01*
X55793Y-32391D01*
X55793Y-31931D01*
X55306Y-31931D01*
X55281Y-32005D01*
X55304Y-32085D01*
X55402Y-32242D01*
X55553Y-32349D01*
X55733Y-32391D01*
X55793Y-32391D01*
X55793Y-32441D01*
X55736Y-32441D01*
X55554Y-32478D01*
X55400Y-32581D01*
X55297Y-32735D01*
X55261Y-32917D01*
X55297Y-33099D01*
X55400Y-33253D01*
X55554Y-33356D01*
X55736Y-33392D01*
X55877Y-33392D01*
X56059Y-33356D01*
X56213Y-33253D01*
X56316Y-33099D01*
X56353Y-32917D01*
X56353Y-33917D01*
X56316Y-33735D01*
X56213Y-33581D01*
X56059Y-33478D01*
X55877Y-33441D01*
X55736Y-33441D01*
X55554Y-33478D01*
X55400Y-33581D01*
X55297Y-33735D01*
X55261Y-33917D01*
X55297Y-34099D01*
X55385Y-34231D01*
X54865Y-34231D01*
X54865Y-34227D01*
X54818Y-34112D01*
X54731Y-34025D01*
X54617Y-33978D01*
X54493Y-33978D01*
X54379Y-34025D01*
X54292Y-34112D01*
X54259Y-34192D01*
X51853Y-31786D01*
X51792Y-31746D01*
X51721Y-31731D01*
X50310Y-31731D01*
X50209Y-31581D01*
X50055Y-31478D01*
X49977Y-31462D01*
X49988Y-31407D01*
X49988Y-31392D01*
X50230Y-31392D01*
X50279Y-31372D01*
X50317Y-31334D01*
X50338Y-31284D01*
X50338Y-31230D01*
X50338Y-30612D01*
X51131Y-30612D01*
X52067Y-31548D01*
X52127Y-31588D01*
X52198Y-31602D01*
X55395Y-31602D01*
X55304Y-31748D01*
X55281Y-31829D01*
X55306Y-31903D01*
X55793Y-31903D01*
X55793Y-31895D01*
X55820Y-31895D01*
X55820Y-31903D01*
X56307Y-31903D01*
X56332Y-31829D01*
X56310Y-31748D01*
X56218Y-31602D01*
X56337Y-31602D01*
X63393Y-38658D01*
X63453Y-38698D01*
X63524Y-38712D01*
X63539Y-38712D01*
X63539Y-38894D01*
X63559Y-38944D01*
X63598Y-38982D01*
X63647Y-39002D01*
X63701Y-39002D01*
X64439Y-39002D01*
X64439Y-39173D01*
X64328Y-39095D01*
X64148Y-39053D01*
X64088Y-39053D01*
X64088Y-39513D01*
X64096Y-39513D01*
X64096Y-39541D01*
X64088Y-39541D01*
X64088Y-39549D01*
X64061Y-39549D01*
X64061Y-39541D01*
X64061Y-39513D01*
X64061Y-39053D01*
X64001Y-39053D01*
X63820Y-39095D01*
X63669Y-39202D01*
X63571Y-39358D01*
X63549Y-39439D01*
X63574Y-39513D01*
X64061Y-39513D01*
X64061Y-39541D01*
X63574Y-39541D01*
X63549Y-39615D01*
X63571Y-39696D01*
X63669Y-39852D01*
X63820Y-39960D01*
X63901Y-39978D01*
X63889Y-40037D01*
X63889Y-40074D01*
X63822Y-40088D01*
X63668Y-40191D01*
X63565Y-40345D01*
X63528Y-40527D01*
X63565Y-40709D01*
X63668Y-40863D01*
X63822Y-40966D01*
X63900Y-40982D01*
X63889Y-41037D01*
X63889Y-41074D01*
X63822Y-41088D01*
X63668Y-41191D01*
X63565Y-41345D01*
X63528Y-41527D01*
X63565Y-41709D01*
X63668Y-41863D01*
X63822Y-41966D01*
X63900Y-41982D01*
X63889Y-42037D01*
X63889Y-42074D01*
X63822Y-42088D01*
X63668Y-42191D01*
X63565Y-42345D01*
X63528Y-42527D01*
X63565Y-42709D01*
X63668Y-42863D01*
X63822Y-42966D01*
X63900Y-42982D01*
X63889Y-43037D01*
X63889Y-43074D01*
X63822Y-43088D01*
X63668Y-43191D01*
X63565Y-43345D01*
X63528Y-43527D01*
X63565Y-43709D01*
X63668Y-43863D01*
X63822Y-43966D01*
X63900Y-43982D01*
X63889Y-44037D01*
X63889Y-44074D01*
X63822Y-44088D01*
X63668Y-44191D01*
X63565Y-44345D01*
X63528Y-44527D01*
X63565Y-44709D01*
X63668Y-44863D01*
X63822Y-44966D01*
X64004Y-45002D01*
X64145Y-45002D01*
X64327Y-44966D01*
X64481Y-44863D01*
X64584Y-44709D01*
X64620Y-44527D01*
X64584Y-44345D01*
X64481Y-44191D01*
X64458Y-44175D01*
X64468Y-44168D01*
X66402Y-42235D01*
X66442Y-42175D01*
X66456Y-42104D01*
X66456Y-42104D01*
X66456Y-39653D01*
X66982Y-39127D01*
X67009Y-39264D01*
X67113Y-39418D01*
X67267Y-39521D01*
X67449Y-39558D01*
X67590Y-39558D01*
X67772Y-39521D01*
X67926Y-39418D01*
X68029Y-39264D01*
X68065Y-39082D01*
X68065Y-43683D01*
X67020Y-43683D01*
X66970Y-43703D01*
X66932Y-43741D01*
X66911Y-43791D01*
X66911Y-43845D01*
X66911Y-45184D01*
X66932Y-45234D01*
X66970Y-45272D01*
X67020Y-45293D01*
X67073Y-45293D01*
X68412Y-45293D01*
X68462Y-45272D01*
X68500Y-45234D01*
X68521Y-45184D01*
X68521Y-46679D01*
X68294Y-46724D01*
X58624Y-46724D01*
X58624Y-45527D01*
X58588Y-45345D01*
X58485Y-45191D01*
X58331Y-45088D01*
X58149Y-45052D01*
X58008Y-45052D01*
X57826Y-45088D01*
X57672Y-45191D01*
X57569Y-45345D01*
X57532Y-45527D01*
X57569Y-45709D01*
X57672Y-45863D01*
X57826Y-45966D01*
X58008Y-46002D01*
X58149Y-46002D01*
X58331Y-45966D01*
X58485Y-45863D01*
X58588Y-45709D01*
X58624Y-45527D01*
X58624Y-46724D01*
X45822Y-46724D01*
X45822Y-42998D01*
X45822Y-42940D01*
X45789Y-42907D01*
X45584Y-42907D01*
X45584Y-43072D01*
X45618Y-43105D01*
X45662Y-43105D01*
X45715Y-43105D01*
X45764Y-43085D01*
X45802Y-43047D01*
X45822Y-42998D01*
X45822Y-46724D01*
X45557Y-46724D01*
X45557Y-43072D01*
X45557Y-42907D01*
X45352Y-42907D01*
X45319Y-42940D01*
X45319Y-42998D01*
X45339Y-43047D01*
X45377Y-43085D01*
X45426Y-43105D01*
X45479Y-43105D01*
X45523Y-43105D01*
X45557Y-43072D01*
X45557Y-46724D01*
X44936Y-46724D01*
X44936Y-45669D01*
X44936Y-43701D01*
X44895Y-43498D01*
X44781Y-43327D01*
X44609Y-43212D01*
X44407Y-43172D01*
X43978Y-43172D01*
X43854Y-43196D01*
X43854Y-42998D01*
X43854Y-42940D01*
X43820Y-42907D01*
X43616Y-42907D01*
X43616Y-43072D01*
X43649Y-43105D01*
X43693Y-43105D01*
X43746Y-43105D01*
X43796Y-43085D01*
X43833Y-43047D01*
X43854Y-42998D01*
X43854Y-43196D01*
X43776Y-43212D01*
X43604Y-43327D01*
X43588Y-43351D01*
X43588Y-43072D01*
X43588Y-42907D01*
X43383Y-42907D01*
X43350Y-42940D01*
X43350Y-42998D01*
X43370Y-43047D01*
X43408Y-43085D01*
X43457Y-43105D01*
X43510Y-43105D01*
X43555Y-43105D01*
X43588Y-43072D01*
X43588Y-43351D01*
X43489Y-43498D01*
X43449Y-43701D01*
X43489Y-43903D01*
X43604Y-44075D01*
X43776Y-44189D01*
X43978Y-44229D01*
X44407Y-44229D01*
X44609Y-44189D01*
X44781Y-44075D01*
X44895Y-43903D01*
X44936Y-43701D01*
X44936Y-45669D01*
X44895Y-45466D01*
X44781Y-45295D01*
X44609Y-45180D01*
X44407Y-45140D01*
X44378Y-45140D01*
X44378Y-45125D01*
X44364Y-45054D01*
X44324Y-44994D01*
X43009Y-43680D01*
X43009Y-36385D01*
X43087Y-36308D01*
X43134Y-36194D01*
X43134Y-36070D01*
X43087Y-35956D01*
X43000Y-35869D01*
X42886Y-35821D01*
X42762Y-35821D01*
X42648Y-35868D01*
X42561Y-35956D01*
X42513Y-36070D01*
X42513Y-36193D01*
X42561Y-36307D01*
X42638Y-36385D01*
X42638Y-43756D01*
X42653Y-43827D01*
X42693Y-43887D01*
X43950Y-45145D01*
X43776Y-45180D01*
X43604Y-45295D01*
X43489Y-45466D01*
X43449Y-45669D01*
X43489Y-45871D01*
X43604Y-46043D01*
X43776Y-46157D01*
X43978Y-46197D01*
X44407Y-46197D01*
X44609Y-46157D01*
X44781Y-46043D01*
X44895Y-45871D01*
X44936Y-45669D01*
X44936Y-46724D01*
X43417Y-46724D01*
X42927Y-46626D01*
X42521Y-46355D01*
X42251Y-45950D01*
X42153Y-45460D01*
X42153Y-31311D01*
X42251Y-30821D01*
X42521Y-30415D01*
X42927Y-30144D01*
X43417Y-30047D01*
X68294Y-30047D01*
X68785Y-30144D01*
X69190Y-30415D01*
X69461Y-30821D01*
X69559Y-31311D01*
X69559Y-45460D01*
X69559Y-45460D01*
G37*
G54D25*
X69559Y-45460D02*
X69461Y-45950D01*
X69190Y-46355D01*
X68785Y-46626D01*
X68521Y-46679D01*
X68521Y-45184D01*
X68521Y-45130D01*
X68521Y-43791D01*
X68521Y-32979D01*
X68521Y-32926D01*
X68521Y-31587D01*
X68500Y-31537D01*
X68462Y-31499D01*
X68412Y-31478D01*
X68359Y-31478D01*
X67020Y-31478D01*
X66970Y-31499D01*
X66932Y-31537D01*
X66911Y-31587D01*
X66911Y-31640D01*
X66911Y-32979D01*
X66932Y-33029D01*
X66970Y-33067D01*
X67020Y-33088D01*
X67073Y-33088D01*
X68412Y-33088D01*
X68462Y-33067D01*
X68500Y-33029D01*
X68521Y-32979D01*
X68521Y-43791D01*
X68500Y-43741D01*
X68462Y-43703D01*
X68412Y-43683D01*
X68359Y-43683D01*
X68065Y-43683D01*
X68065Y-39082D01*
X68029Y-38900D01*
X67926Y-38746D01*
X67772Y-38643D01*
X67694Y-38627D01*
X67705Y-38572D01*
X67705Y-38535D01*
X67772Y-38521D01*
X67926Y-38418D01*
X68029Y-38264D01*
X68065Y-38082D01*
X68045Y-37980D01*
X68045Y-37170D01*
X68045Y-36994D01*
X68022Y-36914D01*
X67924Y-36757D01*
X67773Y-36650D01*
X67593Y-36608D01*
X67533Y-36608D01*
X67533Y-37068D01*
X68019Y-37068D01*
X68045Y-36994D01*
X68045Y-37170D01*
X68019Y-37096D01*
X67533Y-37096D01*
X67533Y-37556D01*
X67593Y-37556D01*
X67773Y-37515D01*
X67924Y-37408D01*
X68022Y-37251D01*
X68045Y-37170D01*
X68045Y-37980D01*
X68029Y-37900D01*
X67926Y-37746D01*
X67772Y-37643D01*
X67590Y-37607D01*
X67505Y-37607D01*
X67505Y-37556D01*
X67505Y-37096D01*
X67505Y-37068D01*
X67505Y-36608D01*
X67445Y-36608D01*
X67265Y-36650D01*
X67114Y-36757D01*
X67016Y-36914D01*
X66994Y-36994D01*
X67019Y-37068D01*
X67505Y-37068D01*
X67505Y-37096D01*
X67019Y-37096D01*
X66994Y-37170D01*
X67016Y-37251D01*
X67114Y-37408D01*
X67265Y-37515D01*
X67445Y-37556D01*
X67505Y-37556D01*
X67505Y-37607D01*
X67449Y-37607D01*
X67267Y-37643D01*
X67113Y-37746D01*
X67009Y-37900D01*
X66973Y-38082D01*
X67009Y-38264D01*
X67113Y-38418D01*
X67145Y-38440D01*
X67143Y-38441D01*
X66139Y-39445D01*
X66099Y-39505D01*
X66085Y-39576D01*
X66085Y-42027D01*
X64614Y-43498D01*
X64584Y-43345D01*
X64481Y-43191D01*
X64458Y-43176D01*
X64469Y-43168D01*
X65374Y-42264D01*
X65414Y-42204D01*
X65428Y-42133D01*
X65428Y-37739D01*
X65430Y-37743D01*
X65468Y-37781D01*
X65517Y-37802D01*
X65571Y-37802D01*
X66371Y-37802D01*
X66421Y-37781D01*
X66459Y-37743D01*
X66480Y-37693D01*
X66480Y-37639D01*
X66480Y-36959D01*
X66459Y-36910D01*
X66421Y-36871D01*
X66371Y-36851D01*
X66317Y-36851D01*
X65517Y-36851D01*
X65468Y-36871D01*
X65430Y-36910D01*
X65428Y-36913D01*
X65428Y-36475D01*
X65435Y-36508D01*
X65538Y-36662D01*
X65692Y-36766D01*
X65874Y-36802D01*
X66015Y-36802D01*
X66197Y-36766D01*
X66351Y-36662D01*
X66454Y-36508D01*
X66490Y-36326D01*
X66454Y-36144D01*
X66351Y-35990D01*
X66197Y-35887D01*
X66015Y-35851D01*
X65874Y-35851D01*
X65692Y-35887D01*
X65538Y-35990D01*
X65435Y-36144D01*
X65428Y-36177D01*
X65428Y-35475D01*
X65435Y-35508D01*
X65538Y-35662D01*
X65692Y-35766D01*
X65874Y-35802D01*
X66015Y-35802D01*
X66197Y-35766D01*
X66351Y-35662D01*
X66454Y-35508D01*
X66490Y-35326D01*
X66470Y-35224D01*
X66470Y-34414D01*
X66470Y-34239D01*
X66447Y-34158D01*
X66349Y-34001D01*
X66198Y-33894D01*
X66018Y-33852D01*
X65958Y-33852D01*
X65958Y-34312D01*
X66445Y-34312D01*
X66470Y-34239D01*
X66470Y-34414D01*
X66445Y-34340D01*
X65958Y-34340D01*
X65958Y-34800D01*
X66018Y-34800D01*
X66198Y-34759D01*
X66349Y-34652D01*
X66447Y-34495D01*
X66470Y-34414D01*
X66470Y-35224D01*
X66454Y-35144D01*
X66351Y-34990D01*
X66197Y-34887D01*
X66015Y-34851D01*
X65874Y-34851D01*
X65692Y-34887D01*
X65538Y-34990D01*
X65435Y-35144D01*
X65428Y-35177D01*
X65428Y-34448D01*
X65441Y-34495D01*
X65540Y-34652D01*
X65690Y-34759D01*
X65871Y-34800D01*
X65931Y-34800D01*
X65931Y-34340D01*
X65923Y-34340D01*
X65923Y-34312D01*
X65931Y-34312D01*
X65931Y-33852D01*
X65871Y-33852D01*
X65690Y-33894D01*
X65540Y-34001D01*
X65441Y-34158D01*
X65428Y-34205D01*
X65428Y-32711D01*
X65414Y-32640D01*
X65374Y-32580D01*
X65374Y-32580D01*
X64650Y-31857D01*
X64590Y-31816D01*
X64519Y-31802D01*
X64505Y-31802D01*
X64505Y-31773D01*
X64464Y-31571D01*
X64350Y-31399D01*
X64178Y-31285D01*
X63976Y-31244D01*
X63773Y-31285D01*
X63602Y-31399D01*
X63487Y-31571D01*
X63447Y-31773D01*
X63447Y-32202D01*
X63487Y-32404D01*
X63602Y-32576D01*
X63773Y-32691D01*
X63976Y-32731D01*
X64178Y-32691D01*
X64350Y-32576D01*
X64464Y-32404D01*
X64499Y-32230D01*
X65057Y-32788D01*
X65057Y-34231D01*
X62682Y-31857D01*
X62622Y-31816D01*
X62551Y-31802D01*
X62537Y-31802D01*
X62537Y-31773D01*
X62496Y-31571D01*
X62382Y-31399D01*
X62210Y-31285D01*
X62008Y-31244D01*
X61805Y-31285D01*
X61634Y-31399D01*
X61519Y-31571D01*
X61479Y-31773D01*
X61479Y-32202D01*
X61519Y-32404D01*
X61634Y-32576D01*
X61805Y-32691D01*
X62008Y-32731D01*
X62210Y-32691D01*
X62382Y-32576D01*
X62496Y-32404D01*
X62531Y-32230D01*
X64857Y-34556D01*
X64857Y-36000D01*
X60713Y-31857D01*
X60653Y-31816D01*
X60582Y-31802D01*
X60568Y-31802D01*
X60568Y-31773D01*
X60527Y-31571D01*
X60413Y-31399D01*
X60241Y-31285D01*
X60039Y-31244D01*
X59836Y-31285D01*
X59665Y-31399D01*
X59550Y-31571D01*
X59510Y-31773D01*
X59510Y-32202D01*
X59550Y-32404D01*
X59665Y-32576D01*
X59836Y-32691D01*
X60039Y-32731D01*
X60241Y-32691D01*
X60413Y-32576D01*
X60527Y-32404D01*
X60562Y-32230D01*
X64657Y-36325D01*
X64657Y-37768D01*
X58745Y-31857D01*
X58685Y-31816D01*
X58614Y-31802D01*
X58600Y-31802D01*
X58600Y-31773D01*
X58559Y-31571D01*
X58445Y-31399D01*
X58273Y-31285D01*
X58071Y-31244D01*
X57868Y-31285D01*
X57697Y-31399D01*
X57582Y-31571D01*
X57542Y-31773D01*
X57542Y-32202D01*
X57562Y-32302D01*
X56545Y-31286D01*
X56485Y-31246D01*
X56414Y-31231D01*
X56228Y-31231D01*
X56316Y-31099D01*
X56353Y-30917D01*
X56316Y-30735D01*
X56213Y-30581D01*
X56059Y-30478D01*
X55877Y-30441D01*
X55736Y-30441D01*
X55554Y-30478D01*
X55400Y-30581D01*
X55297Y-30735D01*
X55261Y-30917D01*
X55297Y-31099D01*
X55385Y-31231D01*
X52275Y-31231D01*
X51339Y-30296D01*
X51279Y-30255D01*
X51208Y-30241D01*
X48119Y-30241D01*
X48048Y-30255D01*
X48024Y-30271D01*
X47988Y-30296D01*
X47303Y-30981D01*
X47241Y-30919D01*
X47181Y-30879D01*
X47110Y-30865D01*
X46811Y-30865D01*
X46740Y-30879D01*
X46679Y-30919D01*
X46639Y-30979D01*
X46625Y-31050D01*
X46625Y-31082D01*
X46616Y-31085D01*
X46578Y-31124D01*
X46557Y-31173D01*
X46557Y-31227D01*
X46557Y-31699D01*
X46578Y-31749D01*
X46616Y-31787D01*
X46666Y-31808D01*
X46720Y-31808D01*
X46956Y-31808D01*
X47005Y-31787D01*
X47043Y-31749D01*
X47057Y-31717D01*
X47070Y-31749D01*
X47108Y-31787D01*
X47158Y-31808D01*
X47212Y-31808D01*
X47448Y-31808D01*
X47497Y-31787D01*
X47535Y-31749D01*
X47556Y-31699D01*
X47556Y-31645D01*
X47556Y-31252D01*
X48196Y-30612D01*
X49267Y-30612D01*
X49267Y-31231D01*
X49242Y-31236D01*
X49181Y-31276D01*
X48426Y-32031D01*
X46711Y-32031D01*
X46640Y-32045D01*
X46580Y-32086D01*
X46552Y-32114D01*
X46552Y-31699D01*
X46552Y-31645D01*
X46552Y-31173D01*
X46531Y-31124D01*
X46493Y-31085D01*
X46444Y-31065D01*
X46390Y-31065D01*
X46154Y-31065D01*
X46104Y-31085D01*
X46066Y-31124D01*
X46053Y-31155D01*
X46039Y-31124D01*
X46001Y-31085D01*
X45952Y-31065D01*
X45898Y-31065D01*
X45662Y-31065D01*
X45612Y-31085D01*
X45574Y-31124D01*
X45553Y-31173D01*
X45553Y-31227D01*
X45553Y-31444D01*
X45146Y-31444D01*
X45067Y-31365D01*
X45007Y-31324D01*
X44936Y-31310D01*
X44899Y-31310D01*
X44895Y-31293D01*
X44781Y-31122D01*
X44609Y-31007D01*
X44407Y-30967D01*
X43978Y-30967D01*
X43776Y-31007D01*
X43604Y-31122D01*
X43489Y-31293D01*
X43449Y-31496D01*
X43489Y-31698D01*
X43604Y-31870D01*
X43776Y-31984D01*
X43978Y-32025D01*
X44407Y-32025D01*
X44609Y-31984D01*
X44781Y-31870D01*
X44888Y-31710D01*
X44938Y-31760D01*
X44938Y-31760D01*
X44999Y-31801D01*
X45070Y-31815D01*
X45621Y-31815D01*
X45621Y-31822D01*
X45635Y-31893D01*
X45676Y-31953D01*
X45736Y-31994D01*
X45807Y-32008D01*
X46299Y-32008D01*
X46370Y-31994D01*
X46430Y-31953D01*
X46470Y-31893D01*
X46484Y-31822D01*
X46484Y-31791D01*
X46493Y-31787D01*
X46531Y-31749D01*
X46552Y-31699D01*
X46552Y-32114D01*
X44911Y-33755D01*
X44911Y-33560D01*
X44911Y-33368D01*
X44885Y-33275D01*
X44775Y-33101D01*
X44607Y-32982D01*
X44406Y-32936D01*
X44206Y-32936D01*
X44206Y-33450D01*
X44886Y-33450D01*
X44911Y-33368D01*
X44911Y-33560D01*
X44886Y-33478D01*
X44206Y-33478D01*
X44206Y-33991D01*
X44406Y-33991D01*
X44607Y-33946D01*
X44775Y-33827D01*
X44885Y-33653D01*
X44911Y-33560D01*
X44911Y-33755D01*
X44288Y-34378D01*
X44248Y-34438D01*
X44234Y-34509D01*
X44234Y-36046D01*
X44179Y-36023D01*
X44179Y-33991D01*
X44179Y-33478D01*
X44179Y-33450D01*
X44179Y-32936D01*
X43979Y-32936D01*
X43778Y-32982D01*
X43610Y-33101D01*
X43500Y-33275D01*
X43474Y-33368D01*
X43499Y-33450D01*
X44179Y-33450D01*
X44179Y-33478D01*
X43499Y-33478D01*
X43474Y-33560D01*
X43500Y-33653D01*
X43610Y-33827D01*
X43778Y-33946D01*
X43979Y-33991D01*
X44179Y-33991D01*
X44179Y-36023D01*
X44142Y-36008D01*
X44019Y-36008D01*
X43905Y-36055D01*
X43817Y-36143D01*
X43770Y-36257D01*
X43770Y-36380D01*
X43817Y-36494D01*
X43855Y-36532D01*
X43840Y-36539D01*
X43802Y-36577D01*
X43781Y-36627D01*
X43781Y-36680D01*
X43781Y-37310D01*
X43802Y-37360D01*
X43840Y-37398D01*
X43890Y-37419D01*
X43944Y-37419D01*
X44062Y-37419D01*
X44089Y-37408D01*
X44116Y-37419D01*
X44170Y-37419D01*
X44288Y-37419D01*
X44330Y-37401D01*
X44372Y-37419D01*
X44426Y-37419D01*
X44544Y-37419D01*
X44586Y-37401D01*
X44628Y-37419D01*
X44682Y-37419D01*
X44800Y-37419D01*
X44842Y-37401D01*
X44884Y-37419D01*
X44938Y-37419D01*
X45040Y-37419D01*
X45040Y-37434D01*
X45055Y-37505D01*
X45095Y-37565D01*
X45230Y-37700D01*
X45149Y-37700D01*
X45035Y-37747D01*
X44947Y-37834D01*
X44900Y-37948D01*
X44900Y-38072D01*
X44947Y-38186D01*
X45034Y-38273D01*
X45080Y-38292D01*
X45746Y-38958D01*
X45652Y-38958D01*
X45610Y-38975D01*
X45568Y-38958D01*
X45514Y-38958D01*
X45396Y-38958D01*
X45354Y-38975D01*
X45312Y-38958D01*
X45258Y-38958D01*
X45140Y-38958D01*
X45098Y-38975D01*
X45056Y-38958D01*
X45002Y-38958D01*
X44884Y-38958D01*
X44842Y-38975D01*
X44800Y-38958D01*
X44746Y-38958D01*
X44628Y-38958D01*
X44586Y-38975D01*
X44544Y-38958D01*
X44490Y-38958D01*
X44372Y-38958D01*
X44330Y-38975D01*
X44288Y-38958D01*
X44234Y-38958D01*
X44116Y-38958D01*
X44066Y-38979D01*
X44049Y-38996D01*
X44027Y-38987D01*
X43984Y-38987D01*
X43866Y-38987D01*
X43827Y-39003D01*
X43797Y-39033D01*
X43781Y-39072D01*
X43781Y-39115D01*
X43781Y-39745D01*
X43797Y-39784D01*
X43827Y-39814D01*
X43866Y-39830D01*
X43908Y-39830D01*
X44017Y-39830D01*
X44017Y-40487D01*
X43770Y-40735D01*
X43711Y-40710D01*
X43540Y-40710D01*
X43381Y-40776D01*
X43260Y-40897D01*
X43194Y-41055D01*
X43194Y-41227D01*
X43260Y-41385D01*
X43381Y-41506D01*
X43416Y-41521D01*
X43416Y-42342D01*
X43407Y-42346D01*
X43369Y-42384D01*
X43348Y-42434D01*
X43348Y-42487D01*
X43348Y-42644D01*
X43369Y-42694D01*
X43392Y-42717D01*
X43370Y-42739D01*
X43350Y-42788D01*
X43350Y-42846D01*
X43383Y-42879D01*
X43588Y-42879D01*
X43588Y-42871D01*
X43616Y-42871D01*
X43616Y-42879D01*
X43820Y-42879D01*
X43854Y-42846D01*
X43854Y-42788D01*
X43833Y-42739D01*
X43812Y-42717D01*
X43835Y-42694D01*
X43855Y-42644D01*
X43855Y-42591D01*
X43855Y-42434D01*
X43835Y-42384D01*
X43797Y-42346D01*
X43787Y-42342D01*
X43787Y-41540D01*
X43869Y-41507D01*
X43990Y-41386D01*
X44056Y-41227D01*
X44056Y-41056D01*
X44032Y-40997D01*
X44333Y-40695D01*
X44333Y-40695D01*
X44357Y-40659D01*
X44374Y-40635D01*
X44374Y-40635D01*
X44388Y-40564D01*
X44388Y-40244D01*
X45140Y-40997D01*
X45116Y-41055D01*
X45116Y-41227D01*
X45182Y-41385D01*
X45303Y-41506D01*
X45385Y-41540D01*
X45385Y-42342D01*
X45376Y-42346D01*
X45338Y-42384D01*
X45317Y-42434D01*
X45317Y-42487D01*
X45317Y-42644D01*
X45338Y-42694D01*
X45360Y-42717D01*
X45339Y-42739D01*
X45319Y-42788D01*
X45319Y-42846D01*
X45352Y-42879D01*
X45557Y-42879D01*
X45557Y-42871D01*
X45584Y-42871D01*
X45584Y-42879D01*
X45789Y-42879D01*
X45822Y-42846D01*
X45822Y-42788D01*
X45802Y-42739D01*
X45780Y-42717D01*
X45803Y-42694D01*
X45824Y-42644D01*
X45824Y-42591D01*
X45824Y-42434D01*
X45803Y-42384D01*
X45765Y-42346D01*
X45756Y-42342D01*
X45756Y-41521D01*
X45791Y-41507D01*
X45912Y-41386D01*
X45978Y-41227D01*
X45978Y-41056D01*
X45913Y-40897D01*
X45792Y-40776D01*
X45633Y-40710D01*
X45462Y-40710D01*
X45403Y-40735D01*
X44644Y-39975D01*
X44644Y-39859D01*
X44682Y-39859D01*
X44800Y-39859D01*
X44842Y-39841D01*
X44884Y-39859D01*
X44938Y-39859D01*
X45056Y-39859D01*
X45098Y-39841D01*
X45140Y-39859D01*
X45194Y-39859D01*
X45312Y-39859D01*
X45354Y-39842D01*
X45396Y-39859D01*
X45450Y-39859D01*
X45568Y-39859D01*
X45610Y-39841D01*
X45652Y-39859D01*
X45706Y-39859D01*
X45824Y-39859D01*
X45866Y-39841D01*
X45908Y-39859D01*
X45962Y-39859D01*
X46080Y-39859D01*
X46122Y-39841D01*
X46164Y-39859D01*
X46218Y-39859D01*
X46336Y-39859D01*
X46385Y-39838D01*
X46424Y-39800D01*
X46444Y-39750D01*
X46444Y-39696D01*
X46444Y-39099D01*
X46503Y-39075D01*
X46591Y-38988D01*
X46623Y-38909D01*
X49252Y-41538D01*
X49312Y-41578D01*
X49383Y-41592D01*
X49388Y-41592D01*
X49293Y-41735D01*
X49257Y-41917D01*
X49293Y-42099D01*
X49396Y-42253D01*
X49550Y-42356D01*
X49732Y-42392D01*
X49873Y-42392D01*
X50055Y-42356D01*
X50209Y-42253D01*
X50312Y-42099D01*
X50349Y-41917D01*
X50312Y-41735D01*
X50217Y-41592D01*
X55392Y-41592D01*
X55297Y-41735D01*
X55261Y-41917D01*
X55297Y-42099D01*
X55400Y-42253D01*
X55554Y-42356D01*
X55736Y-42392D01*
X55877Y-42392D01*
X56059Y-42356D01*
X56213Y-42253D01*
X56316Y-42099D01*
X56353Y-41917D01*
X56316Y-41735D01*
X56213Y-41581D01*
X56059Y-41478D01*
X55981Y-41462D01*
X55992Y-41407D01*
X55992Y-41369D01*
X56059Y-41356D01*
X56213Y-41253D01*
X56316Y-41099D01*
X56353Y-40917D01*
X56316Y-40735D01*
X56213Y-40581D01*
X56059Y-40478D01*
X55981Y-40462D01*
X55992Y-40407D01*
X55992Y-40369D01*
X56059Y-40356D01*
X56213Y-40253D01*
X56316Y-40099D01*
X56353Y-39917D01*
X56316Y-39735D01*
X56228Y-39602D01*
X56891Y-39602D01*
X57457Y-40168D01*
X57493Y-40192D01*
X57517Y-40208D01*
X57517Y-40208D01*
X57588Y-40222D01*
X57651Y-40222D01*
X57569Y-40345D01*
X57532Y-40527D01*
X57569Y-40709D01*
X57672Y-40863D01*
X57826Y-40966D01*
X58008Y-41002D01*
X58149Y-41002D01*
X58331Y-40966D01*
X58449Y-40887D01*
X58449Y-41167D01*
X58331Y-41088D01*
X58149Y-41052D01*
X58008Y-41052D01*
X57826Y-41088D01*
X57672Y-41191D01*
X57569Y-41345D01*
X57532Y-41527D01*
X57569Y-41709D01*
X57672Y-41863D01*
X57826Y-41966D01*
X58008Y-42002D01*
X58149Y-42002D01*
X58331Y-41966D01*
X58449Y-41887D01*
X58449Y-42167D01*
X58331Y-42088D01*
X58149Y-42052D01*
X58008Y-42052D01*
X57826Y-42088D01*
X57672Y-42191D01*
X57569Y-42345D01*
X57532Y-42527D01*
X57569Y-42709D01*
X57672Y-42863D01*
X57826Y-42966D01*
X58008Y-43002D01*
X58149Y-43002D01*
X58331Y-42966D01*
X58449Y-42887D01*
X58449Y-43167D01*
X58331Y-43088D01*
X58149Y-43052D01*
X58008Y-43052D01*
X57826Y-43088D01*
X57672Y-43191D01*
X57569Y-43345D01*
X57532Y-43527D01*
X57569Y-43709D01*
X57672Y-43863D01*
X57826Y-43966D01*
X57904Y-43982D01*
X57893Y-44037D01*
X57893Y-44074D01*
X57826Y-44088D01*
X57672Y-44191D01*
X57569Y-44345D01*
X57532Y-44527D01*
X57569Y-44709D01*
X57672Y-44863D01*
X57826Y-44966D01*
X58008Y-45002D01*
X58149Y-45002D01*
X58331Y-44966D01*
X58485Y-44863D01*
X58588Y-44709D01*
X58624Y-44527D01*
X58588Y-44345D01*
X58485Y-44191D01*
X58453Y-44169D01*
X58454Y-44168D01*
X58766Y-43856D01*
X58806Y-43796D01*
X58820Y-43725D01*
X58820Y-37985D01*
X58806Y-37914D01*
X58806Y-37914D01*
X58790Y-37890D01*
X58766Y-37854D01*
X56198Y-35286D01*
X56181Y-35275D01*
X56213Y-35253D01*
X56316Y-35099D01*
X56345Y-34957D01*
X62675Y-41287D01*
X62675Y-45083D01*
X62689Y-45154D01*
X62729Y-45214D01*
X63674Y-46158D01*
X63674Y-46158D01*
X63734Y-46199D01*
X63805Y-46213D01*
X64348Y-46213D01*
X64419Y-46199D01*
X64479Y-46158D01*
X67650Y-42987D01*
X67650Y-42987D01*
X67674Y-42951D01*
X67691Y-42927D01*
X67691Y-42927D01*
X67705Y-42856D01*
X67705Y-40558D01*
X67946Y-40558D01*
X67996Y-40537D01*
X68034Y-40499D01*
X68055Y-40449D01*
X68055Y-40395D01*
X68055Y-39715D01*
X68034Y-39665D01*
X67996Y-39627D01*
X67946Y-39607D01*
X67892Y-39607D01*
X67092Y-39607D01*
X67042Y-39627D01*
X67004Y-39665D01*
X66984Y-39715D01*
X66984Y-39769D01*
X66984Y-40449D01*
X67004Y-40499D01*
X67042Y-40537D01*
X67092Y-40558D01*
X67146Y-40558D01*
X67334Y-40558D01*
X67334Y-42779D01*
X64600Y-45513D01*
X64600Y-45513D01*
X64574Y-45513D01*
X64600Y-45439D01*
X64577Y-45358D01*
X64479Y-45202D01*
X64328Y-45095D01*
X64148Y-45053D01*
X64088Y-45053D01*
X64088Y-45513D01*
X64096Y-45513D01*
X64096Y-45541D01*
X64088Y-45541D01*
X64088Y-45549D01*
X64061Y-45549D01*
X64061Y-45541D01*
X64053Y-45541D01*
X64053Y-45513D01*
X64061Y-45513D01*
X64061Y-45053D01*
X64001Y-45053D01*
X63820Y-45095D01*
X63669Y-45202D01*
X63571Y-45358D01*
X63549Y-45439D01*
X63574Y-45513D01*
X63553Y-45513D01*
X63046Y-45006D01*
X63046Y-41210D01*
X63032Y-41139D01*
X63032Y-41139D01*
X63016Y-41115D01*
X62992Y-41079D01*
X56198Y-34286D01*
X56181Y-34274D01*
X56213Y-34253D01*
X56316Y-34099D01*
X56353Y-33917D01*
X56353Y-32917D01*
X56332Y-32815D01*
X56332Y-32005D01*
X56307Y-31931D01*
X55820Y-31931D01*
X55820Y-32391D01*
X55880Y-32391D01*
X56061Y-32349D01*
X56211Y-32242D01*
X56310Y-32085D01*
X56332Y-32005D01*
X56332Y-32815D01*
X56316Y-32735D01*
X56213Y-32581D01*
X56059Y-32478D01*
X55877Y-32441D01*
X55793Y-32441D01*
X55793Y-32391D01*
X55793Y-31931D01*
X55306Y-31931D01*
X55281Y-32005D01*
X55304Y-32085D01*
X55402Y-32242D01*
X55553Y-32349D01*
X55733Y-32391D01*
X55793Y-32391D01*
X55793Y-32441D01*
X55736Y-32441D01*
X55554Y-32478D01*
X55400Y-32581D01*
X55297Y-32735D01*
X55261Y-32917D01*
X55297Y-33099D01*
X55400Y-33253D01*
X55554Y-33356D01*
X55736Y-33392D01*
X55877Y-33392D01*
X56059Y-33356D01*
X56213Y-33253D01*
X56316Y-33099D01*
X56353Y-32917D01*
X56353Y-33917D01*
X56316Y-33735D01*
X56213Y-33581D01*
X56059Y-33478D01*
X55877Y-33441D01*
X55736Y-33441D01*
X55554Y-33478D01*
X55400Y-33581D01*
X55297Y-33735D01*
X55261Y-33917D01*
X55297Y-34099D01*
X55385Y-34231D01*
X54865Y-34231D01*
X54865Y-34227D01*
X54818Y-34112D01*
X54731Y-34025D01*
X54617Y-33978D01*
X54493Y-33978D01*
X54379Y-34025D01*
X54292Y-34112D01*
X54259Y-34192D01*
X51853Y-31786D01*
X51792Y-31746D01*
X51721Y-31731D01*
X50310Y-31731D01*
X50209Y-31581D01*
X50055Y-31478D01*
X49977Y-31462D01*
X49988Y-31407D01*
X49988Y-31392D01*
X50230Y-31392D01*
X50279Y-31372D01*
X50317Y-31334D01*
X50338Y-31284D01*
X50338Y-31230D01*
X50338Y-30612D01*
X51131Y-30612D01*
X52067Y-31548D01*
X52127Y-31588D01*
X52198Y-31602D01*
X55395Y-31602D01*
X55304Y-31748D01*
X55281Y-31829D01*
X55306Y-31903D01*
X55793Y-31903D01*
X55793Y-31895D01*
X55820Y-31895D01*
X55820Y-31903D01*
X56307Y-31903D01*
X56332Y-31829D01*
X56310Y-31748D01*
X56218Y-31602D01*
X56337Y-31602D01*
X63393Y-38658D01*
X63453Y-38698D01*
X63524Y-38712D01*
X63539Y-38712D01*
X63539Y-38894D01*
X63559Y-38944D01*
X63598Y-38982D01*
X63647Y-39002D01*
X63701Y-39002D01*
X64439Y-39002D01*
X64439Y-39173D01*
X64328Y-39095D01*
X64148Y-39053D01*
X64088Y-39053D01*
X64088Y-39513D01*
X64096Y-39513D01*
X64096Y-39541D01*
X64088Y-39541D01*
X64088Y-39549D01*
X64061Y-39549D01*
X64061Y-39541D01*
X64061Y-39513D01*
X64061Y-39053D01*
X64001Y-39053D01*
X63820Y-39095D01*
X63669Y-39202D01*
X63571Y-39358D01*
X63549Y-39439D01*
X63574Y-39513D01*
X64061Y-39513D01*
X64061Y-39541D01*
X63574Y-39541D01*
X63549Y-39615D01*
X63571Y-39696D01*
X63669Y-39852D01*
X63820Y-39960D01*
X63901Y-39978D01*
X63889Y-40037D01*
X63889Y-40074D01*
X63822Y-40088D01*
X63668Y-40191D01*
X63565Y-40345D01*
X63528Y-40527D01*
X63565Y-40709D01*
X63668Y-40863D01*
X63822Y-40966D01*
X63900Y-40982D01*
X63889Y-41037D01*
X63889Y-41074D01*
X63822Y-41088D01*
X63668Y-41191D01*
X63565Y-41345D01*
X63528Y-41527D01*
X63565Y-41709D01*
X63668Y-41863D01*
X63822Y-41966D01*
X63900Y-41982D01*
X63889Y-42037D01*
X63889Y-42074D01*
X63822Y-42088D01*
X63668Y-42191D01*
X63565Y-42345D01*
X63528Y-42527D01*
X63565Y-42709D01*
X63668Y-42863D01*
X63822Y-42966D01*
X63900Y-42982D01*
X63889Y-43037D01*
X63889Y-43074D01*
X63822Y-43088D01*
X63668Y-43191D01*
X63565Y-43345D01*
X63528Y-43527D01*
X63565Y-43709D01*
X63668Y-43863D01*
X63822Y-43966D01*
X63900Y-43982D01*
X63889Y-44037D01*
X63889Y-44074D01*
X63822Y-44088D01*
X63668Y-44191D01*
X63565Y-44345D01*
X63528Y-44527D01*
X63565Y-44709D01*
X63668Y-44863D01*
X63822Y-44966D01*
X64004Y-45002D01*
X64145Y-45002D01*
X64327Y-44966D01*
X64481Y-44863D01*
X64584Y-44709D01*
X64620Y-44527D01*
X64584Y-44345D01*
X64481Y-44191D01*
X64458Y-44175D01*
X64468Y-44168D01*
X66402Y-42235D01*
X66442Y-42175D01*
X66456Y-42104D01*
X66456Y-42104D01*
X66456Y-39653D01*
X66982Y-39127D01*
X67009Y-39264D01*
X67113Y-39418D01*
X67267Y-39521D01*
X67449Y-39558D01*
X67590Y-39558D01*
X67772Y-39521D01*
X67926Y-39418D01*
X68029Y-39264D01*
X68065Y-39082D01*
X68065Y-43683D01*
X67020Y-43683D01*
X66970Y-43703D01*
X66932Y-43741D01*
X66911Y-43791D01*
X66911Y-43845D01*
X66911Y-45184D01*
X66932Y-45234D01*
X66970Y-45272D01*
X67020Y-45293D01*
X67073Y-45293D01*
X68412Y-45293D01*
X68462Y-45272D01*
X68500Y-45234D01*
X68521Y-45184D01*
X68521Y-46679D01*
X68294Y-46724D01*
X58624Y-46724D01*
X58624Y-45527D01*
X58588Y-45345D01*
X58485Y-45191D01*
X58331Y-45088D01*
X58149Y-45052D01*
X58008Y-45052D01*
X57826Y-45088D01*
X57672Y-45191D01*
X57569Y-45345D01*
X57532Y-45527D01*
X57569Y-45709D01*
X57672Y-45863D01*
X57826Y-45966D01*
X58008Y-46002D01*
X58149Y-46002D01*
X58331Y-45966D01*
X58485Y-45863D01*
X58588Y-45709D01*
X58624Y-45527D01*
X58624Y-46724D01*
X45822Y-46724D01*
X45822Y-42998D01*
X45822Y-42940D01*
X45789Y-42907D01*
X45584Y-42907D01*
X45584Y-43072D01*
X45618Y-43105D01*
X45662Y-43105D01*
X45715Y-43105D01*
X45764Y-43085D01*
X45802Y-43047D01*
X45822Y-42998D01*
X45822Y-46724D01*
X45557Y-46724D01*
X45557Y-43072D01*
X45557Y-42907D01*
X45352Y-42907D01*
X45319Y-42940D01*
X45319Y-42998D01*
X45339Y-43047D01*
X45377Y-43085D01*
X45426Y-43105D01*
X45479Y-43105D01*
X45523Y-43105D01*
X45557Y-43072D01*
X45557Y-46724D01*
X44936Y-46724D01*
X44936Y-45669D01*
X44936Y-43701D01*
X44895Y-43498D01*
X44781Y-43327D01*
X44609Y-43212D01*
X44407Y-43172D01*
X43978Y-43172D01*
X43854Y-43196D01*
X43854Y-42998D01*
X43854Y-42940D01*
X43820Y-42907D01*
X43616Y-42907D01*
X43616Y-43072D01*
X43649Y-43105D01*
X43693Y-43105D01*
X43746Y-43105D01*
X43796Y-43085D01*
X43833Y-43047D01*
X43854Y-42998D01*
X43854Y-43196D01*
X43776Y-43212D01*
X43604Y-43327D01*
X43588Y-43351D01*
X43588Y-43072D01*
X43588Y-42907D01*
X43383Y-42907D01*
X43350Y-42940D01*
X43350Y-42998D01*
X43370Y-43047D01*
X43408Y-43085D01*
X43457Y-43105D01*
X43510Y-43105D01*
X43555Y-43105D01*
X43588Y-43072D01*
X43588Y-43351D01*
X43489Y-43498D01*
X43449Y-43701D01*
X43489Y-43903D01*
X43604Y-44075D01*
X43776Y-44189D01*
X43978Y-44229D01*
X44407Y-44229D01*
X44609Y-44189D01*
X44781Y-44075D01*
X44895Y-43903D01*
X44936Y-43701D01*
X44936Y-45669D01*
X44895Y-45466D01*
X44781Y-45295D01*
X44609Y-45180D01*
X44407Y-45140D01*
X44378Y-45140D01*
X44378Y-45125D01*
X44364Y-45054D01*
X44324Y-44994D01*
X43009Y-43680D01*
X43009Y-36385D01*
X43087Y-36308D01*
X43134Y-36194D01*
X43134Y-36070D01*
X43087Y-35956D01*
X43000Y-35869D01*
X42886Y-35821D01*
X42762Y-35821D01*
X42648Y-35868D01*
X42561Y-35956D01*
X42513Y-36070D01*
X42513Y-36193D01*
X42561Y-36307D01*
X42638Y-36385D01*
X42638Y-43756D01*
X42653Y-43827D01*
X42693Y-43887D01*
X43950Y-45145D01*
X43776Y-45180D01*
X43604Y-45295D01*
X43489Y-45466D01*
X43449Y-45669D01*
X43489Y-45871D01*
X43604Y-46043D01*
X43776Y-46157D01*
X43978Y-46197D01*
X44407Y-46197D01*
X44609Y-46157D01*
X44781Y-46043D01*
X44895Y-45871D01*
X44936Y-45669D01*
X44936Y-46724D01*
X43417Y-46724D01*
X42927Y-46626D01*
X42521Y-46355D01*
X42251Y-45950D01*
X42153Y-45460D01*
X42153Y-31311D01*
X42251Y-30821D01*
X42521Y-30415D01*
X42927Y-30144D01*
X43417Y-30047D01*
X68294Y-30047D01*
X68785Y-30144D01*
X69190Y-30415D01*
X69461Y-30821D01*
X69559Y-31311D01*
X69559Y-45460D01*
M02*
