%FSLAX34Y34*%
G04 Gerber Fmt 3.4, Leading zero omitted, Abs format*
G04 (created by PCBNEW (2014-03-19 BZR 4756)-product) date Thu 12 Jun 2014 23:18:30 BST*
%MOIN*%
G01*
G70*
G90*
G04 APERTURE LIST*
%ADD10C,0.005906*%
%ADD11C,0.009843*%
%ADD12R,0.025000X0.045000*%
%ADD13R,0.063000X0.141700*%
%ADD14R,0.045000X0.025000*%
%ADD15O,0.078700X0.118700*%
%ADD16O,0.118700X0.078700*%
%ADD17R,0.080000X0.068000*%
%ADD18O,0.080000X0.068000*%
%ADD19R,0.023600X0.015700*%
%ADD20R,0.015700X0.023600*%
%ADD21R,0.068000X0.068000*%
%ADD22O,0.068000X0.068000*%
%ADD23R,0.023600X0.047200*%
%ADD24C,0.059100*%
%ADD25R,0.133900X0.133900*%
%ADD26C,0.035000*%
%ADD27C,0.010000*%
%ADD28C,0.007087*%
G04 APERTURE END LIST*
G54D10*
G54D11*
X65180Y-46634D02*
X64955Y-46634D01*
X65068Y-46634D02*
X65068Y-46241D01*
X65030Y-46297D01*
X64993Y-46334D01*
X64955Y-46353D01*
X65424Y-46241D02*
X65462Y-46241D01*
X65499Y-46259D01*
X65518Y-46278D01*
X65537Y-46316D01*
X65555Y-46391D01*
X65555Y-46484D01*
X65537Y-46559D01*
X65518Y-46597D01*
X65499Y-46616D01*
X65462Y-46634D01*
X65424Y-46634D01*
X65387Y-46616D01*
X65368Y-46597D01*
X65349Y-46559D01*
X65330Y-46484D01*
X65330Y-46391D01*
X65349Y-46316D01*
X65368Y-46278D01*
X65387Y-46259D01*
X65424Y-46241D01*
X65668Y-46372D02*
X65818Y-46372D01*
X65724Y-46241D02*
X65724Y-46578D01*
X65743Y-46616D01*
X65780Y-46634D01*
X65818Y-46634D01*
X66005Y-46634D02*
X65968Y-46616D01*
X65949Y-46597D01*
X65930Y-46559D01*
X65930Y-46447D01*
X65949Y-46409D01*
X65968Y-46391D01*
X66005Y-46372D01*
X66062Y-46372D01*
X66099Y-46391D01*
X66118Y-46409D01*
X66137Y-46447D01*
X66137Y-46559D01*
X66118Y-46597D01*
X66099Y-46616D01*
X66062Y-46634D01*
X66005Y-46634D01*
X66268Y-46241D02*
X66530Y-46241D01*
X66362Y-46634D01*
X66680Y-46597D02*
X66699Y-46616D01*
X66680Y-46634D01*
X66661Y-46616D01*
X66680Y-46597D01*
X66680Y-46634D01*
X67036Y-46616D02*
X66999Y-46634D01*
X66924Y-46634D01*
X66886Y-46616D01*
X66868Y-46597D01*
X66849Y-46559D01*
X66849Y-46447D01*
X66868Y-46409D01*
X66886Y-46391D01*
X66924Y-46372D01*
X66999Y-46372D01*
X67036Y-46391D01*
X67261Y-46634D02*
X67224Y-46616D01*
X67205Y-46597D01*
X67186Y-46559D01*
X67186Y-46447D01*
X67205Y-46409D01*
X67224Y-46391D01*
X67261Y-46372D01*
X67318Y-46372D01*
X67355Y-46391D01*
X67374Y-46409D01*
X67393Y-46447D01*
X67393Y-46559D01*
X67374Y-46597D01*
X67355Y-46616D01*
X67318Y-46634D01*
X67261Y-46634D01*
X67561Y-46634D02*
X67561Y-46372D01*
X67561Y-46409D02*
X67580Y-46391D01*
X67618Y-46372D01*
X67674Y-46372D01*
X67711Y-46391D01*
X67730Y-46428D01*
X67730Y-46634D01*
X67730Y-46428D02*
X67749Y-46391D01*
X67786Y-46372D01*
X67843Y-46372D01*
X67880Y-46391D01*
X67899Y-46428D01*
X67899Y-46634D01*
G54D12*
X48528Y-34940D03*
X47928Y-34940D03*
G54D13*
X47736Y-31397D03*
X47736Y-33563D03*
G54D12*
X47937Y-40157D03*
X47337Y-40157D03*
G54D14*
X62204Y-35231D03*
X62204Y-35831D03*
X61023Y-35231D03*
X61023Y-35831D03*
X59842Y-35231D03*
X59842Y-35831D03*
G54D12*
X42711Y-35629D03*
X43311Y-35629D03*
X42711Y-39566D03*
X43311Y-39566D03*
X42711Y-38385D03*
X43311Y-38385D03*
X42711Y-37007D03*
X43311Y-37007D03*
G54D15*
X60039Y-31988D03*
X58071Y-31988D03*
G54D16*
X44192Y-31496D03*
X44192Y-33464D03*
G54D17*
X65944Y-37326D03*
G54D18*
X65944Y-36326D03*
X65944Y-35326D03*
X65944Y-34326D03*
G54D17*
X67519Y-40082D03*
G54D18*
X67519Y-39082D03*
X67519Y-38082D03*
X67519Y-37082D03*
G54D16*
X44192Y-43701D03*
X44192Y-45669D03*
G54D15*
X63976Y-31988D03*
X62008Y-31988D03*
G54D14*
X60236Y-37888D03*
X60236Y-38488D03*
X61515Y-37888D03*
X61515Y-38488D03*
G54D19*
X62204Y-36535D03*
X62204Y-36889D03*
X61023Y-36535D03*
X61023Y-36889D03*
X59842Y-36535D03*
X59842Y-36889D03*
G54D20*
X44015Y-35629D03*
X44369Y-35629D03*
G54D12*
X46648Y-34940D03*
X47248Y-34940D03*
G54D20*
X44015Y-39566D03*
X44369Y-39566D03*
X44015Y-38385D03*
X44369Y-38385D03*
X44015Y-37007D03*
X44369Y-37007D03*
G54D18*
X58078Y-45527D03*
X58078Y-44527D03*
X58078Y-43527D03*
X58078Y-42527D03*
X58078Y-41527D03*
X58078Y-40527D03*
X58078Y-39527D03*
X58078Y-38527D03*
G54D17*
X64074Y-38527D03*
G54D18*
X64074Y-39527D03*
X64074Y-40527D03*
X64074Y-41527D03*
X64074Y-42527D03*
X64074Y-43527D03*
X64074Y-44527D03*
X64074Y-45527D03*
G54D21*
X52255Y-36795D03*
G54D22*
X53255Y-36795D03*
X52255Y-37795D03*
X53255Y-37795D03*
X52255Y-38795D03*
X53255Y-38795D03*
G54D18*
X49803Y-41917D03*
X49803Y-40917D03*
X49803Y-39917D03*
X49803Y-38917D03*
X49803Y-37917D03*
X49803Y-36917D03*
X49803Y-35917D03*
X49803Y-34917D03*
X49803Y-33917D03*
X49803Y-32917D03*
X49803Y-31917D03*
G54D17*
X49803Y-30917D03*
G54D18*
X55807Y-30917D03*
X55807Y-31917D03*
X55807Y-32917D03*
X55807Y-33917D03*
X55807Y-34917D03*
X55807Y-35917D03*
X55807Y-36917D03*
X55807Y-37917D03*
X55807Y-38917D03*
X55807Y-39917D03*
X55807Y-40917D03*
X55807Y-41917D03*
G54D23*
X46791Y-38445D03*
X47283Y-38445D03*
X47795Y-38445D03*
X48287Y-38445D03*
X48287Y-36161D03*
X47795Y-36161D03*
X47283Y-36161D03*
X46771Y-36161D03*
G54D24*
X45547Y-41141D03*
X43625Y-41141D03*
G54D25*
X67716Y-32283D03*
X67716Y-44488D03*
G54D26*
X44764Y-35934D03*
X46328Y-38812D03*
X45210Y-38010D03*
X44080Y-36319D03*
X54555Y-34288D03*
X42824Y-36132D03*
X54646Y-35530D03*
X46950Y-34242D03*
X51522Y-40222D03*
G54D27*
X47172Y-31496D02*
X47271Y-31397D01*
X44192Y-31496D02*
X47172Y-31496D01*
X47503Y-31397D02*
X47530Y-31397D01*
X47503Y-31397D02*
X47271Y-31397D01*
X47736Y-31397D02*
X47530Y-31397D01*
X49327Y-34417D02*
X48803Y-34940D01*
X50075Y-34417D02*
X49327Y-34417D01*
X50355Y-34137D02*
X50075Y-34417D01*
X50355Y-33713D02*
X50355Y-34137D01*
X50059Y-33417D02*
X50355Y-33713D01*
X49550Y-33417D02*
X50059Y-33417D01*
X47530Y-31397D02*
X49550Y-33417D01*
X48528Y-34940D02*
X48803Y-34940D01*
X47736Y-33563D02*
X48201Y-33563D01*
X49803Y-33917D02*
X48531Y-33917D01*
X48201Y-33587D02*
X48201Y-33563D01*
X48531Y-33917D02*
X48201Y-33587D01*
X61023Y-35231D02*
X59842Y-35231D01*
X47337Y-40157D02*
X47147Y-40157D01*
X64074Y-45527D02*
X64074Y-46017D01*
X47147Y-38966D02*
X47283Y-38831D01*
X47147Y-40157D02*
X47147Y-38966D01*
X47283Y-38445D02*
X47283Y-38831D01*
X55787Y-32427D02*
X55807Y-32407D01*
X49803Y-32427D02*
X55787Y-32427D01*
X55807Y-31917D02*
X55807Y-32407D01*
X49803Y-32917D02*
X49803Y-32427D01*
X48407Y-41417D02*
X47147Y-40157D01*
X50227Y-41417D02*
X48407Y-41417D01*
X54827Y-46017D02*
X50227Y-41417D01*
X64074Y-46017D02*
X54827Y-46017D01*
X62834Y-34326D02*
X62204Y-34956D01*
X65944Y-34326D02*
X62834Y-34326D01*
X61023Y-35231D02*
X61398Y-35231D01*
X62204Y-35231D02*
X62204Y-34956D01*
X61515Y-37888D02*
X61515Y-37613D01*
X61615Y-37514D02*
X61515Y-37613D01*
X61615Y-35231D02*
X61615Y-37514D01*
X62204Y-35231D02*
X61615Y-35231D01*
X61615Y-35231D02*
X61398Y-35231D01*
X47928Y-34520D02*
X47928Y-34940D01*
X48531Y-33917D02*
X47928Y-34520D01*
X47248Y-34940D02*
X47523Y-34940D01*
X47928Y-34940D02*
X47523Y-34940D01*
X47172Y-33464D02*
X47271Y-33563D01*
X44192Y-33464D02*
X47172Y-33464D01*
X47736Y-33563D02*
X47271Y-33563D01*
X67029Y-37572D02*
X67519Y-37572D01*
X65074Y-39527D02*
X67029Y-37572D01*
X64074Y-39527D02*
X65074Y-39527D01*
X67519Y-37082D02*
X67519Y-37572D01*
X47795Y-38445D02*
X47795Y-38059D01*
X44369Y-39566D02*
X44598Y-39566D01*
X44598Y-39566D02*
X44598Y-38385D01*
X44369Y-38385D02*
X44598Y-38385D01*
X53255Y-38795D02*
X53255Y-38305D01*
X44369Y-35629D02*
X44369Y-35898D01*
X44369Y-37007D02*
X44369Y-36739D01*
X47795Y-38445D02*
X47795Y-38831D01*
X47937Y-40157D02*
X47937Y-39782D01*
X47937Y-38831D02*
X47937Y-39782D01*
X47937Y-38831D02*
X47795Y-38831D01*
X60236Y-37888D02*
X60611Y-37888D01*
X53255Y-37795D02*
X53255Y-37571D01*
X53255Y-37571D02*
X53255Y-37355D01*
X48474Y-38831D02*
X47937Y-38831D01*
X48567Y-38738D02*
X48474Y-38831D01*
X48567Y-38054D02*
X48567Y-38738D01*
X47520Y-37007D02*
X48567Y-38054D01*
X44369Y-37007D02*
X47520Y-37007D01*
X47937Y-40157D02*
X48212Y-40157D01*
X53255Y-38305D02*
X53255Y-37795D01*
X48465Y-40410D02*
X48212Y-40157D01*
X50075Y-40410D02*
X48465Y-40410D01*
X50389Y-40096D02*
X50075Y-40410D01*
X50389Y-39947D02*
X50389Y-40096D01*
X52032Y-38305D02*
X50389Y-39947D01*
X53255Y-38305D02*
X52032Y-38305D01*
X44405Y-36703D02*
X44405Y-35934D01*
X44369Y-36739D02*
X44405Y-36703D01*
X44405Y-35934D02*
X44369Y-35898D01*
X44405Y-35934D02*
X44405Y-35934D01*
X53255Y-37355D02*
X53255Y-36795D01*
X55544Y-34407D02*
X55807Y-34407D01*
X54994Y-34956D02*
X55544Y-34407D01*
X54994Y-35675D02*
X54994Y-34956D01*
X53874Y-36795D02*
X54994Y-35675D01*
X53255Y-36795D02*
X53874Y-36795D01*
X55807Y-33917D02*
X55807Y-34111D01*
X55807Y-34111D02*
X55807Y-34407D01*
X56742Y-35046D02*
X59438Y-35046D01*
X55807Y-34111D02*
X56742Y-35046D01*
X59438Y-35407D02*
X59438Y-35046D01*
X59558Y-35527D02*
X59438Y-35407D01*
X61285Y-35527D02*
X59558Y-35527D01*
X61399Y-35641D02*
X61285Y-35527D01*
X61399Y-37100D02*
X61399Y-35641D01*
X60611Y-37888D02*
X61399Y-37100D01*
X44405Y-35934D02*
X44764Y-35934D01*
X45373Y-38385D02*
X44598Y-38385D01*
X45700Y-38059D02*
X45373Y-38385D01*
X47795Y-38059D02*
X45700Y-38059D01*
X68079Y-37522D02*
X67519Y-38082D01*
X68079Y-35683D02*
X68079Y-37522D01*
X66230Y-33833D02*
X68079Y-35683D01*
X60651Y-33833D02*
X66230Y-33833D01*
X59438Y-35046D02*
X60651Y-33833D01*
X62204Y-35831D02*
X62204Y-36535D01*
X61023Y-35831D02*
X61023Y-36535D01*
X59842Y-35831D02*
X59842Y-36535D01*
X42436Y-39872D02*
X42436Y-35629D01*
X43084Y-40520D02*
X42436Y-39872D01*
X43960Y-40520D02*
X43084Y-40520D01*
X45357Y-41917D02*
X43960Y-40520D01*
X49803Y-41917D02*
X45357Y-41917D01*
X42711Y-35629D02*
X42436Y-35629D01*
X43311Y-35629D02*
X44015Y-35629D01*
X46791Y-38445D02*
X46791Y-38831D01*
X42711Y-39566D02*
X42986Y-39566D01*
X46347Y-38831D02*
X46328Y-38812D01*
X46791Y-38831D02*
X46347Y-38831D01*
X42986Y-39807D02*
X42986Y-39566D01*
X43121Y-39942D02*
X42986Y-39807D01*
X45198Y-39942D02*
X43121Y-39942D01*
X46328Y-38812D02*
X45198Y-39942D01*
X43311Y-39566D02*
X44015Y-39566D01*
X42711Y-38385D02*
X42986Y-38385D01*
X42986Y-38145D02*
X42986Y-38385D01*
X43121Y-38010D02*
X42986Y-38145D01*
X45210Y-38010D02*
X43121Y-38010D01*
X48287Y-38445D02*
X48287Y-38059D01*
X45370Y-37851D02*
X45210Y-38010D01*
X48079Y-37851D02*
X45370Y-37851D01*
X48287Y-38059D02*
X48079Y-37851D01*
X43311Y-38385D02*
X44015Y-38385D01*
X42986Y-36767D02*
X42986Y-37007D01*
X43434Y-36319D02*
X42986Y-36767D01*
X44080Y-36319D02*
X43434Y-36319D01*
X42711Y-37007D02*
X42986Y-37007D01*
X43311Y-37007D02*
X44015Y-37007D01*
X58078Y-44527D02*
X58078Y-44037D01*
X65944Y-37326D02*
X65944Y-37816D01*
X58352Y-44037D02*
X58078Y-44037D01*
X63372Y-39017D02*
X58352Y-44037D01*
X64744Y-39017D02*
X63372Y-39017D01*
X65944Y-37816D02*
X64744Y-39017D01*
X58078Y-45527D02*
X58078Y-45037D01*
X57833Y-45037D02*
X58078Y-45037D01*
X56321Y-43525D02*
X57833Y-45037D01*
X53713Y-40917D02*
X56321Y-43525D01*
X49803Y-40917D02*
X53713Y-40917D01*
X65260Y-36326D02*
X65944Y-36326D01*
X59560Y-42027D02*
X65260Y-36326D01*
X57819Y-42027D02*
X59560Y-42027D01*
X56321Y-43525D02*
X57819Y-42027D01*
X59822Y-38527D02*
X59861Y-38488D01*
X58078Y-38527D02*
X59822Y-38527D01*
X60236Y-38488D02*
X59861Y-38488D01*
X57815Y-39017D02*
X58078Y-39017D01*
X57524Y-39308D02*
X57815Y-39017D01*
X57524Y-39754D02*
X57524Y-39308D01*
X57797Y-40027D02*
X57524Y-39754D01*
X61244Y-40027D02*
X57797Y-40027D01*
X65454Y-35816D02*
X61244Y-40027D01*
X65944Y-35816D02*
X65454Y-35816D01*
X65944Y-35326D02*
X65944Y-35816D01*
X58078Y-38527D02*
X58078Y-39017D01*
X52926Y-35917D02*
X54555Y-34288D01*
X49803Y-35917D02*
X52926Y-35917D01*
X67782Y-38592D02*
X67519Y-38592D01*
X68286Y-38088D02*
X67782Y-38592D01*
X68286Y-35607D02*
X68286Y-38088D01*
X66097Y-33417D02*
X68286Y-35607D01*
X54649Y-33417D02*
X66097Y-33417D01*
X53149Y-34917D02*
X54649Y-33417D01*
X49803Y-34917D02*
X53149Y-34917D01*
X67519Y-39082D02*
X67519Y-38592D01*
X42223Y-41187D02*
X44192Y-43157D01*
X42223Y-35537D02*
X42223Y-41187D01*
X42709Y-35051D02*
X42223Y-35537D01*
X44844Y-35051D02*
X42709Y-35051D01*
X46340Y-36547D02*
X44844Y-35051D01*
X47283Y-36547D02*
X46340Y-36547D01*
X47283Y-36161D02*
X47283Y-36547D01*
X44192Y-43701D02*
X44192Y-43157D01*
X47795Y-36161D02*
X47795Y-36547D01*
X47590Y-36751D02*
X47795Y-36547D01*
X46123Y-36751D02*
X47590Y-36751D01*
X44626Y-35254D02*
X46123Y-36751D01*
X43111Y-35254D02*
X44626Y-35254D01*
X42986Y-35379D02*
X43111Y-35254D01*
X42986Y-35969D02*
X42986Y-35379D01*
X42824Y-36132D02*
X42986Y-35969D01*
X61515Y-38488D02*
X61515Y-38764D01*
X61756Y-38213D02*
X61515Y-38213D01*
X62204Y-37765D02*
X61756Y-38213D01*
X62204Y-36889D02*
X62204Y-37765D01*
X61515Y-38488D02*
X61515Y-38213D01*
X60752Y-39527D02*
X61515Y-38764D01*
X58628Y-39527D02*
X60752Y-39527D01*
X58078Y-39527D02*
X58628Y-39527D01*
X53827Y-35530D02*
X54646Y-35530D01*
X52746Y-36611D02*
X53827Y-35530D01*
X52746Y-36795D02*
X52746Y-36611D01*
X52255Y-36795D02*
X52746Y-36795D01*
X51643Y-37917D02*
X51765Y-37795D01*
X49803Y-37917D02*
X51643Y-37917D01*
X52255Y-37795D02*
X51765Y-37795D01*
X58734Y-37118D02*
X61023Y-37118D01*
X57319Y-38533D02*
X58734Y-37118D01*
X57319Y-40318D02*
X57319Y-38533D01*
X57528Y-40527D02*
X57319Y-40318D01*
X58078Y-40527D02*
X57528Y-40527D01*
X61023Y-36889D02*
X61023Y-37118D01*
X52255Y-38795D02*
X52746Y-38795D01*
X58078Y-41527D02*
X58078Y-41037D01*
X58675Y-36889D02*
X59842Y-36889D01*
X56958Y-38606D02*
X58675Y-36889D01*
X56958Y-40407D02*
X56958Y-38606D01*
X54174Y-40407D02*
X56958Y-40407D01*
X52746Y-38979D02*
X54174Y-40407D01*
X52746Y-38795D02*
X52746Y-38979D01*
X57588Y-41037D02*
X58078Y-41037D01*
X56958Y-40407D02*
X57588Y-41037D01*
X46648Y-35652D02*
X46648Y-34940D01*
X46771Y-35775D02*
X46648Y-35652D01*
X46771Y-36161D02*
X46771Y-35775D01*
X46950Y-35229D02*
X46950Y-34242D01*
X47392Y-35671D02*
X46950Y-35229D01*
X48363Y-35671D02*
X47392Y-35671D01*
X49252Y-36560D02*
X48363Y-35671D01*
X49252Y-39122D02*
X49252Y-36560D01*
X49558Y-39427D02*
X49252Y-39122D01*
X49803Y-39427D02*
X49558Y-39427D01*
X49803Y-39917D02*
X49803Y-39427D01*
X58078Y-42527D02*
X58078Y-43527D01*
X55140Y-41917D02*
X55807Y-41917D01*
X53444Y-40222D02*
X55140Y-41917D01*
X51522Y-40222D02*
X53444Y-40222D01*
G54D10*
G36*
X69559Y-45460D02*
X69461Y-45950D01*
X69190Y-46355D01*
X68785Y-46626D01*
X68521Y-46679D01*
X68521Y-45184D01*
X68521Y-45130D01*
X68521Y-43791D01*
X68521Y-32979D01*
X68521Y-32926D01*
X68521Y-31587D01*
X68500Y-31537D01*
X68462Y-31499D01*
X68412Y-31478D01*
X68359Y-31478D01*
X67020Y-31478D01*
X66970Y-31499D01*
X66932Y-31537D01*
X66911Y-31587D01*
X66911Y-31640D01*
X66911Y-32979D01*
X66932Y-33029D01*
X66970Y-33067D01*
X67020Y-33088D01*
X67073Y-33088D01*
X68412Y-33088D01*
X68462Y-33067D01*
X68500Y-33029D01*
X68521Y-32979D01*
X68521Y-43791D01*
X68500Y-43741D01*
X68462Y-43703D01*
X68412Y-43683D01*
X68359Y-43683D01*
X68055Y-43683D01*
X68055Y-40449D01*
X68055Y-40395D01*
X68055Y-39715D01*
X68034Y-39665D01*
X67996Y-39627D01*
X67946Y-39607D01*
X67892Y-39607D01*
X67092Y-39607D01*
X67042Y-39627D01*
X67004Y-39665D01*
X66984Y-39715D01*
X66984Y-39769D01*
X66984Y-40449D01*
X67004Y-40499D01*
X67042Y-40537D01*
X67092Y-40558D01*
X67146Y-40558D01*
X67946Y-40558D01*
X67996Y-40537D01*
X68034Y-40499D01*
X68055Y-40449D01*
X68055Y-43683D01*
X67020Y-43683D01*
X66970Y-43703D01*
X66932Y-43741D01*
X66911Y-43791D01*
X66911Y-43845D01*
X66911Y-45184D01*
X66932Y-45234D01*
X66970Y-45272D01*
X67020Y-45293D01*
X67073Y-45293D01*
X68412Y-45293D01*
X68462Y-45272D01*
X68500Y-45234D01*
X68521Y-45184D01*
X68521Y-46679D01*
X68294Y-46724D01*
X68148Y-46724D01*
X68148Y-45927D01*
X64725Y-45927D01*
X64725Y-46724D01*
X64620Y-46724D01*
X64620Y-44527D01*
X64620Y-43527D01*
X64620Y-42527D01*
X64620Y-41527D01*
X64620Y-40527D01*
X64600Y-40425D01*
X64600Y-39615D01*
X64574Y-39541D01*
X64088Y-39541D01*
X64088Y-40001D01*
X64148Y-40001D01*
X64328Y-39960D01*
X64479Y-39852D01*
X64577Y-39696D01*
X64600Y-39615D01*
X64600Y-40425D01*
X64584Y-40345D01*
X64481Y-40191D01*
X64327Y-40088D01*
X64145Y-40052D01*
X64061Y-40052D01*
X64061Y-40001D01*
X64061Y-39541D01*
X63574Y-39541D01*
X63549Y-39615D01*
X63571Y-39696D01*
X63669Y-39852D01*
X63820Y-39960D01*
X64001Y-40001D01*
X64061Y-40001D01*
X64061Y-40052D01*
X64004Y-40052D01*
X63822Y-40088D01*
X63668Y-40191D01*
X63565Y-40345D01*
X63528Y-40527D01*
X63565Y-40709D01*
X63668Y-40863D01*
X63822Y-40966D01*
X64004Y-41002D01*
X64145Y-41002D01*
X64327Y-40966D01*
X64481Y-40863D01*
X64584Y-40709D01*
X64620Y-40527D01*
X64620Y-41527D01*
X64584Y-41345D01*
X64481Y-41191D01*
X64327Y-41088D01*
X64145Y-41052D01*
X64004Y-41052D01*
X63822Y-41088D01*
X63668Y-41191D01*
X63565Y-41345D01*
X63528Y-41527D01*
X63565Y-41709D01*
X63668Y-41863D01*
X63822Y-41966D01*
X64004Y-42002D01*
X64145Y-42002D01*
X64327Y-41966D01*
X64481Y-41863D01*
X64584Y-41709D01*
X64620Y-41527D01*
X64620Y-42527D01*
X64584Y-42345D01*
X64481Y-42191D01*
X64327Y-42088D01*
X64145Y-42052D01*
X64004Y-42052D01*
X63822Y-42088D01*
X63668Y-42191D01*
X63565Y-42345D01*
X63528Y-42527D01*
X63565Y-42709D01*
X63668Y-42863D01*
X63822Y-42966D01*
X64004Y-43002D01*
X64145Y-43002D01*
X64327Y-42966D01*
X64481Y-42863D01*
X64584Y-42709D01*
X64620Y-42527D01*
X64620Y-43527D01*
X64584Y-43345D01*
X64481Y-43191D01*
X64327Y-43088D01*
X64145Y-43052D01*
X64004Y-43052D01*
X63822Y-43088D01*
X63668Y-43191D01*
X63565Y-43345D01*
X63528Y-43527D01*
X63565Y-43709D01*
X63668Y-43863D01*
X63822Y-43966D01*
X64004Y-44002D01*
X64145Y-44002D01*
X64327Y-43966D01*
X64481Y-43863D01*
X64584Y-43709D01*
X64620Y-43527D01*
X64620Y-44527D01*
X64584Y-44345D01*
X64481Y-44191D01*
X64327Y-44088D01*
X64145Y-44052D01*
X64004Y-44052D01*
X63822Y-44088D01*
X63668Y-44191D01*
X63565Y-44345D01*
X63528Y-44527D01*
X63565Y-44709D01*
X63668Y-44863D01*
X63822Y-44966D01*
X64004Y-45002D01*
X64145Y-45002D01*
X64327Y-44966D01*
X64481Y-44863D01*
X64584Y-44709D01*
X64620Y-44527D01*
X64620Y-46724D01*
X64600Y-46724D01*
X64600Y-45615D01*
X64600Y-45439D01*
X64577Y-45358D01*
X64479Y-45202D01*
X64328Y-45095D01*
X64148Y-45053D01*
X64088Y-45053D01*
X64088Y-45513D01*
X64574Y-45513D01*
X64600Y-45439D01*
X64600Y-45615D01*
X64574Y-45541D01*
X64088Y-45541D01*
X64088Y-46001D01*
X64148Y-46001D01*
X64328Y-45960D01*
X64479Y-45852D01*
X64577Y-45696D01*
X64600Y-45615D01*
X64600Y-46724D01*
X64061Y-46724D01*
X64061Y-46001D01*
X64061Y-45541D01*
X64061Y-45513D01*
X64061Y-45053D01*
X64001Y-45053D01*
X63820Y-45095D01*
X63669Y-45202D01*
X63571Y-45358D01*
X63549Y-45439D01*
X63574Y-45513D01*
X64061Y-45513D01*
X64061Y-45541D01*
X63574Y-45541D01*
X63549Y-45615D01*
X63571Y-45696D01*
X63669Y-45852D01*
X63820Y-45960D01*
X64001Y-46001D01*
X64061Y-46001D01*
X64061Y-46724D01*
X44936Y-46724D01*
X44936Y-45669D01*
X44895Y-45466D01*
X44781Y-45295D01*
X44609Y-45180D01*
X44407Y-45140D01*
X43978Y-45140D01*
X43776Y-45180D01*
X43604Y-45295D01*
X43489Y-45466D01*
X43449Y-45669D01*
X43489Y-45871D01*
X43604Y-46043D01*
X43776Y-46157D01*
X43978Y-46197D01*
X44407Y-46197D01*
X44609Y-46157D01*
X44781Y-46043D01*
X44895Y-45871D01*
X44936Y-45669D01*
X44936Y-46724D01*
X43417Y-46724D01*
X42927Y-46626D01*
X42521Y-46355D01*
X42251Y-45950D01*
X42153Y-45460D01*
X42153Y-41380D01*
X43950Y-43177D01*
X43776Y-43212D01*
X43604Y-43327D01*
X43489Y-43498D01*
X43449Y-43701D01*
X43489Y-43903D01*
X43604Y-44075D01*
X43776Y-44189D01*
X43978Y-44229D01*
X44407Y-44229D01*
X44609Y-44189D01*
X44781Y-44075D01*
X44895Y-43903D01*
X44936Y-43701D01*
X44895Y-43498D01*
X44781Y-43327D01*
X44609Y-43212D01*
X44407Y-43172D01*
X44378Y-43172D01*
X44378Y-43157D01*
X44364Y-43086D01*
X44364Y-43086D01*
X44324Y-43026D01*
X44056Y-42758D01*
X44056Y-41056D01*
X43991Y-40897D01*
X43870Y-40776D01*
X43711Y-40710D01*
X43540Y-40710D01*
X43381Y-40776D01*
X43260Y-40897D01*
X43194Y-41055D01*
X43194Y-41227D01*
X43260Y-41385D01*
X43381Y-41506D01*
X43539Y-41572D01*
X43710Y-41572D01*
X43869Y-41507D01*
X43990Y-41386D01*
X44056Y-41227D01*
X44056Y-41056D01*
X44056Y-42758D01*
X42408Y-41111D01*
X42408Y-40107D01*
X42952Y-40651D01*
X43013Y-40691D01*
X43013Y-40691D01*
X43084Y-40705D01*
X43883Y-40705D01*
X45226Y-42048D01*
X45286Y-42088D01*
X45357Y-42102D01*
X49295Y-42102D01*
X49396Y-42253D01*
X49550Y-42356D01*
X49732Y-42392D01*
X49873Y-42392D01*
X50055Y-42356D01*
X50209Y-42253D01*
X50312Y-42099D01*
X50349Y-41917D01*
X50312Y-41735D01*
X50209Y-41581D01*
X50055Y-41478D01*
X49873Y-41441D01*
X49732Y-41441D01*
X49550Y-41478D01*
X49396Y-41581D01*
X49295Y-41731D01*
X47596Y-41731D01*
X47596Y-40409D01*
X47596Y-40355D01*
X47596Y-40204D01*
X47596Y-40110D01*
X47596Y-39959D01*
X47596Y-39905D01*
X47576Y-39856D01*
X47538Y-39819D01*
X47535Y-39817D01*
X47535Y-38707D01*
X47535Y-38654D01*
X47535Y-38492D01*
X47501Y-38458D01*
X47297Y-38458D01*
X47297Y-38781D01*
X47330Y-38815D01*
X47427Y-38815D01*
X47477Y-38794D01*
X47514Y-38756D01*
X47535Y-38707D01*
X47535Y-39817D01*
X47489Y-39798D01*
X47385Y-39798D01*
X47351Y-39832D01*
X47351Y-40143D01*
X47563Y-40143D01*
X47596Y-40110D01*
X47596Y-40204D01*
X47563Y-40171D01*
X47351Y-40171D01*
X47351Y-40482D01*
X47385Y-40516D01*
X47489Y-40516D01*
X47538Y-40495D01*
X47576Y-40458D01*
X47596Y-40409D01*
X47596Y-41731D01*
X47324Y-41731D01*
X47324Y-40482D01*
X47324Y-40171D01*
X47324Y-40143D01*
X47324Y-39832D01*
X47290Y-39798D01*
X47186Y-39798D01*
X47136Y-39819D01*
X47099Y-39856D01*
X47078Y-39905D01*
X47078Y-39959D01*
X47078Y-40110D01*
X47112Y-40143D01*
X47324Y-40143D01*
X47324Y-40171D01*
X47112Y-40171D01*
X47078Y-40204D01*
X47078Y-40355D01*
X47078Y-40409D01*
X47099Y-40458D01*
X47136Y-40495D01*
X47186Y-40516D01*
X47290Y-40516D01*
X47324Y-40482D01*
X47324Y-41731D01*
X45978Y-41731D01*
X45978Y-41056D01*
X45913Y-40897D01*
X45792Y-40776D01*
X45633Y-40710D01*
X45462Y-40710D01*
X45303Y-40776D01*
X45182Y-40897D01*
X45116Y-41055D01*
X45116Y-41227D01*
X45182Y-41385D01*
X45303Y-41506D01*
X45461Y-41572D01*
X45632Y-41572D01*
X45791Y-41507D01*
X45912Y-41386D01*
X45978Y-41227D01*
X45978Y-41056D01*
X45978Y-41731D01*
X45434Y-41731D01*
X44091Y-40389D01*
X44031Y-40349D01*
X43960Y-40334D01*
X43160Y-40334D01*
X42753Y-39927D01*
X42848Y-39927D01*
X42855Y-39938D01*
X42990Y-40073D01*
X43026Y-40097D01*
X43050Y-40113D01*
X43050Y-40113D01*
X43121Y-40127D01*
X45198Y-40127D01*
X45269Y-40113D01*
X45329Y-40073D01*
X46280Y-39122D01*
X46389Y-39122D01*
X46503Y-39075D01*
X46562Y-39016D01*
X46791Y-39016D01*
X46862Y-39002D01*
X46922Y-38962D01*
X46962Y-38902D01*
X46976Y-38831D01*
X46976Y-38799D01*
X46986Y-38795D01*
X47024Y-38757D01*
X47038Y-38723D01*
X47051Y-38756D01*
X47089Y-38794D01*
X47138Y-38815D01*
X47236Y-38815D01*
X47269Y-38781D01*
X47269Y-38458D01*
X47261Y-38458D01*
X47261Y-38431D01*
X47269Y-38431D01*
X47269Y-38423D01*
X47297Y-38423D01*
X47297Y-38431D01*
X47501Y-38431D01*
X47535Y-38397D01*
X47535Y-38244D01*
X47541Y-38244D01*
X47541Y-38708D01*
X47562Y-38757D01*
X47600Y-38795D01*
X47609Y-38799D01*
X47609Y-38831D01*
X47624Y-38902D01*
X47664Y-38962D01*
X47724Y-39002D01*
X47752Y-39008D01*
X47752Y-39782D01*
X47752Y-39810D01*
X47736Y-39817D01*
X47697Y-39855D01*
X47677Y-39905D01*
X47677Y-39959D01*
X47677Y-40409D01*
X47697Y-40459D01*
X47736Y-40497D01*
X47785Y-40517D01*
X47839Y-40517D01*
X48089Y-40517D01*
X48139Y-40497D01*
X48177Y-40459D01*
X48198Y-40409D01*
X48198Y-40405D01*
X48334Y-40541D01*
X48334Y-40541D01*
X48394Y-40581D01*
X48465Y-40595D01*
X49386Y-40595D01*
X49293Y-40735D01*
X49257Y-40917D01*
X49293Y-41099D01*
X49396Y-41253D01*
X49550Y-41356D01*
X49732Y-41392D01*
X49873Y-41392D01*
X50055Y-41356D01*
X50209Y-41253D01*
X50310Y-41102D01*
X53636Y-41102D01*
X56190Y-43656D01*
X56190Y-43656D01*
X57702Y-45168D01*
X57704Y-45169D01*
X57672Y-45191D01*
X57569Y-45345D01*
X57532Y-45527D01*
X57569Y-45709D01*
X57672Y-45863D01*
X57826Y-45966D01*
X58008Y-46002D01*
X58149Y-46002D01*
X58331Y-45966D01*
X58485Y-45863D01*
X58588Y-45709D01*
X58624Y-45527D01*
X58588Y-45345D01*
X58485Y-45191D01*
X58331Y-45088D01*
X58264Y-45074D01*
X58264Y-45037D01*
X58253Y-44982D01*
X58331Y-44966D01*
X58485Y-44863D01*
X58588Y-44709D01*
X58624Y-44527D01*
X58588Y-44345D01*
X58485Y-44191D01*
X58467Y-44179D01*
X58483Y-44168D01*
X63449Y-39203D01*
X63669Y-39203D01*
X63571Y-39358D01*
X63549Y-39439D01*
X63574Y-39513D01*
X64061Y-39513D01*
X64061Y-39505D01*
X64088Y-39505D01*
X64088Y-39513D01*
X64574Y-39513D01*
X64600Y-39439D01*
X64577Y-39358D01*
X64480Y-39203D01*
X64744Y-39203D01*
X64815Y-39189D01*
X64875Y-39148D01*
X66076Y-37948D01*
X66116Y-37887D01*
X66116Y-37887D01*
X66130Y-37816D01*
X66130Y-37802D01*
X66371Y-37802D01*
X66421Y-37781D01*
X66459Y-37743D01*
X66480Y-37693D01*
X66480Y-37639D01*
X66480Y-36959D01*
X66459Y-36910D01*
X66421Y-36871D01*
X66371Y-36851D01*
X66317Y-36851D01*
X65517Y-36851D01*
X65468Y-36871D01*
X65430Y-36910D01*
X65409Y-36959D01*
X65409Y-37013D01*
X65409Y-37693D01*
X65430Y-37743D01*
X65468Y-37781D01*
X65517Y-37802D01*
X65571Y-37802D01*
X65697Y-37802D01*
X64667Y-38832D01*
X64610Y-38832D01*
X64610Y-38160D01*
X64589Y-38110D01*
X64551Y-38072D01*
X64501Y-38052D01*
X64447Y-38052D01*
X63797Y-38052D01*
X65337Y-36512D01*
X65437Y-36512D01*
X65538Y-36662D01*
X65692Y-36766D01*
X65874Y-36802D01*
X66015Y-36802D01*
X66197Y-36766D01*
X66351Y-36662D01*
X66454Y-36508D01*
X66490Y-36326D01*
X66454Y-36144D01*
X66351Y-35990D01*
X66197Y-35887D01*
X66119Y-35872D01*
X66130Y-35816D01*
X66130Y-35779D01*
X66197Y-35766D01*
X66351Y-35662D01*
X66454Y-35508D01*
X66490Y-35326D01*
X66470Y-35224D01*
X66454Y-35144D01*
X66351Y-34990D01*
X66197Y-34887D01*
X66015Y-34851D01*
X65931Y-34851D01*
X65931Y-34800D01*
X65931Y-34340D01*
X65444Y-34340D01*
X65419Y-34414D01*
X65441Y-34495D01*
X65540Y-34652D01*
X65690Y-34759D01*
X65871Y-34800D01*
X65931Y-34800D01*
X65931Y-34851D01*
X65874Y-34851D01*
X65692Y-34887D01*
X65538Y-34990D01*
X65435Y-35144D01*
X65398Y-35326D01*
X65435Y-35508D01*
X65517Y-35631D01*
X65454Y-35631D01*
X65383Y-35645D01*
X65323Y-35685D01*
X61167Y-39842D01*
X58499Y-39842D01*
X58586Y-39712D01*
X58628Y-39712D01*
X60752Y-39712D01*
X60823Y-39698D01*
X60883Y-39658D01*
X61646Y-38895D01*
X61687Y-38835D01*
X61701Y-38764D01*
X61701Y-38749D01*
X61767Y-38749D01*
X61817Y-38728D01*
X61855Y-38690D01*
X61876Y-38640D01*
X61876Y-38587D01*
X61876Y-38352D01*
X61887Y-38344D01*
X62335Y-37896D01*
X62335Y-37896D01*
X62359Y-37860D01*
X62376Y-37836D01*
X62376Y-37836D01*
X62390Y-37765D01*
X62390Y-37086D01*
X62399Y-37082D01*
X62437Y-37044D01*
X62458Y-36995D01*
X62458Y-36941D01*
X62458Y-36784D01*
X62437Y-36734D01*
X62415Y-36712D01*
X62437Y-36690D01*
X62458Y-36641D01*
X62458Y-36587D01*
X62458Y-36430D01*
X62437Y-36380D01*
X62399Y-36342D01*
X62390Y-36338D01*
X62390Y-36091D01*
X62456Y-36091D01*
X62506Y-36071D01*
X62544Y-36033D01*
X62565Y-35983D01*
X62565Y-35929D01*
X62565Y-35679D01*
X62563Y-35675D01*
X62563Y-35383D01*
X62563Y-35278D01*
X62563Y-35184D01*
X62563Y-35079D01*
X62543Y-35030D01*
X62505Y-34993D01*
X62456Y-34972D01*
X62403Y-34972D01*
X62251Y-34972D01*
X62218Y-35006D01*
X62218Y-35217D01*
X62530Y-35217D01*
X62563Y-35184D01*
X62563Y-35278D01*
X62530Y-35245D01*
X62218Y-35245D01*
X62218Y-35456D01*
X62251Y-35490D01*
X62403Y-35490D01*
X62456Y-35490D01*
X62505Y-35469D01*
X62543Y-35432D01*
X62563Y-35383D01*
X62563Y-35675D01*
X62544Y-35629D01*
X62506Y-35591D01*
X62456Y-35571D01*
X62402Y-35571D01*
X62190Y-35571D01*
X62190Y-35456D01*
X62190Y-35245D01*
X62190Y-35217D01*
X62190Y-35006D01*
X62157Y-34972D01*
X62006Y-34972D01*
X61953Y-34972D01*
X61903Y-34993D01*
X61866Y-35030D01*
X61845Y-35079D01*
X61845Y-35184D01*
X61879Y-35217D01*
X62190Y-35217D01*
X62190Y-35245D01*
X61879Y-35245D01*
X61845Y-35278D01*
X61845Y-35383D01*
X61866Y-35432D01*
X61903Y-35469D01*
X61953Y-35490D01*
X62006Y-35490D01*
X62157Y-35490D01*
X62190Y-35456D01*
X62190Y-35571D01*
X61952Y-35571D01*
X61903Y-35591D01*
X61864Y-35629D01*
X61844Y-35679D01*
X61844Y-35733D01*
X61844Y-35983D01*
X61864Y-36033D01*
X61903Y-36071D01*
X61952Y-36091D01*
X62006Y-36091D01*
X62019Y-36091D01*
X62019Y-36338D01*
X62010Y-36342D01*
X61971Y-36380D01*
X61951Y-36430D01*
X61951Y-36484D01*
X61951Y-36641D01*
X61971Y-36690D01*
X61993Y-36712D01*
X61971Y-36734D01*
X61951Y-36784D01*
X61951Y-36838D01*
X61951Y-36995D01*
X61971Y-37044D01*
X62010Y-37082D01*
X62019Y-37086D01*
X62019Y-37688D01*
X61874Y-37833D01*
X61874Y-37737D01*
X61854Y-37688D01*
X61816Y-37650D01*
X61767Y-37630D01*
X61714Y-37630D01*
X61562Y-37630D01*
X61529Y-37663D01*
X61529Y-37875D01*
X61537Y-37875D01*
X61537Y-37902D01*
X61529Y-37902D01*
X61529Y-37910D01*
X61501Y-37910D01*
X61501Y-37902D01*
X61501Y-37875D01*
X61501Y-37663D01*
X61468Y-37630D01*
X61317Y-37630D01*
X61264Y-37630D01*
X61214Y-37650D01*
X61177Y-37688D01*
X61156Y-37737D01*
X61156Y-37841D01*
X61190Y-37875D01*
X61501Y-37875D01*
X61501Y-37902D01*
X61190Y-37902D01*
X61156Y-37936D01*
X61156Y-38040D01*
X61177Y-38089D01*
X61214Y-38127D01*
X61264Y-38147D01*
X61317Y-38147D01*
X61343Y-38147D01*
X61330Y-38213D01*
X61330Y-38228D01*
X61263Y-38228D01*
X61214Y-38249D01*
X61175Y-38287D01*
X61155Y-38337D01*
X61155Y-38390D01*
X61155Y-38640D01*
X61175Y-38690D01*
X61214Y-38728D01*
X61263Y-38749D01*
X61268Y-38749D01*
X60675Y-39342D01*
X58628Y-39342D01*
X58586Y-39342D01*
X58485Y-39191D01*
X58331Y-39088D01*
X58253Y-39072D01*
X58264Y-39017D01*
X58264Y-38980D01*
X58331Y-38966D01*
X58485Y-38863D01*
X58586Y-38712D01*
X59822Y-38712D01*
X59893Y-38698D01*
X59900Y-38694D01*
X59934Y-38728D01*
X59984Y-38749D01*
X60038Y-38749D01*
X60488Y-38749D01*
X60537Y-38728D01*
X60576Y-38690D01*
X60596Y-38640D01*
X60596Y-38587D01*
X60596Y-38337D01*
X60576Y-38287D01*
X60537Y-38249D01*
X60488Y-38228D01*
X60434Y-38228D01*
X59984Y-38228D01*
X59934Y-38249D01*
X59896Y-38287D01*
X59889Y-38303D01*
X59861Y-38303D01*
X59790Y-38317D01*
X59753Y-38342D01*
X58586Y-38342D01*
X58485Y-38191D01*
X58331Y-38088D01*
X58149Y-38052D01*
X58063Y-38052D01*
X58811Y-37303D01*
X60934Y-37303D01*
X60563Y-37674D01*
X60537Y-37649D01*
X60488Y-37628D01*
X60434Y-37628D01*
X59984Y-37628D01*
X59934Y-37649D01*
X59896Y-37687D01*
X59875Y-37737D01*
X59875Y-37790D01*
X59875Y-38040D01*
X59896Y-38090D01*
X59934Y-38128D01*
X59984Y-38149D01*
X60038Y-38149D01*
X60488Y-38149D01*
X60537Y-38128D01*
X60576Y-38090D01*
X60582Y-38074D01*
X60611Y-38074D01*
X60682Y-38060D01*
X60742Y-38020D01*
X61530Y-37231D01*
X61530Y-37231D01*
X61554Y-37195D01*
X61571Y-37171D01*
X61571Y-37171D01*
X61585Y-37100D01*
X61585Y-35641D01*
X61571Y-35570D01*
X61530Y-35510D01*
X61416Y-35396D01*
X61382Y-35373D01*
X61382Y-35278D01*
X61382Y-35184D01*
X61382Y-35079D01*
X61362Y-35030D01*
X61324Y-34993D01*
X61275Y-34972D01*
X61221Y-34972D01*
X61070Y-34972D01*
X61037Y-35006D01*
X61037Y-35217D01*
X61349Y-35217D01*
X61382Y-35184D01*
X61382Y-35278D01*
X61349Y-35245D01*
X61037Y-35245D01*
X61037Y-35253D01*
X61009Y-35253D01*
X61009Y-35245D01*
X61009Y-35217D01*
X61009Y-35006D01*
X60976Y-34972D01*
X60825Y-34972D01*
X60771Y-34972D01*
X60722Y-34993D01*
X60685Y-35030D01*
X60664Y-35079D01*
X60664Y-35184D01*
X60698Y-35217D01*
X61009Y-35217D01*
X61009Y-35245D01*
X60698Y-35245D01*
X60664Y-35278D01*
X60664Y-35342D01*
X60201Y-35342D01*
X60201Y-35278D01*
X60201Y-35184D01*
X60201Y-35079D01*
X60180Y-35030D01*
X60143Y-34993D01*
X60094Y-34972D01*
X60040Y-34972D01*
X59889Y-34972D01*
X59856Y-35006D01*
X59856Y-35217D01*
X60167Y-35217D01*
X60201Y-35184D01*
X60201Y-35278D01*
X60167Y-35245D01*
X59856Y-35245D01*
X59856Y-35253D01*
X59828Y-35253D01*
X59828Y-35245D01*
X59820Y-35245D01*
X59820Y-35217D01*
X59828Y-35217D01*
X59828Y-35006D01*
X59795Y-34972D01*
X59775Y-34972D01*
X60728Y-34019D01*
X65529Y-34019D01*
X65441Y-34158D01*
X65419Y-34239D01*
X65444Y-34312D01*
X65931Y-34312D01*
X65931Y-34305D01*
X65958Y-34305D01*
X65958Y-34312D01*
X65966Y-34312D01*
X65966Y-34340D01*
X65958Y-34340D01*
X65958Y-34800D01*
X66018Y-34800D01*
X66198Y-34759D01*
X66349Y-34652D01*
X66447Y-34495D01*
X66470Y-34414D01*
X66445Y-34340D01*
X66474Y-34340D01*
X67894Y-35759D01*
X67894Y-36735D01*
X67773Y-36650D01*
X67593Y-36608D01*
X67533Y-36608D01*
X67533Y-37068D01*
X67541Y-37068D01*
X67541Y-37096D01*
X67533Y-37096D01*
X67533Y-37556D01*
X67593Y-37556D01*
X67773Y-37515D01*
X67894Y-37429D01*
X67894Y-37445D01*
X67709Y-37630D01*
X67590Y-37607D01*
X67505Y-37607D01*
X67505Y-37556D01*
X67505Y-37096D01*
X67505Y-37068D01*
X67505Y-36608D01*
X67445Y-36608D01*
X67265Y-36650D01*
X67114Y-36757D01*
X67016Y-36914D01*
X66994Y-36994D01*
X67019Y-37068D01*
X67505Y-37068D01*
X67505Y-37096D01*
X67019Y-37096D01*
X66994Y-37170D01*
X67016Y-37251D01*
X67114Y-37408D01*
X67265Y-37515D01*
X67445Y-37556D01*
X67505Y-37556D01*
X67505Y-37607D01*
X67449Y-37607D01*
X67267Y-37643D01*
X67113Y-37746D01*
X67009Y-37900D01*
X66973Y-38082D01*
X67009Y-38264D01*
X67113Y-38418D01*
X67267Y-38521D01*
X67345Y-38537D01*
X67334Y-38592D01*
X67334Y-38630D01*
X67267Y-38643D01*
X67113Y-38746D01*
X67009Y-38900D01*
X66973Y-39082D01*
X67009Y-39264D01*
X67113Y-39418D01*
X67267Y-39521D01*
X67449Y-39558D01*
X67590Y-39558D01*
X67772Y-39521D01*
X67926Y-39418D01*
X68029Y-39264D01*
X68065Y-39082D01*
X68029Y-38900D01*
X67926Y-38746D01*
X67903Y-38730D01*
X67913Y-38723D01*
X68418Y-38219D01*
X68418Y-38219D01*
X68458Y-38159D01*
X68472Y-38088D01*
X68472Y-38088D01*
X68472Y-35607D01*
X68458Y-35536D01*
X68458Y-35536D01*
X68442Y-35512D01*
X68418Y-35476D01*
X66228Y-33286D01*
X66168Y-33246D01*
X66097Y-33231D01*
X64505Y-33231D01*
X64505Y-32202D01*
X64505Y-31773D01*
X64464Y-31571D01*
X64350Y-31399D01*
X64178Y-31285D01*
X63976Y-31244D01*
X63773Y-31285D01*
X63602Y-31399D01*
X63487Y-31571D01*
X63447Y-31773D01*
X63447Y-32202D01*
X63487Y-32404D01*
X63602Y-32576D01*
X63773Y-32691D01*
X63976Y-32731D01*
X64178Y-32691D01*
X64350Y-32576D01*
X64464Y-32404D01*
X64505Y-32202D01*
X64505Y-33231D01*
X62537Y-33231D01*
X62537Y-32202D01*
X62537Y-31773D01*
X62496Y-31571D01*
X62382Y-31399D01*
X62210Y-31285D01*
X62008Y-31244D01*
X61805Y-31285D01*
X61634Y-31399D01*
X61519Y-31571D01*
X61479Y-31773D01*
X61479Y-32202D01*
X61519Y-32404D01*
X61634Y-32576D01*
X61805Y-32691D01*
X62008Y-32731D01*
X62210Y-32691D01*
X62382Y-32576D01*
X62496Y-32404D01*
X62537Y-32202D01*
X62537Y-33231D01*
X60568Y-33231D01*
X60568Y-32202D01*
X60568Y-31773D01*
X60527Y-31571D01*
X60413Y-31399D01*
X60241Y-31285D01*
X60039Y-31244D01*
X59836Y-31285D01*
X59665Y-31399D01*
X59550Y-31571D01*
X59510Y-31773D01*
X59510Y-32202D01*
X59550Y-32404D01*
X59665Y-32576D01*
X59836Y-32691D01*
X60039Y-32731D01*
X60241Y-32691D01*
X60413Y-32576D01*
X60527Y-32404D01*
X60568Y-32202D01*
X60568Y-33231D01*
X58600Y-33231D01*
X58600Y-32202D01*
X58600Y-31773D01*
X58559Y-31571D01*
X58445Y-31399D01*
X58273Y-31285D01*
X58071Y-31244D01*
X57868Y-31285D01*
X57697Y-31399D01*
X57582Y-31571D01*
X57542Y-31773D01*
X57542Y-32202D01*
X57582Y-32404D01*
X57697Y-32576D01*
X57868Y-32691D01*
X58071Y-32731D01*
X58273Y-32691D01*
X58445Y-32576D01*
X58559Y-32404D01*
X58600Y-32202D01*
X58600Y-33231D01*
X56228Y-33231D01*
X56316Y-33099D01*
X56353Y-32917D01*
X56353Y-30917D01*
X56316Y-30735D01*
X56213Y-30581D01*
X56059Y-30478D01*
X55877Y-30441D01*
X55736Y-30441D01*
X55554Y-30478D01*
X55400Y-30581D01*
X55297Y-30735D01*
X55261Y-30917D01*
X55297Y-31099D01*
X55400Y-31253D01*
X55554Y-31356D01*
X55736Y-31392D01*
X55877Y-31392D01*
X56059Y-31356D01*
X56213Y-31253D01*
X56316Y-31099D01*
X56353Y-30917D01*
X56353Y-32917D01*
X56332Y-32815D01*
X56332Y-32005D01*
X56332Y-31829D01*
X56310Y-31748D01*
X56211Y-31591D01*
X56061Y-31484D01*
X55880Y-31443D01*
X55820Y-31443D01*
X55820Y-31903D01*
X56307Y-31903D01*
X56332Y-31829D01*
X56332Y-32005D01*
X56307Y-31931D01*
X55820Y-31931D01*
X55820Y-32391D01*
X55880Y-32391D01*
X56061Y-32349D01*
X56211Y-32242D01*
X56310Y-32085D01*
X56332Y-32005D01*
X56332Y-32815D01*
X56316Y-32735D01*
X56213Y-32581D01*
X56059Y-32478D01*
X55877Y-32441D01*
X55793Y-32441D01*
X55793Y-32391D01*
X55793Y-31931D01*
X55793Y-31903D01*
X55793Y-31443D01*
X55733Y-31443D01*
X55553Y-31484D01*
X55402Y-31591D01*
X55304Y-31748D01*
X55281Y-31829D01*
X55306Y-31903D01*
X55793Y-31903D01*
X55793Y-31931D01*
X55306Y-31931D01*
X55281Y-32005D01*
X55304Y-32085D01*
X55402Y-32242D01*
X55553Y-32349D01*
X55733Y-32391D01*
X55793Y-32391D01*
X55793Y-32441D01*
X55736Y-32441D01*
X55554Y-32478D01*
X55400Y-32581D01*
X55297Y-32735D01*
X55261Y-32917D01*
X55297Y-33099D01*
X55385Y-33231D01*
X54649Y-33231D01*
X54578Y-33246D01*
X54554Y-33262D01*
X54518Y-33286D01*
X53072Y-34731D01*
X50310Y-34731D01*
X50209Y-34581D01*
X50183Y-34563D01*
X50207Y-34548D01*
X50486Y-34268D01*
X50526Y-34208D01*
X50540Y-34137D01*
X50540Y-33713D01*
X50526Y-33642D01*
X50526Y-33642D01*
X50510Y-33618D01*
X50486Y-33582D01*
X50349Y-33444D01*
X50349Y-31917D01*
X50338Y-31864D01*
X50338Y-31284D01*
X50338Y-31230D01*
X50338Y-30550D01*
X50317Y-30500D01*
X50279Y-30462D01*
X50230Y-30441D01*
X50176Y-30441D01*
X49376Y-30441D01*
X49326Y-30462D01*
X49288Y-30500D01*
X49267Y-30550D01*
X49267Y-30604D01*
X49267Y-31284D01*
X49288Y-31334D01*
X49326Y-31372D01*
X49376Y-31392D01*
X49430Y-31392D01*
X50230Y-31392D01*
X50279Y-31372D01*
X50317Y-31334D01*
X50338Y-31284D01*
X50338Y-31864D01*
X50312Y-31735D01*
X50209Y-31581D01*
X50055Y-31478D01*
X49873Y-31441D01*
X49732Y-31441D01*
X49550Y-31478D01*
X49396Y-31581D01*
X49293Y-31735D01*
X49257Y-31917D01*
X49293Y-32099D01*
X49396Y-32253D01*
X49550Y-32356D01*
X49732Y-32392D01*
X49873Y-32392D01*
X50055Y-32356D01*
X50209Y-32253D01*
X50312Y-32099D01*
X50349Y-31917D01*
X50349Y-33444D01*
X50190Y-33286D01*
X50167Y-33271D01*
X50207Y-33242D01*
X50306Y-33085D01*
X50328Y-33005D01*
X50328Y-32829D01*
X50306Y-32748D01*
X50207Y-32591D01*
X50057Y-32484D01*
X49876Y-32443D01*
X49816Y-32443D01*
X49816Y-32903D01*
X50303Y-32903D01*
X50328Y-32829D01*
X50328Y-33005D01*
X50303Y-32931D01*
X49816Y-32931D01*
X49816Y-32938D01*
X49789Y-32938D01*
X49789Y-32931D01*
X49781Y-32931D01*
X49781Y-32903D01*
X49789Y-32903D01*
X49789Y-32443D01*
X49729Y-32443D01*
X49549Y-32484D01*
X49398Y-32591D01*
X49300Y-32748D01*
X49277Y-32829D01*
X49302Y-32903D01*
X49298Y-32903D01*
X48186Y-31791D01*
X48186Y-30661D01*
X48166Y-30612D01*
X48127Y-30574D01*
X48078Y-30553D01*
X48024Y-30553D01*
X47394Y-30553D01*
X47344Y-30574D01*
X47306Y-30612D01*
X47285Y-30661D01*
X47285Y-30715D01*
X47285Y-31211D01*
X47271Y-31211D01*
X47200Y-31226D01*
X47139Y-31266D01*
X47095Y-31310D01*
X44899Y-31310D01*
X44895Y-31293D01*
X44781Y-31122D01*
X44609Y-31007D01*
X44407Y-30967D01*
X43978Y-30967D01*
X43776Y-31007D01*
X43604Y-31122D01*
X43489Y-31293D01*
X43449Y-31496D01*
X43489Y-31698D01*
X43604Y-31870D01*
X43776Y-31984D01*
X43978Y-32025D01*
X44407Y-32025D01*
X44609Y-31984D01*
X44781Y-31870D01*
X44895Y-31698D01*
X44899Y-31681D01*
X47172Y-31681D01*
X47243Y-31667D01*
X47285Y-31639D01*
X47285Y-32132D01*
X47306Y-32182D01*
X47344Y-32220D01*
X47394Y-32241D01*
X47448Y-32241D01*
X48078Y-32241D01*
X48101Y-32231D01*
X49418Y-33548D01*
X49439Y-33562D01*
X49398Y-33591D01*
X49300Y-33748D01*
X49277Y-33829D01*
X49302Y-33903D01*
X49789Y-33903D01*
X49789Y-33895D01*
X49816Y-33895D01*
X49816Y-33903D01*
X49824Y-33903D01*
X49824Y-33931D01*
X49816Y-33931D01*
X49816Y-33938D01*
X49789Y-33938D01*
X49789Y-33931D01*
X49302Y-33931D01*
X49277Y-34005D01*
X49300Y-34085D01*
X49391Y-34231D01*
X49327Y-34231D01*
X49256Y-34246D01*
X49195Y-34286D01*
X48788Y-34693D01*
X48788Y-34689D01*
X48768Y-34639D01*
X48730Y-34601D01*
X48680Y-34580D01*
X48626Y-34580D01*
X48376Y-34580D01*
X48326Y-34601D01*
X48288Y-34639D01*
X48267Y-34689D01*
X48267Y-34742D01*
X48267Y-35192D01*
X48288Y-35242D01*
X48326Y-35280D01*
X48376Y-35301D01*
X48430Y-35301D01*
X48680Y-35301D01*
X48730Y-35280D01*
X48768Y-35242D01*
X48788Y-35192D01*
X48788Y-35139D01*
X48788Y-35126D01*
X48803Y-35126D01*
X48874Y-35112D01*
X48934Y-35072D01*
X49338Y-34668D01*
X49293Y-34735D01*
X49257Y-34917D01*
X49293Y-35099D01*
X49396Y-35253D01*
X49550Y-35356D01*
X49732Y-35392D01*
X49873Y-35392D01*
X50055Y-35356D01*
X50209Y-35253D01*
X50310Y-35102D01*
X53149Y-35102D01*
X53220Y-35088D01*
X53280Y-35048D01*
X54726Y-33602D01*
X55385Y-33602D01*
X55297Y-33735D01*
X55261Y-33917D01*
X55297Y-34099D01*
X55400Y-34253D01*
X55423Y-34269D01*
X55412Y-34276D01*
X54863Y-34825D01*
X54823Y-34886D01*
X54809Y-34956D01*
X54809Y-35261D01*
X54708Y-35219D01*
X54584Y-35219D01*
X54470Y-35266D01*
X54392Y-35344D01*
X53827Y-35344D01*
X53756Y-35358D01*
X53732Y-35374D01*
X53728Y-35377D01*
X54507Y-34598D01*
X54616Y-34599D01*
X54730Y-34551D01*
X54818Y-34464D01*
X54865Y-34350D01*
X54865Y-34227D01*
X54818Y-34112D01*
X54731Y-34025D01*
X54617Y-33978D01*
X54493Y-33978D01*
X54379Y-34025D01*
X54292Y-34112D01*
X54244Y-34226D01*
X54244Y-34336D01*
X52849Y-35731D01*
X50310Y-35731D01*
X50209Y-35581D01*
X50055Y-35478D01*
X49873Y-35441D01*
X49732Y-35441D01*
X49550Y-35478D01*
X49396Y-35581D01*
X49293Y-35735D01*
X49257Y-35917D01*
X49293Y-36099D01*
X49396Y-36253D01*
X49550Y-36356D01*
X49732Y-36392D01*
X49873Y-36392D01*
X50055Y-36356D01*
X50209Y-36253D01*
X50310Y-36102D01*
X52926Y-36102D01*
X52997Y-36088D01*
X53025Y-36070D01*
X52712Y-36382D01*
X52710Y-36378D01*
X52672Y-36340D01*
X52622Y-36319D01*
X52568Y-36319D01*
X51888Y-36319D01*
X51839Y-36340D01*
X51801Y-36378D01*
X51780Y-36428D01*
X51780Y-36482D01*
X51780Y-37162D01*
X51801Y-37211D01*
X51839Y-37250D01*
X51888Y-37270D01*
X51942Y-37270D01*
X52622Y-37270D01*
X52672Y-37250D01*
X52710Y-37211D01*
X52731Y-37162D01*
X52731Y-37108D01*
X52731Y-36980D01*
X52746Y-36980D01*
X52812Y-36967D01*
X52816Y-36986D01*
X52919Y-37140D01*
X53070Y-37241D01*
X53070Y-37349D01*
X52919Y-37449D01*
X52816Y-37604D01*
X52780Y-37785D01*
X52780Y-37804D01*
X52816Y-37986D01*
X52905Y-38119D01*
X52606Y-38119D01*
X52695Y-37986D01*
X52731Y-37804D01*
X52731Y-37785D01*
X52695Y-37604D01*
X52592Y-37449D01*
X52437Y-37346D01*
X52255Y-37310D01*
X52073Y-37346D01*
X51919Y-37449D01*
X51816Y-37604D01*
X51815Y-37609D01*
X51765Y-37609D01*
X51694Y-37623D01*
X51634Y-37664D01*
X51566Y-37731D01*
X50310Y-37731D01*
X50209Y-37581D01*
X50055Y-37478D01*
X49873Y-37441D01*
X49732Y-37441D01*
X49550Y-37478D01*
X49438Y-37553D01*
X49438Y-37281D01*
X49550Y-37356D01*
X49732Y-37392D01*
X49873Y-37392D01*
X50055Y-37356D01*
X50209Y-37253D01*
X50312Y-37099D01*
X50349Y-36917D01*
X50312Y-36735D01*
X50209Y-36581D01*
X50055Y-36478D01*
X49873Y-36441D01*
X49732Y-36441D01*
X49550Y-36478D01*
X49437Y-36553D01*
X49424Y-36489D01*
X49384Y-36429D01*
X48494Y-35540D01*
X48434Y-35500D01*
X48363Y-35485D01*
X48187Y-35485D01*
X48187Y-35192D01*
X48187Y-35139D01*
X48187Y-34988D01*
X48187Y-34893D01*
X48187Y-34742D01*
X48187Y-34689D01*
X48185Y-34684D01*
X48185Y-34298D01*
X48185Y-33610D01*
X48185Y-33516D01*
X48185Y-32828D01*
X48164Y-32778D01*
X48127Y-32741D01*
X48077Y-32720D01*
X48024Y-32720D01*
X47783Y-32720D01*
X47750Y-32754D01*
X47750Y-33549D01*
X48151Y-33549D01*
X48185Y-33516D01*
X48185Y-33610D01*
X48151Y-33577D01*
X47750Y-33577D01*
X47750Y-34372D01*
X47783Y-34405D01*
X48024Y-34405D01*
X48077Y-34405D01*
X48127Y-34385D01*
X48164Y-34347D01*
X48185Y-34298D01*
X48185Y-34684D01*
X48166Y-34640D01*
X48129Y-34602D01*
X48079Y-34582D01*
X47975Y-34582D01*
X47942Y-34615D01*
X47942Y-34927D01*
X48153Y-34927D01*
X48187Y-34893D01*
X48187Y-34988D01*
X48153Y-34954D01*
X47942Y-34954D01*
X47942Y-35266D01*
X47975Y-35299D01*
X48079Y-35299D01*
X48129Y-35279D01*
X48166Y-35241D01*
X48187Y-35192D01*
X48187Y-35485D01*
X47914Y-35485D01*
X47914Y-35266D01*
X47914Y-34954D01*
X47914Y-34927D01*
X47914Y-34615D01*
X47881Y-34582D01*
X47776Y-34582D01*
X47727Y-34602D01*
X47722Y-34607D01*
X47722Y-34372D01*
X47722Y-33577D01*
X47722Y-33549D01*
X47722Y-32754D01*
X47688Y-32720D01*
X47447Y-32720D01*
X47394Y-32720D01*
X47345Y-32741D01*
X47307Y-32778D01*
X47287Y-32828D01*
X47287Y-33516D01*
X47320Y-33549D01*
X47722Y-33549D01*
X47722Y-33577D01*
X47320Y-33577D01*
X47287Y-33610D01*
X47287Y-34298D01*
X47307Y-34347D01*
X47345Y-34385D01*
X47394Y-34405D01*
X47447Y-34405D01*
X47688Y-34405D01*
X47722Y-34372D01*
X47722Y-34607D01*
X47689Y-34640D01*
X47669Y-34689D01*
X47669Y-34742D01*
X47669Y-34893D01*
X47702Y-34927D01*
X47914Y-34927D01*
X47914Y-34954D01*
X47702Y-34954D01*
X47669Y-34988D01*
X47669Y-35139D01*
X47669Y-35192D01*
X47689Y-35241D01*
X47727Y-35279D01*
X47776Y-35299D01*
X47881Y-35299D01*
X47914Y-35266D01*
X47914Y-35485D01*
X47507Y-35485D01*
X47469Y-35485D01*
X47262Y-35279D01*
X47262Y-35266D01*
X47296Y-35299D01*
X47400Y-35299D01*
X47449Y-35279D01*
X47487Y-35241D01*
X47507Y-35192D01*
X47507Y-35139D01*
X47507Y-34988D01*
X47507Y-34893D01*
X47507Y-34742D01*
X47507Y-34689D01*
X47487Y-34640D01*
X47449Y-34602D01*
X47400Y-34582D01*
X47296Y-34582D01*
X47262Y-34615D01*
X47262Y-34927D01*
X47474Y-34927D01*
X47507Y-34893D01*
X47507Y-34988D01*
X47474Y-34954D01*
X47262Y-34954D01*
X47262Y-34962D01*
X47235Y-34962D01*
X47235Y-34954D01*
X47227Y-34954D01*
X47227Y-34927D01*
X47235Y-34927D01*
X47235Y-34615D01*
X47201Y-34582D01*
X47136Y-34582D01*
X47136Y-34495D01*
X47213Y-34418D01*
X47261Y-34304D01*
X47261Y-34180D01*
X47214Y-34066D01*
X47126Y-33979D01*
X47012Y-33931D01*
X46889Y-33931D01*
X46775Y-33978D01*
X46687Y-34066D01*
X46640Y-34180D01*
X46640Y-34303D01*
X46687Y-34417D01*
X46765Y-34495D01*
X46765Y-34580D01*
X46746Y-34580D01*
X46496Y-34580D01*
X46447Y-34601D01*
X46409Y-34639D01*
X46388Y-34689D01*
X46388Y-34742D01*
X46388Y-35192D01*
X46409Y-35242D01*
X46447Y-35280D01*
X46463Y-35287D01*
X46463Y-35652D01*
X46477Y-35723D01*
X46517Y-35783D01*
X46560Y-35826D01*
X46538Y-35848D01*
X46517Y-35898D01*
X46517Y-35952D01*
X46517Y-36361D01*
X46417Y-36361D01*
X44975Y-34920D01*
X44915Y-34879D01*
X44911Y-34879D01*
X44911Y-33560D01*
X44911Y-33368D01*
X44885Y-33275D01*
X44775Y-33101D01*
X44607Y-32982D01*
X44406Y-32936D01*
X44206Y-32936D01*
X44206Y-33450D01*
X44886Y-33450D01*
X44911Y-33368D01*
X44911Y-33560D01*
X44886Y-33478D01*
X44206Y-33478D01*
X44206Y-33991D01*
X44406Y-33991D01*
X44607Y-33946D01*
X44775Y-33827D01*
X44885Y-33653D01*
X44911Y-33560D01*
X44911Y-34879D01*
X44844Y-34865D01*
X44179Y-34865D01*
X44179Y-33991D01*
X44179Y-33478D01*
X44179Y-33450D01*
X44179Y-32936D01*
X43979Y-32936D01*
X43778Y-32982D01*
X43610Y-33101D01*
X43500Y-33275D01*
X43474Y-33368D01*
X43499Y-33450D01*
X44179Y-33450D01*
X44179Y-33478D01*
X43499Y-33478D01*
X43474Y-33560D01*
X43500Y-33653D01*
X43610Y-33827D01*
X43778Y-33946D01*
X43979Y-33991D01*
X44179Y-33991D01*
X44179Y-34865D01*
X42709Y-34865D01*
X42638Y-34879D01*
X42578Y-34920D01*
X42153Y-35344D01*
X42153Y-31311D01*
X42251Y-30821D01*
X42521Y-30415D01*
X42927Y-30144D01*
X43417Y-30047D01*
X68294Y-30047D01*
X68785Y-30144D01*
X69190Y-30415D01*
X69461Y-30821D01*
X69559Y-31311D01*
X69559Y-45460D01*
X69559Y-45460D01*
G37*
G54D28*
X69559Y-45460D02*
X69461Y-45950D01*
X69190Y-46355D01*
X68785Y-46626D01*
X68521Y-46679D01*
X68521Y-45184D01*
X68521Y-45130D01*
X68521Y-43791D01*
X68521Y-32979D01*
X68521Y-32926D01*
X68521Y-31587D01*
X68500Y-31537D01*
X68462Y-31499D01*
X68412Y-31478D01*
X68359Y-31478D01*
X67020Y-31478D01*
X66970Y-31499D01*
X66932Y-31537D01*
X66911Y-31587D01*
X66911Y-31640D01*
X66911Y-32979D01*
X66932Y-33029D01*
X66970Y-33067D01*
X67020Y-33088D01*
X67073Y-33088D01*
X68412Y-33088D01*
X68462Y-33067D01*
X68500Y-33029D01*
X68521Y-32979D01*
X68521Y-43791D01*
X68500Y-43741D01*
X68462Y-43703D01*
X68412Y-43683D01*
X68359Y-43683D01*
X68055Y-43683D01*
X68055Y-40449D01*
X68055Y-40395D01*
X68055Y-39715D01*
X68034Y-39665D01*
X67996Y-39627D01*
X67946Y-39607D01*
X67892Y-39607D01*
X67092Y-39607D01*
X67042Y-39627D01*
X67004Y-39665D01*
X66984Y-39715D01*
X66984Y-39769D01*
X66984Y-40449D01*
X67004Y-40499D01*
X67042Y-40537D01*
X67092Y-40558D01*
X67146Y-40558D01*
X67946Y-40558D01*
X67996Y-40537D01*
X68034Y-40499D01*
X68055Y-40449D01*
X68055Y-43683D01*
X67020Y-43683D01*
X66970Y-43703D01*
X66932Y-43741D01*
X66911Y-43791D01*
X66911Y-43845D01*
X66911Y-45184D01*
X66932Y-45234D01*
X66970Y-45272D01*
X67020Y-45293D01*
X67073Y-45293D01*
X68412Y-45293D01*
X68462Y-45272D01*
X68500Y-45234D01*
X68521Y-45184D01*
X68521Y-46679D01*
X68294Y-46724D01*
X68148Y-46724D01*
X68148Y-45927D01*
X64725Y-45927D01*
X64725Y-46724D01*
X64620Y-46724D01*
X64620Y-44527D01*
X64620Y-43527D01*
X64620Y-42527D01*
X64620Y-41527D01*
X64620Y-40527D01*
X64600Y-40425D01*
X64600Y-39615D01*
X64574Y-39541D01*
X64088Y-39541D01*
X64088Y-40001D01*
X64148Y-40001D01*
X64328Y-39960D01*
X64479Y-39852D01*
X64577Y-39696D01*
X64600Y-39615D01*
X64600Y-40425D01*
X64584Y-40345D01*
X64481Y-40191D01*
X64327Y-40088D01*
X64145Y-40052D01*
X64061Y-40052D01*
X64061Y-40001D01*
X64061Y-39541D01*
X63574Y-39541D01*
X63549Y-39615D01*
X63571Y-39696D01*
X63669Y-39852D01*
X63820Y-39960D01*
X64001Y-40001D01*
X64061Y-40001D01*
X64061Y-40052D01*
X64004Y-40052D01*
X63822Y-40088D01*
X63668Y-40191D01*
X63565Y-40345D01*
X63528Y-40527D01*
X63565Y-40709D01*
X63668Y-40863D01*
X63822Y-40966D01*
X64004Y-41002D01*
X64145Y-41002D01*
X64327Y-40966D01*
X64481Y-40863D01*
X64584Y-40709D01*
X64620Y-40527D01*
X64620Y-41527D01*
X64584Y-41345D01*
X64481Y-41191D01*
X64327Y-41088D01*
X64145Y-41052D01*
X64004Y-41052D01*
X63822Y-41088D01*
X63668Y-41191D01*
X63565Y-41345D01*
X63528Y-41527D01*
X63565Y-41709D01*
X63668Y-41863D01*
X63822Y-41966D01*
X64004Y-42002D01*
X64145Y-42002D01*
X64327Y-41966D01*
X64481Y-41863D01*
X64584Y-41709D01*
X64620Y-41527D01*
X64620Y-42527D01*
X64584Y-42345D01*
X64481Y-42191D01*
X64327Y-42088D01*
X64145Y-42052D01*
X64004Y-42052D01*
X63822Y-42088D01*
X63668Y-42191D01*
X63565Y-42345D01*
X63528Y-42527D01*
X63565Y-42709D01*
X63668Y-42863D01*
X63822Y-42966D01*
X64004Y-43002D01*
X64145Y-43002D01*
X64327Y-42966D01*
X64481Y-42863D01*
X64584Y-42709D01*
X64620Y-42527D01*
X64620Y-43527D01*
X64584Y-43345D01*
X64481Y-43191D01*
X64327Y-43088D01*
X64145Y-43052D01*
X64004Y-43052D01*
X63822Y-43088D01*
X63668Y-43191D01*
X63565Y-43345D01*
X63528Y-43527D01*
X63565Y-43709D01*
X63668Y-43863D01*
X63822Y-43966D01*
X64004Y-44002D01*
X64145Y-44002D01*
X64327Y-43966D01*
X64481Y-43863D01*
X64584Y-43709D01*
X64620Y-43527D01*
X64620Y-44527D01*
X64584Y-44345D01*
X64481Y-44191D01*
X64327Y-44088D01*
X64145Y-44052D01*
X64004Y-44052D01*
X63822Y-44088D01*
X63668Y-44191D01*
X63565Y-44345D01*
X63528Y-44527D01*
X63565Y-44709D01*
X63668Y-44863D01*
X63822Y-44966D01*
X64004Y-45002D01*
X64145Y-45002D01*
X64327Y-44966D01*
X64481Y-44863D01*
X64584Y-44709D01*
X64620Y-44527D01*
X64620Y-46724D01*
X64600Y-46724D01*
X64600Y-45615D01*
X64600Y-45439D01*
X64577Y-45358D01*
X64479Y-45202D01*
X64328Y-45095D01*
X64148Y-45053D01*
X64088Y-45053D01*
X64088Y-45513D01*
X64574Y-45513D01*
X64600Y-45439D01*
X64600Y-45615D01*
X64574Y-45541D01*
X64088Y-45541D01*
X64088Y-46001D01*
X64148Y-46001D01*
X64328Y-45960D01*
X64479Y-45852D01*
X64577Y-45696D01*
X64600Y-45615D01*
X64600Y-46724D01*
X64061Y-46724D01*
X64061Y-46001D01*
X64061Y-45541D01*
X64061Y-45513D01*
X64061Y-45053D01*
X64001Y-45053D01*
X63820Y-45095D01*
X63669Y-45202D01*
X63571Y-45358D01*
X63549Y-45439D01*
X63574Y-45513D01*
X64061Y-45513D01*
X64061Y-45541D01*
X63574Y-45541D01*
X63549Y-45615D01*
X63571Y-45696D01*
X63669Y-45852D01*
X63820Y-45960D01*
X64001Y-46001D01*
X64061Y-46001D01*
X64061Y-46724D01*
X44936Y-46724D01*
X44936Y-45669D01*
X44895Y-45466D01*
X44781Y-45295D01*
X44609Y-45180D01*
X44407Y-45140D01*
X43978Y-45140D01*
X43776Y-45180D01*
X43604Y-45295D01*
X43489Y-45466D01*
X43449Y-45669D01*
X43489Y-45871D01*
X43604Y-46043D01*
X43776Y-46157D01*
X43978Y-46197D01*
X44407Y-46197D01*
X44609Y-46157D01*
X44781Y-46043D01*
X44895Y-45871D01*
X44936Y-45669D01*
X44936Y-46724D01*
X43417Y-46724D01*
X42927Y-46626D01*
X42521Y-46355D01*
X42251Y-45950D01*
X42153Y-45460D01*
X42153Y-41380D01*
X43950Y-43177D01*
X43776Y-43212D01*
X43604Y-43327D01*
X43489Y-43498D01*
X43449Y-43701D01*
X43489Y-43903D01*
X43604Y-44075D01*
X43776Y-44189D01*
X43978Y-44229D01*
X44407Y-44229D01*
X44609Y-44189D01*
X44781Y-44075D01*
X44895Y-43903D01*
X44936Y-43701D01*
X44895Y-43498D01*
X44781Y-43327D01*
X44609Y-43212D01*
X44407Y-43172D01*
X44378Y-43172D01*
X44378Y-43157D01*
X44364Y-43086D01*
X44364Y-43086D01*
X44324Y-43026D01*
X44056Y-42758D01*
X44056Y-41056D01*
X43991Y-40897D01*
X43870Y-40776D01*
X43711Y-40710D01*
X43540Y-40710D01*
X43381Y-40776D01*
X43260Y-40897D01*
X43194Y-41055D01*
X43194Y-41227D01*
X43260Y-41385D01*
X43381Y-41506D01*
X43539Y-41572D01*
X43710Y-41572D01*
X43869Y-41507D01*
X43990Y-41386D01*
X44056Y-41227D01*
X44056Y-41056D01*
X44056Y-42758D01*
X42408Y-41111D01*
X42408Y-40107D01*
X42952Y-40651D01*
X43013Y-40691D01*
X43013Y-40691D01*
X43084Y-40705D01*
X43883Y-40705D01*
X45226Y-42048D01*
X45286Y-42088D01*
X45357Y-42102D01*
X49295Y-42102D01*
X49396Y-42253D01*
X49550Y-42356D01*
X49732Y-42392D01*
X49873Y-42392D01*
X50055Y-42356D01*
X50209Y-42253D01*
X50312Y-42099D01*
X50349Y-41917D01*
X50312Y-41735D01*
X50209Y-41581D01*
X50055Y-41478D01*
X49873Y-41441D01*
X49732Y-41441D01*
X49550Y-41478D01*
X49396Y-41581D01*
X49295Y-41731D01*
X47596Y-41731D01*
X47596Y-40409D01*
X47596Y-40355D01*
X47596Y-40204D01*
X47596Y-40110D01*
X47596Y-39959D01*
X47596Y-39905D01*
X47576Y-39856D01*
X47538Y-39819D01*
X47535Y-39817D01*
X47535Y-38707D01*
X47535Y-38654D01*
X47535Y-38492D01*
X47501Y-38458D01*
X47297Y-38458D01*
X47297Y-38781D01*
X47330Y-38815D01*
X47427Y-38815D01*
X47477Y-38794D01*
X47514Y-38756D01*
X47535Y-38707D01*
X47535Y-39817D01*
X47489Y-39798D01*
X47385Y-39798D01*
X47351Y-39832D01*
X47351Y-40143D01*
X47563Y-40143D01*
X47596Y-40110D01*
X47596Y-40204D01*
X47563Y-40171D01*
X47351Y-40171D01*
X47351Y-40482D01*
X47385Y-40516D01*
X47489Y-40516D01*
X47538Y-40495D01*
X47576Y-40458D01*
X47596Y-40409D01*
X47596Y-41731D01*
X47324Y-41731D01*
X47324Y-40482D01*
X47324Y-40171D01*
X47324Y-40143D01*
X47324Y-39832D01*
X47290Y-39798D01*
X47186Y-39798D01*
X47136Y-39819D01*
X47099Y-39856D01*
X47078Y-39905D01*
X47078Y-39959D01*
X47078Y-40110D01*
X47112Y-40143D01*
X47324Y-40143D01*
X47324Y-40171D01*
X47112Y-40171D01*
X47078Y-40204D01*
X47078Y-40355D01*
X47078Y-40409D01*
X47099Y-40458D01*
X47136Y-40495D01*
X47186Y-40516D01*
X47290Y-40516D01*
X47324Y-40482D01*
X47324Y-41731D01*
X45978Y-41731D01*
X45978Y-41056D01*
X45913Y-40897D01*
X45792Y-40776D01*
X45633Y-40710D01*
X45462Y-40710D01*
X45303Y-40776D01*
X45182Y-40897D01*
X45116Y-41055D01*
X45116Y-41227D01*
X45182Y-41385D01*
X45303Y-41506D01*
X45461Y-41572D01*
X45632Y-41572D01*
X45791Y-41507D01*
X45912Y-41386D01*
X45978Y-41227D01*
X45978Y-41056D01*
X45978Y-41731D01*
X45434Y-41731D01*
X44091Y-40389D01*
X44031Y-40349D01*
X43960Y-40334D01*
X43160Y-40334D01*
X42753Y-39927D01*
X42848Y-39927D01*
X42855Y-39938D01*
X42990Y-40073D01*
X43026Y-40097D01*
X43050Y-40113D01*
X43050Y-40113D01*
X43121Y-40127D01*
X45198Y-40127D01*
X45269Y-40113D01*
X45329Y-40073D01*
X46280Y-39122D01*
X46389Y-39122D01*
X46503Y-39075D01*
X46562Y-39016D01*
X46791Y-39016D01*
X46862Y-39002D01*
X46922Y-38962D01*
X46962Y-38902D01*
X46976Y-38831D01*
X46976Y-38799D01*
X46986Y-38795D01*
X47024Y-38757D01*
X47038Y-38723D01*
X47051Y-38756D01*
X47089Y-38794D01*
X47138Y-38815D01*
X47236Y-38815D01*
X47269Y-38781D01*
X47269Y-38458D01*
X47261Y-38458D01*
X47261Y-38431D01*
X47269Y-38431D01*
X47269Y-38423D01*
X47297Y-38423D01*
X47297Y-38431D01*
X47501Y-38431D01*
X47535Y-38397D01*
X47535Y-38244D01*
X47541Y-38244D01*
X47541Y-38708D01*
X47562Y-38757D01*
X47600Y-38795D01*
X47609Y-38799D01*
X47609Y-38831D01*
X47624Y-38902D01*
X47664Y-38962D01*
X47724Y-39002D01*
X47752Y-39008D01*
X47752Y-39782D01*
X47752Y-39810D01*
X47736Y-39817D01*
X47697Y-39855D01*
X47677Y-39905D01*
X47677Y-39959D01*
X47677Y-40409D01*
X47697Y-40459D01*
X47736Y-40497D01*
X47785Y-40517D01*
X47839Y-40517D01*
X48089Y-40517D01*
X48139Y-40497D01*
X48177Y-40459D01*
X48198Y-40409D01*
X48198Y-40405D01*
X48334Y-40541D01*
X48334Y-40541D01*
X48394Y-40581D01*
X48465Y-40595D01*
X49386Y-40595D01*
X49293Y-40735D01*
X49257Y-40917D01*
X49293Y-41099D01*
X49396Y-41253D01*
X49550Y-41356D01*
X49732Y-41392D01*
X49873Y-41392D01*
X50055Y-41356D01*
X50209Y-41253D01*
X50310Y-41102D01*
X53636Y-41102D01*
X56190Y-43656D01*
X56190Y-43656D01*
X57702Y-45168D01*
X57704Y-45169D01*
X57672Y-45191D01*
X57569Y-45345D01*
X57532Y-45527D01*
X57569Y-45709D01*
X57672Y-45863D01*
X57826Y-45966D01*
X58008Y-46002D01*
X58149Y-46002D01*
X58331Y-45966D01*
X58485Y-45863D01*
X58588Y-45709D01*
X58624Y-45527D01*
X58588Y-45345D01*
X58485Y-45191D01*
X58331Y-45088D01*
X58264Y-45074D01*
X58264Y-45037D01*
X58253Y-44982D01*
X58331Y-44966D01*
X58485Y-44863D01*
X58588Y-44709D01*
X58624Y-44527D01*
X58588Y-44345D01*
X58485Y-44191D01*
X58467Y-44179D01*
X58483Y-44168D01*
X63449Y-39203D01*
X63669Y-39203D01*
X63571Y-39358D01*
X63549Y-39439D01*
X63574Y-39513D01*
X64061Y-39513D01*
X64061Y-39505D01*
X64088Y-39505D01*
X64088Y-39513D01*
X64574Y-39513D01*
X64600Y-39439D01*
X64577Y-39358D01*
X64480Y-39203D01*
X64744Y-39203D01*
X64815Y-39189D01*
X64875Y-39148D01*
X66076Y-37948D01*
X66116Y-37887D01*
X66116Y-37887D01*
X66130Y-37816D01*
X66130Y-37802D01*
X66371Y-37802D01*
X66421Y-37781D01*
X66459Y-37743D01*
X66480Y-37693D01*
X66480Y-37639D01*
X66480Y-36959D01*
X66459Y-36910D01*
X66421Y-36871D01*
X66371Y-36851D01*
X66317Y-36851D01*
X65517Y-36851D01*
X65468Y-36871D01*
X65430Y-36910D01*
X65409Y-36959D01*
X65409Y-37013D01*
X65409Y-37693D01*
X65430Y-37743D01*
X65468Y-37781D01*
X65517Y-37802D01*
X65571Y-37802D01*
X65697Y-37802D01*
X64667Y-38832D01*
X64610Y-38832D01*
X64610Y-38160D01*
X64589Y-38110D01*
X64551Y-38072D01*
X64501Y-38052D01*
X64447Y-38052D01*
X63797Y-38052D01*
X65337Y-36512D01*
X65437Y-36512D01*
X65538Y-36662D01*
X65692Y-36766D01*
X65874Y-36802D01*
X66015Y-36802D01*
X66197Y-36766D01*
X66351Y-36662D01*
X66454Y-36508D01*
X66490Y-36326D01*
X66454Y-36144D01*
X66351Y-35990D01*
X66197Y-35887D01*
X66119Y-35872D01*
X66130Y-35816D01*
X66130Y-35779D01*
X66197Y-35766D01*
X66351Y-35662D01*
X66454Y-35508D01*
X66490Y-35326D01*
X66470Y-35224D01*
X66454Y-35144D01*
X66351Y-34990D01*
X66197Y-34887D01*
X66015Y-34851D01*
X65931Y-34851D01*
X65931Y-34800D01*
X65931Y-34340D01*
X65444Y-34340D01*
X65419Y-34414D01*
X65441Y-34495D01*
X65540Y-34652D01*
X65690Y-34759D01*
X65871Y-34800D01*
X65931Y-34800D01*
X65931Y-34851D01*
X65874Y-34851D01*
X65692Y-34887D01*
X65538Y-34990D01*
X65435Y-35144D01*
X65398Y-35326D01*
X65435Y-35508D01*
X65517Y-35631D01*
X65454Y-35631D01*
X65383Y-35645D01*
X65323Y-35685D01*
X61167Y-39842D01*
X58499Y-39842D01*
X58586Y-39712D01*
X58628Y-39712D01*
X60752Y-39712D01*
X60823Y-39698D01*
X60883Y-39658D01*
X61646Y-38895D01*
X61687Y-38835D01*
X61701Y-38764D01*
X61701Y-38749D01*
X61767Y-38749D01*
X61817Y-38728D01*
X61855Y-38690D01*
X61876Y-38640D01*
X61876Y-38587D01*
X61876Y-38352D01*
X61887Y-38344D01*
X62335Y-37896D01*
X62335Y-37896D01*
X62359Y-37860D01*
X62376Y-37836D01*
X62376Y-37836D01*
X62390Y-37765D01*
X62390Y-37086D01*
X62399Y-37082D01*
X62437Y-37044D01*
X62458Y-36995D01*
X62458Y-36941D01*
X62458Y-36784D01*
X62437Y-36734D01*
X62415Y-36712D01*
X62437Y-36690D01*
X62458Y-36641D01*
X62458Y-36587D01*
X62458Y-36430D01*
X62437Y-36380D01*
X62399Y-36342D01*
X62390Y-36338D01*
X62390Y-36091D01*
X62456Y-36091D01*
X62506Y-36071D01*
X62544Y-36033D01*
X62565Y-35983D01*
X62565Y-35929D01*
X62565Y-35679D01*
X62563Y-35675D01*
X62563Y-35383D01*
X62563Y-35278D01*
X62563Y-35184D01*
X62563Y-35079D01*
X62543Y-35030D01*
X62505Y-34993D01*
X62456Y-34972D01*
X62403Y-34972D01*
X62251Y-34972D01*
X62218Y-35006D01*
X62218Y-35217D01*
X62530Y-35217D01*
X62563Y-35184D01*
X62563Y-35278D01*
X62530Y-35245D01*
X62218Y-35245D01*
X62218Y-35456D01*
X62251Y-35490D01*
X62403Y-35490D01*
X62456Y-35490D01*
X62505Y-35469D01*
X62543Y-35432D01*
X62563Y-35383D01*
X62563Y-35675D01*
X62544Y-35629D01*
X62506Y-35591D01*
X62456Y-35571D01*
X62402Y-35571D01*
X62190Y-35571D01*
X62190Y-35456D01*
X62190Y-35245D01*
X62190Y-35217D01*
X62190Y-35006D01*
X62157Y-34972D01*
X62006Y-34972D01*
X61953Y-34972D01*
X61903Y-34993D01*
X61866Y-35030D01*
X61845Y-35079D01*
X61845Y-35184D01*
X61879Y-35217D01*
X62190Y-35217D01*
X62190Y-35245D01*
X61879Y-35245D01*
X61845Y-35278D01*
X61845Y-35383D01*
X61866Y-35432D01*
X61903Y-35469D01*
X61953Y-35490D01*
X62006Y-35490D01*
X62157Y-35490D01*
X62190Y-35456D01*
X62190Y-35571D01*
X61952Y-35571D01*
X61903Y-35591D01*
X61864Y-35629D01*
X61844Y-35679D01*
X61844Y-35733D01*
X61844Y-35983D01*
X61864Y-36033D01*
X61903Y-36071D01*
X61952Y-36091D01*
X62006Y-36091D01*
X62019Y-36091D01*
X62019Y-36338D01*
X62010Y-36342D01*
X61971Y-36380D01*
X61951Y-36430D01*
X61951Y-36484D01*
X61951Y-36641D01*
X61971Y-36690D01*
X61993Y-36712D01*
X61971Y-36734D01*
X61951Y-36784D01*
X61951Y-36838D01*
X61951Y-36995D01*
X61971Y-37044D01*
X62010Y-37082D01*
X62019Y-37086D01*
X62019Y-37688D01*
X61874Y-37833D01*
X61874Y-37737D01*
X61854Y-37688D01*
X61816Y-37650D01*
X61767Y-37630D01*
X61714Y-37630D01*
X61562Y-37630D01*
X61529Y-37663D01*
X61529Y-37875D01*
X61537Y-37875D01*
X61537Y-37902D01*
X61529Y-37902D01*
X61529Y-37910D01*
X61501Y-37910D01*
X61501Y-37902D01*
X61501Y-37875D01*
X61501Y-37663D01*
X61468Y-37630D01*
X61317Y-37630D01*
X61264Y-37630D01*
X61214Y-37650D01*
X61177Y-37688D01*
X61156Y-37737D01*
X61156Y-37841D01*
X61190Y-37875D01*
X61501Y-37875D01*
X61501Y-37902D01*
X61190Y-37902D01*
X61156Y-37936D01*
X61156Y-38040D01*
X61177Y-38089D01*
X61214Y-38127D01*
X61264Y-38147D01*
X61317Y-38147D01*
X61343Y-38147D01*
X61330Y-38213D01*
X61330Y-38228D01*
X61263Y-38228D01*
X61214Y-38249D01*
X61175Y-38287D01*
X61155Y-38337D01*
X61155Y-38390D01*
X61155Y-38640D01*
X61175Y-38690D01*
X61214Y-38728D01*
X61263Y-38749D01*
X61268Y-38749D01*
X60675Y-39342D01*
X58628Y-39342D01*
X58586Y-39342D01*
X58485Y-39191D01*
X58331Y-39088D01*
X58253Y-39072D01*
X58264Y-39017D01*
X58264Y-38980D01*
X58331Y-38966D01*
X58485Y-38863D01*
X58586Y-38712D01*
X59822Y-38712D01*
X59893Y-38698D01*
X59900Y-38694D01*
X59934Y-38728D01*
X59984Y-38749D01*
X60038Y-38749D01*
X60488Y-38749D01*
X60537Y-38728D01*
X60576Y-38690D01*
X60596Y-38640D01*
X60596Y-38587D01*
X60596Y-38337D01*
X60576Y-38287D01*
X60537Y-38249D01*
X60488Y-38228D01*
X60434Y-38228D01*
X59984Y-38228D01*
X59934Y-38249D01*
X59896Y-38287D01*
X59889Y-38303D01*
X59861Y-38303D01*
X59790Y-38317D01*
X59753Y-38342D01*
X58586Y-38342D01*
X58485Y-38191D01*
X58331Y-38088D01*
X58149Y-38052D01*
X58063Y-38052D01*
X58811Y-37303D01*
X60934Y-37303D01*
X60563Y-37674D01*
X60537Y-37649D01*
X60488Y-37628D01*
X60434Y-37628D01*
X59984Y-37628D01*
X59934Y-37649D01*
X59896Y-37687D01*
X59875Y-37737D01*
X59875Y-37790D01*
X59875Y-38040D01*
X59896Y-38090D01*
X59934Y-38128D01*
X59984Y-38149D01*
X60038Y-38149D01*
X60488Y-38149D01*
X60537Y-38128D01*
X60576Y-38090D01*
X60582Y-38074D01*
X60611Y-38074D01*
X60682Y-38060D01*
X60742Y-38020D01*
X61530Y-37231D01*
X61530Y-37231D01*
X61554Y-37195D01*
X61571Y-37171D01*
X61571Y-37171D01*
X61585Y-37100D01*
X61585Y-35641D01*
X61571Y-35570D01*
X61530Y-35510D01*
X61416Y-35396D01*
X61382Y-35373D01*
X61382Y-35278D01*
X61382Y-35184D01*
X61382Y-35079D01*
X61362Y-35030D01*
X61324Y-34993D01*
X61275Y-34972D01*
X61221Y-34972D01*
X61070Y-34972D01*
X61037Y-35006D01*
X61037Y-35217D01*
X61349Y-35217D01*
X61382Y-35184D01*
X61382Y-35278D01*
X61349Y-35245D01*
X61037Y-35245D01*
X61037Y-35253D01*
X61009Y-35253D01*
X61009Y-35245D01*
X61009Y-35217D01*
X61009Y-35006D01*
X60976Y-34972D01*
X60825Y-34972D01*
X60771Y-34972D01*
X60722Y-34993D01*
X60685Y-35030D01*
X60664Y-35079D01*
X60664Y-35184D01*
X60698Y-35217D01*
X61009Y-35217D01*
X61009Y-35245D01*
X60698Y-35245D01*
X60664Y-35278D01*
X60664Y-35342D01*
X60201Y-35342D01*
X60201Y-35278D01*
X60201Y-35184D01*
X60201Y-35079D01*
X60180Y-35030D01*
X60143Y-34993D01*
X60094Y-34972D01*
X60040Y-34972D01*
X59889Y-34972D01*
X59856Y-35006D01*
X59856Y-35217D01*
X60167Y-35217D01*
X60201Y-35184D01*
X60201Y-35278D01*
X60167Y-35245D01*
X59856Y-35245D01*
X59856Y-35253D01*
X59828Y-35253D01*
X59828Y-35245D01*
X59820Y-35245D01*
X59820Y-35217D01*
X59828Y-35217D01*
X59828Y-35006D01*
X59795Y-34972D01*
X59775Y-34972D01*
X60728Y-34019D01*
X65529Y-34019D01*
X65441Y-34158D01*
X65419Y-34239D01*
X65444Y-34312D01*
X65931Y-34312D01*
X65931Y-34305D01*
X65958Y-34305D01*
X65958Y-34312D01*
X65966Y-34312D01*
X65966Y-34340D01*
X65958Y-34340D01*
X65958Y-34800D01*
X66018Y-34800D01*
X66198Y-34759D01*
X66349Y-34652D01*
X66447Y-34495D01*
X66470Y-34414D01*
X66445Y-34340D01*
X66474Y-34340D01*
X67894Y-35759D01*
X67894Y-36735D01*
X67773Y-36650D01*
X67593Y-36608D01*
X67533Y-36608D01*
X67533Y-37068D01*
X67541Y-37068D01*
X67541Y-37096D01*
X67533Y-37096D01*
X67533Y-37556D01*
X67593Y-37556D01*
X67773Y-37515D01*
X67894Y-37429D01*
X67894Y-37445D01*
X67709Y-37630D01*
X67590Y-37607D01*
X67505Y-37607D01*
X67505Y-37556D01*
X67505Y-37096D01*
X67505Y-37068D01*
X67505Y-36608D01*
X67445Y-36608D01*
X67265Y-36650D01*
X67114Y-36757D01*
X67016Y-36914D01*
X66994Y-36994D01*
X67019Y-37068D01*
X67505Y-37068D01*
X67505Y-37096D01*
X67019Y-37096D01*
X66994Y-37170D01*
X67016Y-37251D01*
X67114Y-37408D01*
X67265Y-37515D01*
X67445Y-37556D01*
X67505Y-37556D01*
X67505Y-37607D01*
X67449Y-37607D01*
X67267Y-37643D01*
X67113Y-37746D01*
X67009Y-37900D01*
X66973Y-38082D01*
X67009Y-38264D01*
X67113Y-38418D01*
X67267Y-38521D01*
X67345Y-38537D01*
X67334Y-38592D01*
X67334Y-38630D01*
X67267Y-38643D01*
X67113Y-38746D01*
X67009Y-38900D01*
X66973Y-39082D01*
X67009Y-39264D01*
X67113Y-39418D01*
X67267Y-39521D01*
X67449Y-39558D01*
X67590Y-39558D01*
X67772Y-39521D01*
X67926Y-39418D01*
X68029Y-39264D01*
X68065Y-39082D01*
X68029Y-38900D01*
X67926Y-38746D01*
X67903Y-38730D01*
X67913Y-38723D01*
X68418Y-38219D01*
X68418Y-38219D01*
X68458Y-38159D01*
X68472Y-38088D01*
X68472Y-38088D01*
X68472Y-35607D01*
X68458Y-35536D01*
X68458Y-35536D01*
X68442Y-35512D01*
X68418Y-35476D01*
X66228Y-33286D01*
X66168Y-33246D01*
X66097Y-33231D01*
X64505Y-33231D01*
X64505Y-32202D01*
X64505Y-31773D01*
X64464Y-31571D01*
X64350Y-31399D01*
X64178Y-31285D01*
X63976Y-31244D01*
X63773Y-31285D01*
X63602Y-31399D01*
X63487Y-31571D01*
X63447Y-31773D01*
X63447Y-32202D01*
X63487Y-32404D01*
X63602Y-32576D01*
X63773Y-32691D01*
X63976Y-32731D01*
X64178Y-32691D01*
X64350Y-32576D01*
X64464Y-32404D01*
X64505Y-32202D01*
X64505Y-33231D01*
X62537Y-33231D01*
X62537Y-32202D01*
X62537Y-31773D01*
X62496Y-31571D01*
X62382Y-31399D01*
X62210Y-31285D01*
X62008Y-31244D01*
X61805Y-31285D01*
X61634Y-31399D01*
X61519Y-31571D01*
X61479Y-31773D01*
X61479Y-32202D01*
X61519Y-32404D01*
X61634Y-32576D01*
X61805Y-32691D01*
X62008Y-32731D01*
X62210Y-32691D01*
X62382Y-32576D01*
X62496Y-32404D01*
X62537Y-32202D01*
X62537Y-33231D01*
X60568Y-33231D01*
X60568Y-32202D01*
X60568Y-31773D01*
X60527Y-31571D01*
X60413Y-31399D01*
X60241Y-31285D01*
X60039Y-31244D01*
X59836Y-31285D01*
X59665Y-31399D01*
X59550Y-31571D01*
X59510Y-31773D01*
X59510Y-32202D01*
X59550Y-32404D01*
X59665Y-32576D01*
X59836Y-32691D01*
X60039Y-32731D01*
X60241Y-32691D01*
X60413Y-32576D01*
X60527Y-32404D01*
X60568Y-32202D01*
X60568Y-33231D01*
X58600Y-33231D01*
X58600Y-32202D01*
X58600Y-31773D01*
X58559Y-31571D01*
X58445Y-31399D01*
X58273Y-31285D01*
X58071Y-31244D01*
X57868Y-31285D01*
X57697Y-31399D01*
X57582Y-31571D01*
X57542Y-31773D01*
X57542Y-32202D01*
X57582Y-32404D01*
X57697Y-32576D01*
X57868Y-32691D01*
X58071Y-32731D01*
X58273Y-32691D01*
X58445Y-32576D01*
X58559Y-32404D01*
X58600Y-32202D01*
X58600Y-33231D01*
X56228Y-33231D01*
X56316Y-33099D01*
X56353Y-32917D01*
X56353Y-30917D01*
X56316Y-30735D01*
X56213Y-30581D01*
X56059Y-30478D01*
X55877Y-30441D01*
X55736Y-30441D01*
X55554Y-30478D01*
X55400Y-30581D01*
X55297Y-30735D01*
X55261Y-30917D01*
X55297Y-31099D01*
X55400Y-31253D01*
X55554Y-31356D01*
X55736Y-31392D01*
X55877Y-31392D01*
X56059Y-31356D01*
X56213Y-31253D01*
X56316Y-31099D01*
X56353Y-30917D01*
X56353Y-32917D01*
X56332Y-32815D01*
X56332Y-32005D01*
X56332Y-31829D01*
X56310Y-31748D01*
X56211Y-31591D01*
X56061Y-31484D01*
X55880Y-31443D01*
X55820Y-31443D01*
X55820Y-31903D01*
X56307Y-31903D01*
X56332Y-31829D01*
X56332Y-32005D01*
X56307Y-31931D01*
X55820Y-31931D01*
X55820Y-32391D01*
X55880Y-32391D01*
X56061Y-32349D01*
X56211Y-32242D01*
X56310Y-32085D01*
X56332Y-32005D01*
X56332Y-32815D01*
X56316Y-32735D01*
X56213Y-32581D01*
X56059Y-32478D01*
X55877Y-32441D01*
X55793Y-32441D01*
X55793Y-32391D01*
X55793Y-31931D01*
X55793Y-31903D01*
X55793Y-31443D01*
X55733Y-31443D01*
X55553Y-31484D01*
X55402Y-31591D01*
X55304Y-31748D01*
X55281Y-31829D01*
X55306Y-31903D01*
X55793Y-31903D01*
X55793Y-31931D01*
X55306Y-31931D01*
X55281Y-32005D01*
X55304Y-32085D01*
X55402Y-32242D01*
X55553Y-32349D01*
X55733Y-32391D01*
X55793Y-32391D01*
X55793Y-32441D01*
X55736Y-32441D01*
X55554Y-32478D01*
X55400Y-32581D01*
X55297Y-32735D01*
X55261Y-32917D01*
X55297Y-33099D01*
X55385Y-33231D01*
X54649Y-33231D01*
X54578Y-33246D01*
X54554Y-33262D01*
X54518Y-33286D01*
X53072Y-34731D01*
X50310Y-34731D01*
X50209Y-34581D01*
X50183Y-34563D01*
X50207Y-34548D01*
X50486Y-34268D01*
X50526Y-34208D01*
X50540Y-34137D01*
X50540Y-33713D01*
X50526Y-33642D01*
X50526Y-33642D01*
X50510Y-33618D01*
X50486Y-33582D01*
X50349Y-33444D01*
X50349Y-31917D01*
X50338Y-31864D01*
X50338Y-31284D01*
X50338Y-31230D01*
X50338Y-30550D01*
X50317Y-30500D01*
X50279Y-30462D01*
X50230Y-30441D01*
X50176Y-30441D01*
X49376Y-30441D01*
X49326Y-30462D01*
X49288Y-30500D01*
X49267Y-30550D01*
X49267Y-30604D01*
X49267Y-31284D01*
X49288Y-31334D01*
X49326Y-31372D01*
X49376Y-31392D01*
X49430Y-31392D01*
X50230Y-31392D01*
X50279Y-31372D01*
X50317Y-31334D01*
X50338Y-31284D01*
X50338Y-31864D01*
X50312Y-31735D01*
X50209Y-31581D01*
X50055Y-31478D01*
X49873Y-31441D01*
X49732Y-31441D01*
X49550Y-31478D01*
X49396Y-31581D01*
X49293Y-31735D01*
X49257Y-31917D01*
X49293Y-32099D01*
X49396Y-32253D01*
X49550Y-32356D01*
X49732Y-32392D01*
X49873Y-32392D01*
X50055Y-32356D01*
X50209Y-32253D01*
X50312Y-32099D01*
X50349Y-31917D01*
X50349Y-33444D01*
X50190Y-33286D01*
X50167Y-33271D01*
X50207Y-33242D01*
X50306Y-33085D01*
X50328Y-33005D01*
X50328Y-32829D01*
X50306Y-32748D01*
X50207Y-32591D01*
X50057Y-32484D01*
X49876Y-32443D01*
X49816Y-32443D01*
X49816Y-32903D01*
X50303Y-32903D01*
X50328Y-32829D01*
X50328Y-33005D01*
X50303Y-32931D01*
X49816Y-32931D01*
X49816Y-32938D01*
X49789Y-32938D01*
X49789Y-32931D01*
X49781Y-32931D01*
X49781Y-32903D01*
X49789Y-32903D01*
X49789Y-32443D01*
X49729Y-32443D01*
X49549Y-32484D01*
X49398Y-32591D01*
X49300Y-32748D01*
X49277Y-32829D01*
X49302Y-32903D01*
X49298Y-32903D01*
X48186Y-31791D01*
X48186Y-30661D01*
X48166Y-30612D01*
X48127Y-30574D01*
X48078Y-30553D01*
X48024Y-30553D01*
X47394Y-30553D01*
X47344Y-30574D01*
X47306Y-30612D01*
X47285Y-30661D01*
X47285Y-30715D01*
X47285Y-31211D01*
X47271Y-31211D01*
X47200Y-31226D01*
X47139Y-31266D01*
X47095Y-31310D01*
X44899Y-31310D01*
X44895Y-31293D01*
X44781Y-31122D01*
X44609Y-31007D01*
X44407Y-30967D01*
X43978Y-30967D01*
X43776Y-31007D01*
X43604Y-31122D01*
X43489Y-31293D01*
X43449Y-31496D01*
X43489Y-31698D01*
X43604Y-31870D01*
X43776Y-31984D01*
X43978Y-32025D01*
X44407Y-32025D01*
X44609Y-31984D01*
X44781Y-31870D01*
X44895Y-31698D01*
X44899Y-31681D01*
X47172Y-31681D01*
X47243Y-31667D01*
X47285Y-31639D01*
X47285Y-32132D01*
X47306Y-32182D01*
X47344Y-32220D01*
X47394Y-32241D01*
X47448Y-32241D01*
X48078Y-32241D01*
X48101Y-32231D01*
X49418Y-33548D01*
X49439Y-33562D01*
X49398Y-33591D01*
X49300Y-33748D01*
X49277Y-33829D01*
X49302Y-33903D01*
X49789Y-33903D01*
X49789Y-33895D01*
X49816Y-33895D01*
X49816Y-33903D01*
X49824Y-33903D01*
X49824Y-33931D01*
X49816Y-33931D01*
X49816Y-33938D01*
X49789Y-33938D01*
X49789Y-33931D01*
X49302Y-33931D01*
X49277Y-34005D01*
X49300Y-34085D01*
X49391Y-34231D01*
X49327Y-34231D01*
X49256Y-34246D01*
X49195Y-34286D01*
X48788Y-34693D01*
X48788Y-34689D01*
X48768Y-34639D01*
X48730Y-34601D01*
X48680Y-34580D01*
X48626Y-34580D01*
X48376Y-34580D01*
X48326Y-34601D01*
X48288Y-34639D01*
X48267Y-34689D01*
X48267Y-34742D01*
X48267Y-35192D01*
X48288Y-35242D01*
X48326Y-35280D01*
X48376Y-35301D01*
X48430Y-35301D01*
X48680Y-35301D01*
X48730Y-35280D01*
X48768Y-35242D01*
X48788Y-35192D01*
X48788Y-35139D01*
X48788Y-35126D01*
X48803Y-35126D01*
X48874Y-35112D01*
X48934Y-35072D01*
X49338Y-34668D01*
X49293Y-34735D01*
X49257Y-34917D01*
X49293Y-35099D01*
X49396Y-35253D01*
X49550Y-35356D01*
X49732Y-35392D01*
X49873Y-35392D01*
X50055Y-35356D01*
X50209Y-35253D01*
X50310Y-35102D01*
X53149Y-35102D01*
X53220Y-35088D01*
X53280Y-35048D01*
X54726Y-33602D01*
X55385Y-33602D01*
X55297Y-33735D01*
X55261Y-33917D01*
X55297Y-34099D01*
X55400Y-34253D01*
X55423Y-34269D01*
X55412Y-34276D01*
X54863Y-34825D01*
X54823Y-34886D01*
X54809Y-34956D01*
X54809Y-35261D01*
X54708Y-35219D01*
X54584Y-35219D01*
X54470Y-35266D01*
X54392Y-35344D01*
X53827Y-35344D01*
X53756Y-35358D01*
X53732Y-35374D01*
X53728Y-35377D01*
X54507Y-34598D01*
X54616Y-34599D01*
X54730Y-34551D01*
X54818Y-34464D01*
X54865Y-34350D01*
X54865Y-34227D01*
X54818Y-34112D01*
X54731Y-34025D01*
X54617Y-33978D01*
X54493Y-33978D01*
X54379Y-34025D01*
X54292Y-34112D01*
X54244Y-34226D01*
X54244Y-34336D01*
X52849Y-35731D01*
X50310Y-35731D01*
X50209Y-35581D01*
X50055Y-35478D01*
X49873Y-35441D01*
X49732Y-35441D01*
X49550Y-35478D01*
X49396Y-35581D01*
X49293Y-35735D01*
X49257Y-35917D01*
X49293Y-36099D01*
X49396Y-36253D01*
X49550Y-36356D01*
X49732Y-36392D01*
X49873Y-36392D01*
X50055Y-36356D01*
X50209Y-36253D01*
X50310Y-36102D01*
X52926Y-36102D01*
X52997Y-36088D01*
X53025Y-36070D01*
X52712Y-36382D01*
X52710Y-36378D01*
X52672Y-36340D01*
X52622Y-36319D01*
X52568Y-36319D01*
X51888Y-36319D01*
X51839Y-36340D01*
X51801Y-36378D01*
X51780Y-36428D01*
X51780Y-36482D01*
X51780Y-37162D01*
X51801Y-37211D01*
X51839Y-37250D01*
X51888Y-37270D01*
X51942Y-37270D01*
X52622Y-37270D01*
X52672Y-37250D01*
X52710Y-37211D01*
X52731Y-37162D01*
X52731Y-37108D01*
X52731Y-36980D01*
X52746Y-36980D01*
X52812Y-36967D01*
X52816Y-36986D01*
X52919Y-37140D01*
X53070Y-37241D01*
X53070Y-37349D01*
X52919Y-37449D01*
X52816Y-37604D01*
X52780Y-37785D01*
X52780Y-37804D01*
X52816Y-37986D01*
X52905Y-38119D01*
X52606Y-38119D01*
X52695Y-37986D01*
X52731Y-37804D01*
X52731Y-37785D01*
X52695Y-37604D01*
X52592Y-37449D01*
X52437Y-37346D01*
X52255Y-37310D01*
X52073Y-37346D01*
X51919Y-37449D01*
X51816Y-37604D01*
X51815Y-37609D01*
X51765Y-37609D01*
X51694Y-37623D01*
X51634Y-37664D01*
X51566Y-37731D01*
X50310Y-37731D01*
X50209Y-37581D01*
X50055Y-37478D01*
X49873Y-37441D01*
X49732Y-37441D01*
X49550Y-37478D01*
X49438Y-37553D01*
X49438Y-37281D01*
X49550Y-37356D01*
X49732Y-37392D01*
X49873Y-37392D01*
X50055Y-37356D01*
X50209Y-37253D01*
X50312Y-37099D01*
X50349Y-36917D01*
X50312Y-36735D01*
X50209Y-36581D01*
X50055Y-36478D01*
X49873Y-36441D01*
X49732Y-36441D01*
X49550Y-36478D01*
X49437Y-36553D01*
X49424Y-36489D01*
X49384Y-36429D01*
X48494Y-35540D01*
X48434Y-35500D01*
X48363Y-35485D01*
X48187Y-35485D01*
X48187Y-35192D01*
X48187Y-35139D01*
X48187Y-34988D01*
X48187Y-34893D01*
X48187Y-34742D01*
X48187Y-34689D01*
X48185Y-34684D01*
X48185Y-34298D01*
X48185Y-33610D01*
X48185Y-33516D01*
X48185Y-32828D01*
X48164Y-32778D01*
X48127Y-32741D01*
X48077Y-32720D01*
X48024Y-32720D01*
X47783Y-32720D01*
X47750Y-32754D01*
X47750Y-33549D01*
X48151Y-33549D01*
X48185Y-33516D01*
X48185Y-33610D01*
X48151Y-33577D01*
X47750Y-33577D01*
X47750Y-34372D01*
X47783Y-34405D01*
X48024Y-34405D01*
X48077Y-34405D01*
X48127Y-34385D01*
X48164Y-34347D01*
X48185Y-34298D01*
X48185Y-34684D01*
X48166Y-34640D01*
X48129Y-34602D01*
X48079Y-34582D01*
X47975Y-34582D01*
X47942Y-34615D01*
X47942Y-34927D01*
X48153Y-34927D01*
X48187Y-34893D01*
X48187Y-34988D01*
X48153Y-34954D01*
X47942Y-34954D01*
X47942Y-35266D01*
X47975Y-35299D01*
X48079Y-35299D01*
X48129Y-35279D01*
X48166Y-35241D01*
X48187Y-35192D01*
X48187Y-35485D01*
X47914Y-35485D01*
X47914Y-35266D01*
X47914Y-34954D01*
X47914Y-34927D01*
X47914Y-34615D01*
X47881Y-34582D01*
X47776Y-34582D01*
X47727Y-34602D01*
X47722Y-34607D01*
X47722Y-34372D01*
X47722Y-33577D01*
X47722Y-33549D01*
X47722Y-32754D01*
X47688Y-32720D01*
X47447Y-32720D01*
X47394Y-32720D01*
X47345Y-32741D01*
X47307Y-32778D01*
X47287Y-32828D01*
X47287Y-33516D01*
X47320Y-33549D01*
X47722Y-33549D01*
X47722Y-33577D01*
X47320Y-33577D01*
X47287Y-33610D01*
X47287Y-34298D01*
X47307Y-34347D01*
X47345Y-34385D01*
X47394Y-34405D01*
X47447Y-34405D01*
X47688Y-34405D01*
X47722Y-34372D01*
X47722Y-34607D01*
X47689Y-34640D01*
X47669Y-34689D01*
X47669Y-34742D01*
X47669Y-34893D01*
X47702Y-34927D01*
X47914Y-34927D01*
X47914Y-34954D01*
X47702Y-34954D01*
X47669Y-34988D01*
X47669Y-35139D01*
X47669Y-35192D01*
X47689Y-35241D01*
X47727Y-35279D01*
X47776Y-35299D01*
X47881Y-35299D01*
X47914Y-35266D01*
X47914Y-35485D01*
X47507Y-35485D01*
X47469Y-35485D01*
X47262Y-35279D01*
X47262Y-35266D01*
X47296Y-35299D01*
X47400Y-35299D01*
X47449Y-35279D01*
X47487Y-35241D01*
X47507Y-35192D01*
X47507Y-35139D01*
X47507Y-34988D01*
X47507Y-34893D01*
X47507Y-34742D01*
X47507Y-34689D01*
X47487Y-34640D01*
X47449Y-34602D01*
X47400Y-34582D01*
X47296Y-34582D01*
X47262Y-34615D01*
X47262Y-34927D01*
X47474Y-34927D01*
X47507Y-34893D01*
X47507Y-34988D01*
X47474Y-34954D01*
X47262Y-34954D01*
X47262Y-34962D01*
X47235Y-34962D01*
X47235Y-34954D01*
X47227Y-34954D01*
X47227Y-34927D01*
X47235Y-34927D01*
X47235Y-34615D01*
X47201Y-34582D01*
X47136Y-34582D01*
X47136Y-34495D01*
X47213Y-34418D01*
X47261Y-34304D01*
X47261Y-34180D01*
X47214Y-34066D01*
X47126Y-33979D01*
X47012Y-33931D01*
X46889Y-33931D01*
X46775Y-33978D01*
X46687Y-34066D01*
X46640Y-34180D01*
X46640Y-34303D01*
X46687Y-34417D01*
X46765Y-34495D01*
X46765Y-34580D01*
X46746Y-34580D01*
X46496Y-34580D01*
X46447Y-34601D01*
X46409Y-34639D01*
X46388Y-34689D01*
X46388Y-34742D01*
X46388Y-35192D01*
X46409Y-35242D01*
X46447Y-35280D01*
X46463Y-35287D01*
X46463Y-35652D01*
X46477Y-35723D01*
X46517Y-35783D01*
X46560Y-35826D01*
X46538Y-35848D01*
X46517Y-35898D01*
X46517Y-35952D01*
X46517Y-36361D01*
X46417Y-36361D01*
X44975Y-34920D01*
X44915Y-34879D01*
X44911Y-34879D01*
X44911Y-33560D01*
X44911Y-33368D01*
X44885Y-33275D01*
X44775Y-33101D01*
X44607Y-32982D01*
X44406Y-32936D01*
X44206Y-32936D01*
X44206Y-33450D01*
X44886Y-33450D01*
X44911Y-33368D01*
X44911Y-33560D01*
X44886Y-33478D01*
X44206Y-33478D01*
X44206Y-33991D01*
X44406Y-33991D01*
X44607Y-33946D01*
X44775Y-33827D01*
X44885Y-33653D01*
X44911Y-33560D01*
X44911Y-34879D01*
X44844Y-34865D01*
X44179Y-34865D01*
X44179Y-33991D01*
X44179Y-33478D01*
X44179Y-33450D01*
X44179Y-32936D01*
X43979Y-32936D01*
X43778Y-32982D01*
X43610Y-33101D01*
X43500Y-33275D01*
X43474Y-33368D01*
X43499Y-33450D01*
X44179Y-33450D01*
X44179Y-33478D01*
X43499Y-33478D01*
X43474Y-33560D01*
X43500Y-33653D01*
X43610Y-33827D01*
X43778Y-33946D01*
X43979Y-33991D01*
X44179Y-33991D01*
X44179Y-34865D01*
X42709Y-34865D01*
X42638Y-34879D01*
X42578Y-34920D01*
X42153Y-35344D01*
X42153Y-31311D01*
X42251Y-30821D01*
X42521Y-30415D01*
X42927Y-30144D01*
X43417Y-30047D01*
X68294Y-30047D01*
X68785Y-30144D01*
X69190Y-30415D01*
X69461Y-30821D01*
X69559Y-31311D01*
X69559Y-45460D01*
M02*
