%FSLAX34Y34*%
G04 Gerber Fmt 3.4, Leading zero omitted, Abs format*
G04 (created by PCBNEW (2014-03-19 BZR 4756)-product) date Thu 12 Jun 2014 23:18:30 BST*
%MOIN*%
G01*
G70*
G90*
G04 APERTURE LIST*
%ADD10C,0.005906*%
%ADD11R,0.015700X0.023600*%
%ADD12R,0.025000X0.045000*%
%ADD13R,0.023600X0.015700*%
%ADD14O,0.078700X0.118700*%
%ADD15O,0.118700X0.078700*%
%ADD16R,0.080000X0.068000*%
%ADD17O,0.080000X0.068000*%
%ADD18R,0.023600X0.047200*%
%ADD19R,0.068000X0.068000*%
%ADD20O,0.068000X0.068000*%
%ADD21C,0.059100*%
%ADD22R,0.133900X0.133900*%
G04 APERTURE END LIST*
G54D10*
G54D11*
X46574Y-34645D03*
X46928Y-34645D03*
G54D12*
X45172Y-35925D03*
X45772Y-35925D03*
G54D13*
X45570Y-42893D03*
X45570Y-42539D03*
X43602Y-42893D03*
X43602Y-42539D03*
G54D14*
X60039Y-31988D03*
X58071Y-31988D03*
G54D15*
X44192Y-31496D03*
X44192Y-33464D03*
G54D16*
X65944Y-37326D03*
G54D17*
X65944Y-36326D03*
X65944Y-35326D03*
X65944Y-34326D03*
G54D16*
X67519Y-40082D03*
G54D17*
X67519Y-39082D03*
X67519Y-38082D03*
X67519Y-37082D03*
G54D15*
X44192Y-43701D03*
X44192Y-45669D03*
G54D14*
X63976Y-31988D03*
X62008Y-31988D03*
G54D12*
X45172Y-34744D03*
X45772Y-34744D03*
X47248Y-35925D03*
X46648Y-35925D03*
G54D18*
X45807Y-31436D03*
X46299Y-31436D03*
X46811Y-31436D03*
X47303Y-31436D03*
X47303Y-33720D03*
X46811Y-33720D03*
X46299Y-33720D03*
X45787Y-33720D03*
G54D17*
X58078Y-45527D03*
X58078Y-44527D03*
X58078Y-43527D03*
X58078Y-42527D03*
X58078Y-41527D03*
X58078Y-40527D03*
X58078Y-39527D03*
X58078Y-38527D03*
G54D16*
X64074Y-38527D03*
G54D17*
X64074Y-39527D03*
X64074Y-40527D03*
X64074Y-41527D03*
X64074Y-42527D03*
X64074Y-43527D03*
X64074Y-44527D03*
X64074Y-45527D03*
G54D19*
X52255Y-36795D03*
G54D20*
X53255Y-36795D03*
X52255Y-37795D03*
X53255Y-37795D03*
X52255Y-38795D03*
X53255Y-38795D03*
G54D17*
X49803Y-41917D03*
X49803Y-40917D03*
X49803Y-39917D03*
X49803Y-38917D03*
X49803Y-37917D03*
X49803Y-36917D03*
X49803Y-35917D03*
X49803Y-34917D03*
X49803Y-33917D03*
X49803Y-32917D03*
X49803Y-31917D03*
G54D16*
X49803Y-30917D03*
G54D17*
X55807Y-30917D03*
X55807Y-31917D03*
X55807Y-32917D03*
X55807Y-33917D03*
X55807Y-34917D03*
X55807Y-35917D03*
X55807Y-36917D03*
X55807Y-37917D03*
X55807Y-38917D03*
X55807Y-39917D03*
X55807Y-40917D03*
X55807Y-41917D03*
G54D10*
G36*
X44035Y-37283D02*
X43917Y-37283D01*
X43917Y-36654D01*
X44035Y-36654D01*
X44035Y-37283D01*
X44035Y-37283D01*
G37*
G36*
X44261Y-37283D02*
X44143Y-37283D01*
X44143Y-36654D01*
X44261Y-36654D01*
X44261Y-37283D01*
X44261Y-37283D01*
G37*
G36*
X44517Y-37283D02*
X44399Y-37283D01*
X44399Y-36654D01*
X44517Y-36654D01*
X44517Y-37283D01*
X44517Y-37283D01*
G37*
G36*
X44773Y-37283D02*
X44655Y-37283D01*
X44655Y-36654D01*
X44773Y-36654D01*
X44773Y-37283D01*
X44773Y-37283D01*
G37*
G36*
X45029Y-37283D02*
X44911Y-37283D01*
X44911Y-36654D01*
X45029Y-36654D01*
X45029Y-37283D01*
X45029Y-37283D01*
G37*
G36*
X45285Y-37283D02*
X45167Y-37283D01*
X45167Y-36654D01*
X45285Y-36654D01*
X45285Y-37283D01*
X45285Y-37283D01*
G37*
G36*
X46309Y-39723D02*
X46191Y-39723D01*
X46191Y-39094D01*
X46309Y-39094D01*
X46309Y-39723D01*
X46309Y-39723D01*
G37*
G36*
X46053Y-39723D02*
X45935Y-39723D01*
X45935Y-39094D01*
X46053Y-39094D01*
X46053Y-39723D01*
X46053Y-39723D01*
G37*
G36*
X45797Y-39723D02*
X45679Y-39723D01*
X45679Y-39094D01*
X45797Y-39094D01*
X45797Y-39723D01*
X45797Y-39723D01*
G37*
G36*
X45541Y-39723D02*
X45423Y-39723D01*
X45423Y-39094D01*
X45541Y-39094D01*
X45541Y-39723D01*
X45541Y-39723D01*
G37*
G36*
X45541Y-37283D02*
X45423Y-37283D01*
X45423Y-36654D01*
X45541Y-36654D01*
X45541Y-37283D01*
X45541Y-37283D01*
G37*
G36*
X45797Y-37283D02*
X45679Y-37283D01*
X45679Y-36654D01*
X45797Y-36654D01*
X45797Y-37283D01*
X45797Y-37283D01*
G37*
G36*
X46053Y-37283D02*
X45935Y-37283D01*
X45935Y-36654D01*
X46053Y-36654D01*
X46053Y-37283D01*
X46053Y-37283D01*
G37*
G36*
X46309Y-37283D02*
X46191Y-37283D01*
X46191Y-36654D01*
X46309Y-36654D01*
X46309Y-37283D01*
X46309Y-37283D01*
G37*
G36*
X45285Y-39723D02*
X45167Y-39723D01*
X45167Y-39094D01*
X45285Y-39094D01*
X45285Y-39723D01*
X45285Y-39723D01*
G37*
G36*
X45029Y-39723D02*
X44911Y-39723D01*
X44911Y-39094D01*
X45029Y-39094D01*
X45029Y-39723D01*
X45029Y-39723D01*
G37*
G36*
X44773Y-39723D02*
X44655Y-39723D01*
X44655Y-39094D01*
X44773Y-39094D01*
X44773Y-39723D01*
X44773Y-39723D01*
G37*
G36*
X44517Y-39723D02*
X44399Y-39723D01*
X44399Y-39094D01*
X44517Y-39094D01*
X44517Y-39723D01*
X44517Y-39723D01*
G37*
G36*
X44261Y-39723D02*
X44143Y-39723D01*
X44143Y-39094D01*
X44261Y-39094D01*
X44261Y-39723D01*
X44261Y-39723D01*
G37*
G36*
X44005Y-39723D02*
X43887Y-39723D01*
X43887Y-39094D01*
X44005Y-39094D01*
X44005Y-39723D01*
X44005Y-39723D01*
G37*
G54D21*
X45547Y-41141D03*
X43625Y-41141D03*
G54D22*
X67716Y-32283D03*
X67716Y-44488D03*
M02*
