%FSLAX34Y34*%
G04 Gerber Fmt 3.4, Leading zero omitted, Abs format*
G04 (created by PCBNEW (2014-03-19 BZR 4756)-product) date Thu 12 Jun 2014 23:18:30 BST*
%MOIN*%
G01*
G70*
G90*
G04 APERTURE LIST*
%ADD10C,0.005906*%
%ADD11C,0.009843*%
%ADD12R,0.025000X0.045000*%
%ADD13R,0.063000X0.141700*%
%ADD14R,0.045000X0.025000*%
%ADD15R,0.080000X0.068000*%
%ADD16O,0.080000X0.068000*%
%ADD17R,0.023600X0.015700*%
%ADD18R,0.015700X0.023600*%
%ADD19R,0.068000X0.068000*%
%ADD20O,0.068000X0.068000*%
%ADD21R,0.023600X0.047200*%
%ADD22C,0.059100*%
%ADD23R,0.133900X0.133900*%
G04 APERTURE END LIST*
G54D10*
G54D11*
X65180Y-46634D02*
X64955Y-46634D01*
X65068Y-46634D02*
X65068Y-46241D01*
X65030Y-46297D01*
X64993Y-46334D01*
X64955Y-46353D01*
X65424Y-46241D02*
X65462Y-46241D01*
X65499Y-46259D01*
X65518Y-46278D01*
X65537Y-46316D01*
X65555Y-46391D01*
X65555Y-46484D01*
X65537Y-46559D01*
X65518Y-46597D01*
X65499Y-46616D01*
X65462Y-46634D01*
X65424Y-46634D01*
X65387Y-46616D01*
X65368Y-46597D01*
X65349Y-46559D01*
X65330Y-46484D01*
X65330Y-46391D01*
X65349Y-46316D01*
X65368Y-46278D01*
X65387Y-46259D01*
X65424Y-46241D01*
X65668Y-46372D02*
X65818Y-46372D01*
X65724Y-46241D02*
X65724Y-46578D01*
X65743Y-46616D01*
X65780Y-46634D01*
X65818Y-46634D01*
X66005Y-46634D02*
X65968Y-46616D01*
X65949Y-46597D01*
X65930Y-46559D01*
X65930Y-46447D01*
X65949Y-46409D01*
X65968Y-46391D01*
X66005Y-46372D01*
X66062Y-46372D01*
X66099Y-46391D01*
X66118Y-46409D01*
X66137Y-46447D01*
X66137Y-46559D01*
X66118Y-46597D01*
X66099Y-46616D01*
X66062Y-46634D01*
X66005Y-46634D01*
X66268Y-46241D02*
X66530Y-46241D01*
X66362Y-46634D01*
X66680Y-46597D02*
X66699Y-46616D01*
X66680Y-46634D01*
X66661Y-46616D01*
X66680Y-46597D01*
X66680Y-46634D01*
X67036Y-46616D02*
X66999Y-46634D01*
X66924Y-46634D01*
X66886Y-46616D01*
X66868Y-46597D01*
X66849Y-46559D01*
X66849Y-46447D01*
X66868Y-46409D01*
X66886Y-46391D01*
X66924Y-46372D01*
X66999Y-46372D01*
X67036Y-46391D01*
X67261Y-46634D02*
X67224Y-46616D01*
X67205Y-46597D01*
X67186Y-46559D01*
X67186Y-46447D01*
X67205Y-46409D01*
X67224Y-46391D01*
X67261Y-46372D01*
X67318Y-46372D01*
X67355Y-46391D01*
X67374Y-46409D01*
X67393Y-46447D01*
X67393Y-46559D01*
X67374Y-46597D01*
X67355Y-46616D01*
X67318Y-46634D01*
X67261Y-46634D01*
X67561Y-46634D02*
X67561Y-46372D01*
X67561Y-46409D02*
X67580Y-46391D01*
X67618Y-46372D01*
X67674Y-46372D01*
X67711Y-46391D01*
X67730Y-46428D01*
X67730Y-46634D01*
X67730Y-46428D02*
X67749Y-46391D01*
X67786Y-46372D01*
X67843Y-46372D01*
X67880Y-46391D01*
X67899Y-46428D01*
X67899Y-46634D01*
G54D12*
X48528Y-34940D03*
X47928Y-34940D03*
G54D13*
X47736Y-31397D03*
X47736Y-33563D03*
G54D12*
X47937Y-40157D03*
X47337Y-40157D03*
G54D14*
X62204Y-35231D03*
X62204Y-35831D03*
X61023Y-35231D03*
X61023Y-35831D03*
X59842Y-35231D03*
X59842Y-35831D03*
G54D12*
X42711Y-35629D03*
X43311Y-35629D03*
X42711Y-39566D03*
X43311Y-39566D03*
X42711Y-38385D03*
X43311Y-38385D03*
X42711Y-37007D03*
X43311Y-37007D03*
G54D15*
X65944Y-37326D03*
G54D16*
X65944Y-36326D03*
X65944Y-35326D03*
X65944Y-34326D03*
G54D15*
X67519Y-40082D03*
G54D16*
X67519Y-39082D03*
X67519Y-38082D03*
X67519Y-37082D03*
G54D14*
X60236Y-37888D03*
X60236Y-38488D03*
X61515Y-37888D03*
X61515Y-38488D03*
G54D17*
X62204Y-36535D03*
X62204Y-36889D03*
X61023Y-36535D03*
X61023Y-36889D03*
X59842Y-36535D03*
X59842Y-36889D03*
G54D18*
X44015Y-35629D03*
X44369Y-35629D03*
G54D12*
X46648Y-34940D03*
X47248Y-34940D03*
G54D18*
X44015Y-39566D03*
X44369Y-39566D03*
X44015Y-38385D03*
X44369Y-38385D03*
X44015Y-37007D03*
X44369Y-37007D03*
G54D16*
X58078Y-45527D03*
X58078Y-44527D03*
X58078Y-43527D03*
X58078Y-42527D03*
X58078Y-41527D03*
X58078Y-40527D03*
X58078Y-39527D03*
X58078Y-38527D03*
G54D15*
X64074Y-38527D03*
G54D16*
X64074Y-39527D03*
X64074Y-40527D03*
X64074Y-41527D03*
X64074Y-42527D03*
X64074Y-43527D03*
X64074Y-44527D03*
X64074Y-45527D03*
G54D19*
X52255Y-36795D03*
G54D20*
X53255Y-36795D03*
X52255Y-37795D03*
X53255Y-37795D03*
X52255Y-38795D03*
X53255Y-38795D03*
G54D16*
X49803Y-41917D03*
X49803Y-40917D03*
X49803Y-39917D03*
X49803Y-38917D03*
X49803Y-37917D03*
X49803Y-36917D03*
X49803Y-35917D03*
X49803Y-34917D03*
X49803Y-33917D03*
X49803Y-32917D03*
X49803Y-31917D03*
G54D15*
X49803Y-30917D03*
G54D16*
X55807Y-30917D03*
X55807Y-31917D03*
X55807Y-32917D03*
X55807Y-33917D03*
X55807Y-34917D03*
X55807Y-35917D03*
X55807Y-36917D03*
X55807Y-37917D03*
X55807Y-38917D03*
X55807Y-39917D03*
X55807Y-40917D03*
X55807Y-41917D03*
G54D21*
X46791Y-38445D03*
X47283Y-38445D03*
X47795Y-38445D03*
X48287Y-38445D03*
X48287Y-36161D03*
X47795Y-36161D03*
X47283Y-36161D03*
X46771Y-36161D03*
G54D22*
X45547Y-41141D03*
X43625Y-41141D03*
G54D23*
X67716Y-32283D03*
X67716Y-44488D03*
M02*
