M48
INCH,TZ
T1C0.025
T2C0.032
T3C0.040
T4C0.059
T5C0.118
%
G90
G05
T1
X42824Y-36132
X44081Y-36319
X44764Y-35935
X45211Y-38011
X46328Y-38812
X46951Y-34242
X51523Y-40222
X54555Y-34289
X54646Y-35530
T2
X43626Y-41142
X45548Y-41142
T3
X49803Y-30917
X49803Y-31917
X49803Y-32917
X49803Y-33917
X49803Y-34917
X49803Y-35917
X49803Y-36917
X49803Y-37917
X49803Y-38917
X49803Y-39917
X49803Y-40917
X49803Y-41917
X52256Y-36795
X52256Y-37795
X52256Y-38795
X53256Y-36795
X53256Y-37795
X53256Y-38795
X55807Y-30917
X55807Y-31917
X55807Y-32917
X55807Y-33917
X55807Y-34917
X55807Y-35917
X55807Y-36917
X55807Y-37917
X55807Y-38917
X55807Y-39917
X55807Y-40917
X55807Y-41917
X58079Y-38528
X58079Y-39528
X58079Y-40528
X58079Y-41528
X58079Y-42528
X58079Y-43528
X58079Y-44528
X58079Y-45528
X64075Y-38528
X64075Y-39528
X64075Y-40528
X64075Y-41528
X64075Y-42528
X64075Y-43528
X64075Y-44528
X64075Y-45528
X65945Y-34327
X65945Y-35327
X65945Y-36327
X65945Y-37327
X67520Y-37083
X67520Y-38083
X67520Y-39083
X67520Y-40083
T4
X44193Y-31496
X44193Y-33464
X44193Y-43701
X44193Y-45669
X58071Y-31988
X60039Y-31988
X62008Y-31988
X63976Y-31988
T5
X67717Y-32283
X67717Y-44488
T0
M30
