%FSLAX34Y34*%
G04 Gerber Fmt 3.4, Leading zero omitted, Abs format*
G04 (created by PCBNEW (2014-03-19 BZR 4756)-product) date Thu 12 Jun 2014 23:18:30 BST*
%MOIN*%
G01*
G70*
G90*
G04 APERTURE LIST*
%ADD10C,0.005906*%
%ADD11C,0.011811*%
%ADD12C,0.007874*%
%ADD13C,0.005000*%
%ADD14C,0.015000*%
%ADD15C,0.010000*%
%ADD16C,0.004500*%
%ADD17C,0.004700*%
%ADD18C,0.003500*%
%ADD19C,0.008000*%
%ADD20C,0.003000*%
%ADD21C,0.012000*%
G04 APERTURE END LIST*
G54D10*
G54D11*
X53487Y-30680D02*
X53487Y-31158D01*
X53515Y-31214D01*
X53543Y-31242D01*
X53599Y-31271D01*
X53712Y-31271D01*
X53768Y-31242D01*
X53796Y-31214D01*
X53824Y-31158D01*
X53824Y-30680D01*
X54077Y-31242D02*
X54161Y-31271D01*
X54302Y-31271D01*
X54358Y-31242D01*
X54386Y-31214D01*
X54415Y-31158D01*
X54415Y-31102D01*
X54386Y-31046D01*
X54358Y-31017D01*
X54302Y-30989D01*
X54190Y-30961D01*
X54133Y-30933D01*
X54105Y-30905D01*
X54077Y-30849D01*
X54077Y-30793D01*
X54105Y-30736D01*
X54133Y-30708D01*
X54190Y-30680D01*
X54330Y-30680D01*
X54415Y-30708D01*
X54865Y-30961D02*
X54949Y-30989D01*
X54977Y-31017D01*
X55005Y-31074D01*
X55005Y-31158D01*
X54977Y-31214D01*
X54949Y-31242D01*
X54893Y-31271D01*
X54668Y-31271D01*
X54668Y-30680D01*
X54865Y-30680D01*
X54921Y-30708D01*
X54949Y-30736D01*
X54977Y-30793D01*
X54977Y-30849D01*
X54949Y-30905D01*
X54921Y-30933D01*
X54865Y-30961D01*
X54668Y-30961D01*
G54D12*
X52952Y-31397D02*
X53149Y-31200D01*
X52755Y-31200D02*
X52952Y-31397D01*
X52952Y-31397D02*
X52755Y-31200D01*
X52952Y-30610D02*
X52952Y-31397D01*
G54D11*
X58956Y-41774D02*
X59041Y-41802D01*
X59181Y-41802D01*
X59237Y-41774D01*
X59266Y-41746D01*
X59294Y-41690D01*
X59294Y-41633D01*
X59266Y-41577D01*
X59237Y-41549D01*
X59181Y-41521D01*
X59069Y-41493D01*
X59012Y-41465D01*
X58984Y-41437D01*
X58956Y-41380D01*
X58956Y-41324D01*
X58984Y-41268D01*
X59012Y-41240D01*
X59069Y-41212D01*
X59209Y-41212D01*
X59294Y-41240D01*
X59462Y-41408D02*
X59687Y-41408D01*
X59547Y-41212D02*
X59547Y-41718D01*
X59575Y-41774D01*
X59631Y-41802D01*
X59687Y-41802D01*
X60109Y-41774D02*
X60053Y-41802D01*
X59940Y-41802D01*
X59884Y-41774D01*
X59856Y-41718D01*
X59856Y-41493D01*
X59884Y-41437D01*
X59940Y-41408D01*
X60053Y-41408D01*
X60109Y-41437D01*
X60137Y-41493D01*
X60137Y-41549D01*
X59856Y-41605D01*
X60390Y-41408D02*
X60390Y-41999D01*
X60390Y-41437D02*
X60447Y-41408D01*
X60559Y-41408D01*
X60615Y-41437D01*
X60643Y-41465D01*
X60672Y-41521D01*
X60672Y-41690D01*
X60643Y-41746D01*
X60615Y-41774D01*
X60559Y-41802D01*
X60447Y-41802D01*
X60390Y-41774D01*
X61347Y-41774D02*
X61431Y-41802D01*
X61571Y-41802D01*
X61628Y-41774D01*
X61656Y-41746D01*
X61684Y-41690D01*
X61684Y-41633D01*
X61656Y-41577D01*
X61628Y-41549D01*
X61571Y-41521D01*
X61459Y-41493D01*
X61403Y-41465D01*
X61375Y-41437D01*
X61347Y-41380D01*
X61347Y-41324D01*
X61375Y-41268D01*
X61403Y-41240D01*
X61459Y-41212D01*
X61600Y-41212D01*
X61684Y-41240D01*
X61853Y-41408D02*
X62078Y-41408D01*
X61937Y-41212D02*
X61937Y-41718D01*
X61965Y-41774D01*
X62021Y-41802D01*
X62078Y-41802D01*
X62275Y-41802D02*
X62275Y-41408D01*
X62275Y-41212D02*
X62246Y-41240D01*
X62275Y-41268D01*
X62303Y-41240D01*
X62275Y-41212D01*
X62275Y-41268D01*
X62809Y-41774D02*
X62753Y-41802D01*
X62640Y-41802D01*
X62584Y-41774D01*
X62556Y-41746D01*
X62528Y-41690D01*
X62528Y-41521D01*
X62556Y-41465D01*
X62584Y-41437D01*
X62640Y-41408D01*
X62753Y-41408D01*
X62809Y-41437D01*
X63062Y-41802D02*
X63062Y-41212D01*
X63118Y-41577D02*
X63287Y-41802D01*
X63287Y-41408D02*
X63062Y-41633D01*
X50745Y-32944D02*
X50745Y-32353D01*
X50970Y-32353D01*
X51026Y-32381D01*
X51054Y-32410D01*
X51082Y-32466D01*
X51082Y-32550D01*
X51054Y-32606D01*
X51026Y-32634D01*
X50970Y-32663D01*
X50745Y-32663D01*
X51335Y-32944D02*
X51335Y-32550D01*
X51335Y-32663D02*
X51363Y-32606D01*
X51392Y-32578D01*
X51448Y-32550D01*
X51504Y-32550D01*
X51785Y-32944D02*
X51729Y-32916D01*
X51701Y-32888D01*
X51673Y-32831D01*
X51673Y-32663D01*
X51701Y-32606D01*
X51729Y-32578D01*
X51785Y-32550D01*
X51870Y-32550D01*
X51926Y-32578D01*
X51954Y-32606D01*
X51982Y-32663D01*
X51982Y-32831D01*
X51954Y-32888D01*
X51926Y-32916D01*
X51870Y-32944D01*
X51785Y-32944D01*
X52685Y-32944D02*
X52685Y-32353D01*
X52882Y-32775D01*
X53079Y-32353D01*
X53079Y-32944D01*
X53360Y-32944D02*
X53360Y-32550D01*
X53360Y-32353D02*
X53332Y-32381D01*
X53360Y-32410D01*
X53388Y-32381D01*
X53360Y-32353D01*
X53360Y-32410D01*
X53894Y-32916D02*
X53838Y-32944D01*
X53726Y-32944D01*
X53669Y-32916D01*
X53641Y-32888D01*
X53613Y-32831D01*
X53613Y-32663D01*
X53641Y-32606D01*
X53669Y-32578D01*
X53726Y-32550D01*
X53838Y-32550D01*
X53894Y-32578D01*
X54147Y-32944D02*
X54147Y-32550D01*
X54147Y-32663D02*
X54176Y-32606D01*
X54204Y-32578D01*
X54260Y-32550D01*
X54316Y-32550D01*
X54597Y-32944D02*
X54541Y-32916D01*
X54513Y-32888D01*
X54485Y-32831D01*
X54485Y-32663D01*
X54513Y-32606D01*
X54541Y-32578D01*
X54597Y-32550D01*
X54682Y-32550D01*
X54738Y-32578D01*
X54766Y-32606D01*
X54794Y-32663D01*
X54794Y-32831D01*
X54766Y-32888D01*
X54738Y-32916D01*
X54682Y-32944D01*
X54597Y-32944D01*
G54D12*
X50590Y-31397D02*
G75*
G03X51574Y-30610I98J885D01*
G74*
G01*
X53519Y-43659D02*
X53534Y-43674D01*
X53519Y-43689D01*
X53504Y-43674D01*
X53519Y-43659D01*
X53519Y-43689D01*
X53519Y-43494D02*
X53534Y-43509D01*
X53519Y-43524D01*
X53504Y-43509D01*
X53519Y-43494D01*
X53519Y-43524D01*
X53894Y-43404D02*
X53909Y-43389D01*
X53939Y-43374D01*
X54014Y-43374D01*
X54044Y-43389D01*
X54059Y-43404D01*
X54074Y-43434D01*
X54074Y-43464D01*
X54059Y-43509D01*
X53879Y-43689D01*
X54074Y-43689D01*
X54539Y-43809D02*
X54524Y-43794D01*
X54494Y-43749D01*
X54479Y-43719D01*
X54464Y-43674D01*
X54449Y-43599D01*
X54449Y-43539D01*
X54464Y-43464D01*
X54479Y-43419D01*
X54494Y-43389D01*
X54524Y-43344D01*
X54539Y-43329D01*
X54719Y-43374D02*
X54749Y-43374D01*
X54779Y-43389D01*
X54794Y-43404D01*
X54809Y-43434D01*
X54824Y-43494D01*
X54824Y-43569D01*
X54809Y-43629D01*
X54794Y-43659D01*
X54779Y-43674D01*
X54749Y-43689D01*
X54719Y-43689D01*
X54689Y-43674D01*
X54674Y-43659D01*
X54659Y-43629D01*
X54644Y-43569D01*
X54644Y-43494D01*
X54659Y-43434D01*
X54674Y-43404D01*
X54689Y-43389D01*
X54719Y-43374D01*
X54929Y-43809D02*
X54944Y-43794D01*
X54974Y-43749D01*
X54989Y-43719D01*
X55004Y-43674D01*
X55019Y-43599D01*
X55019Y-43539D01*
X55004Y-43464D01*
X54989Y-43419D01*
X54974Y-43389D01*
X54944Y-43344D01*
X54929Y-43329D01*
X53519Y-44179D02*
X53534Y-44194D01*
X53519Y-44209D01*
X53504Y-44194D01*
X53519Y-44179D01*
X53519Y-44209D01*
X53519Y-44014D02*
X53534Y-44029D01*
X53519Y-44044D01*
X53504Y-44029D01*
X53519Y-44014D01*
X53519Y-44044D01*
X54074Y-44209D02*
X53894Y-44209D01*
X53984Y-44209D02*
X53984Y-43894D01*
X53954Y-43939D01*
X53924Y-43969D01*
X53894Y-43984D01*
X54374Y-44209D02*
X54194Y-44209D01*
X54284Y-44209D02*
X54284Y-43894D01*
X54254Y-43939D01*
X54224Y-43969D01*
X54194Y-43984D01*
X54839Y-44329D02*
X54824Y-44314D01*
X54794Y-44269D01*
X54779Y-44239D01*
X54764Y-44194D01*
X54749Y-44119D01*
X54749Y-44059D01*
X54764Y-43984D01*
X54779Y-43939D01*
X54794Y-43909D01*
X54824Y-43864D01*
X54839Y-43849D01*
X55004Y-44029D02*
X54974Y-44014D01*
X54959Y-43999D01*
X54944Y-43969D01*
X54944Y-43954D01*
X54959Y-43924D01*
X54974Y-43909D01*
X55004Y-43894D01*
X55064Y-43894D01*
X55094Y-43909D01*
X55109Y-43924D01*
X55124Y-43954D01*
X55124Y-43969D01*
X55109Y-43999D01*
X55094Y-44014D01*
X55064Y-44029D01*
X55004Y-44029D01*
X54974Y-44044D01*
X54959Y-44059D01*
X54944Y-44089D01*
X54944Y-44149D01*
X54959Y-44179D01*
X54974Y-44194D01*
X55004Y-44209D01*
X55064Y-44209D01*
X55094Y-44194D01*
X55109Y-44179D01*
X55124Y-44149D01*
X55124Y-44089D01*
X55109Y-44059D01*
X55094Y-44044D01*
X55064Y-44029D01*
X55484Y-43879D02*
X55214Y-44284D01*
X55574Y-44119D02*
X55724Y-44119D01*
X55544Y-44209D02*
X55649Y-43894D01*
X55754Y-44209D01*
X55904Y-44029D02*
X55874Y-44014D01*
X55859Y-43999D01*
X55844Y-43969D01*
X55844Y-43954D01*
X55859Y-43924D01*
X55874Y-43909D01*
X55904Y-43894D01*
X55964Y-43894D01*
X55994Y-43909D01*
X56009Y-43924D01*
X56024Y-43954D01*
X56024Y-43969D01*
X56009Y-43999D01*
X55994Y-44014D01*
X55964Y-44029D01*
X55904Y-44029D01*
X55874Y-44044D01*
X55859Y-44059D01*
X55844Y-44089D01*
X55844Y-44149D01*
X55859Y-44179D01*
X55874Y-44194D01*
X55904Y-44209D01*
X55964Y-44209D01*
X55994Y-44194D01*
X56009Y-44179D01*
X56024Y-44149D01*
X56024Y-44089D01*
X56009Y-44059D01*
X55994Y-44044D01*
X55964Y-44029D01*
X56129Y-44329D02*
X56144Y-44314D01*
X56174Y-44269D01*
X56189Y-44239D01*
X56204Y-44194D01*
X56219Y-44119D01*
X56219Y-44059D01*
X56204Y-43984D01*
X56189Y-43939D01*
X56174Y-43909D01*
X56144Y-43864D01*
X56129Y-43849D01*
X53519Y-44699D02*
X53534Y-44714D01*
X53519Y-44729D01*
X53504Y-44714D01*
X53519Y-44699D01*
X53519Y-44729D01*
X53519Y-44534D02*
X53534Y-44549D01*
X53519Y-44564D01*
X53504Y-44549D01*
X53519Y-44534D01*
X53519Y-44564D01*
X53879Y-44414D02*
X54089Y-44414D01*
X53954Y-44729D01*
X54539Y-44849D02*
X54524Y-44834D01*
X54494Y-44789D01*
X54479Y-44759D01*
X54464Y-44714D01*
X54449Y-44639D01*
X54449Y-44579D01*
X54464Y-44504D01*
X54479Y-44459D01*
X54494Y-44429D01*
X54524Y-44384D01*
X54539Y-44369D01*
X54794Y-44519D02*
X54794Y-44729D01*
X54719Y-44399D02*
X54644Y-44624D01*
X54839Y-44624D01*
X55184Y-44399D02*
X54914Y-44804D01*
X55274Y-44639D02*
X55424Y-44639D01*
X55244Y-44729D02*
X55349Y-44414D01*
X55454Y-44729D01*
X55694Y-44414D02*
X55634Y-44414D01*
X55604Y-44429D01*
X55589Y-44444D01*
X55559Y-44489D01*
X55544Y-44549D01*
X55544Y-44669D01*
X55559Y-44699D01*
X55574Y-44714D01*
X55604Y-44729D01*
X55664Y-44729D01*
X55694Y-44714D01*
X55709Y-44699D01*
X55724Y-44669D01*
X55724Y-44594D01*
X55709Y-44564D01*
X55694Y-44549D01*
X55664Y-44534D01*
X55604Y-44534D01*
X55574Y-44549D01*
X55559Y-44564D01*
X55544Y-44594D01*
X55829Y-44849D02*
X55844Y-44834D01*
X55874Y-44789D01*
X55889Y-44759D01*
X55904Y-44714D01*
X55919Y-44639D01*
X55919Y-44579D01*
X55904Y-44504D01*
X55889Y-44459D01*
X55874Y-44429D01*
X55844Y-44384D01*
X55829Y-44369D01*
X53519Y-45218D02*
X53534Y-45233D01*
X53519Y-45248D01*
X53504Y-45233D01*
X53519Y-45218D01*
X53519Y-45248D01*
X53519Y-45053D02*
X53534Y-45068D01*
X53519Y-45083D01*
X53504Y-45068D01*
X53519Y-45053D01*
X53519Y-45083D01*
X53954Y-45068D02*
X53924Y-45053D01*
X53909Y-45038D01*
X53894Y-45008D01*
X53894Y-44993D01*
X53909Y-44963D01*
X53924Y-44948D01*
X53954Y-44933D01*
X54014Y-44933D01*
X54044Y-44948D01*
X54059Y-44963D01*
X54074Y-44993D01*
X54074Y-45008D01*
X54059Y-45038D01*
X54044Y-45053D01*
X54014Y-45068D01*
X53954Y-45068D01*
X53924Y-45083D01*
X53909Y-45098D01*
X53894Y-45128D01*
X53894Y-45188D01*
X53909Y-45218D01*
X53924Y-45233D01*
X53954Y-45248D01*
X54014Y-45248D01*
X54044Y-45233D01*
X54059Y-45218D01*
X54074Y-45188D01*
X54074Y-45128D01*
X54059Y-45098D01*
X54044Y-45083D01*
X54014Y-45068D01*
X54539Y-45368D02*
X54524Y-45353D01*
X54494Y-45308D01*
X54479Y-45278D01*
X54464Y-45233D01*
X54449Y-45158D01*
X54449Y-45098D01*
X54464Y-45023D01*
X54479Y-44978D01*
X54494Y-44948D01*
X54524Y-44903D01*
X54539Y-44888D01*
X54809Y-44933D02*
X54659Y-44933D01*
X54644Y-45083D01*
X54659Y-45068D01*
X54689Y-45053D01*
X54764Y-45053D01*
X54794Y-45068D01*
X54809Y-45083D01*
X54824Y-45113D01*
X54824Y-45188D01*
X54809Y-45218D01*
X54794Y-45233D01*
X54764Y-45248D01*
X54689Y-45248D01*
X54659Y-45233D01*
X54644Y-45218D01*
X54929Y-45368D02*
X54944Y-45353D01*
X54974Y-45308D01*
X54989Y-45278D01*
X55004Y-45233D01*
X55019Y-45158D01*
X55019Y-45098D01*
X55004Y-45023D01*
X54989Y-44978D01*
X54974Y-44948D01*
X54944Y-44903D01*
X54929Y-44888D01*
X53519Y-45738D02*
X53534Y-45753D01*
X53519Y-45768D01*
X53504Y-45753D01*
X53519Y-45738D01*
X53519Y-45768D01*
X53519Y-45573D02*
X53534Y-45588D01*
X53519Y-45603D01*
X53504Y-45588D01*
X53519Y-45573D01*
X53519Y-45603D01*
X53924Y-45768D02*
X53984Y-45768D01*
X54014Y-45753D01*
X54029Y-45738D01*
X54059Y-45693D01*
X54074Y-45633D01*
X54074Y-45513D01*
X54059Y-45483D01*
X54044Y-45468D01*
X54014Y-45453D01*
X53954Y-45453D01*
X53924Y-45468D01*
X53909Y-45483D01*
X53894Y-45513D01*
X53894Y-45588D01*
X53909Y-45618D01*
X53924Y-45633D01*
X53954Y-45648D01*
X54014Y-45648D01*
X54044Y-45633D01*
X54059Y-45618D01*
X54074Y-45588D01*
X54539Y-45888D02*
X54524Y-45873D01*
X54494Y-45828D01*
X54479Y-45798D01*
X54464Y-45753D01*
X54449Y-45678D01*
X54449Y-45618D01*
X54464Y-45543D01*
X54479Y-45498D01*
X54494Y-45468D01*
X54524Y-45423D01*
X54539Y-45408D01*
X54794Y-45453D02*
X54734Y-45453D01*
X54704Y-45468D01*
X54689Y-45483D01*
X54659Y-45528D01*
X54644Y-45588D01*
X54644Y-45708D01*
X54659Y-45738D01*
X54674Y-45753D01*
X54704Y-45768D01*
X54764Y-45768D01*
X54794Y-45753D01*
X54809Y-45738D01*
X54824Y-45708D01*
X54824Y-45633D01*
X54809Y-45603D01*
X54794Y-45588D01*
X54764Y-45573D01*
X54704Y-45573D01*
X54674Y-45588D01*
X54659Y-45603D01*
X54644Y-45633D01*
X55184Y-45438D02*
X54914Y-45843D01*
X55274Y-45678D02*
X55424Y-45678D01*
X55244Y-45768D02*
X55349Y-45453D01*
X55454Y-45768D01*
X55529Y-45453D02*
X55739Y-45453D01*
X55604Y-45768D01*
X55829Y-45888D02*
X55844Y-45873D01*
X55874Y-45828D01*
X55889Y-45798D01*
X55904Y-45753D01*
X55919Y-45678D01*
X55919Y-45618D01*
X55904Y-45543D01*
X55889Y-45498D01*
X55874Y-45468D01*
X55844Y-45423D01*
X55829Y-45408D01*
X52225Y-43674D02*
X52270Y-43689D01*
X52345Y-43689D01*
X52375Y-43674D01*
X52390Y-43659D01*
X52405Y-43629D01*
X52405Y-43599D01*
X52390Y-43569D01*
X52375Y-43554D01*
X52345Y-43539D01*
X52285Y-43524D01*
X52255Y-43509D01*
X52240Y-43494D01*
X52225Y-43464D01*
X52225Y-43434D01*
X52240Y-43404D01*
X52255Y-43389D01*
X52285Y-43374D01*
X52360Y-43374D01*
X52405Y-43389D01*
X52495Y-43479D02*
X52615Y-43479D01*
X52540Y-43374D02*
X52540Y-43644D01*
X52555Y-43674D01*
X52585Y-43689D01*
X52615Y-43689D01*
X52840Y-43674D02*
X52810Y-43689D01*
X52750Y-43689D01*
X52720Y-43674D01*
X52705Y-43644D01*
X52705Y-43524D01*
X52720Y-43494D01*
X52750Y-43479D01*
X52810Y-43479D01*
X52840Y-43494D01*
X52855Y-43524D01*
X52855Y-43554D01*
X52705Y-43584D01*
X52990Y-43479D02*
X52990Y-43794D01*
X52990Y-43494D02*
X53020Y-43479D01*
X53080Y-43479D01*
X53110Y-43494D01*
X53125Y-43509D01*
X53140Y-43539D01*
X53140Y-43629D01*
X53125Y-43659D01*
X53110Y-43674D01*
X53080Y-43689D01*
X53020Y-43689D01*
X52990Y-43674D01*
X52240Y-44209D02*
X52240Y-43894D01*
X52315Y-43894D01*
X52360Y-43909D01*
X52390Y-43939D01*
X52405Y-43969D01*
X52420Y-44029D01*
X52420Y-44074D01*
X52405Y-44134D01*
X52390Y-44164D01*
X52360Y-44194D01*
X52315Y-44209D01*
X52240Y-44209D01*
X52555Y-44209D02*
X52555Y-43999D01*
X52555Y-43894D02*
X52540Y-43909D01*
X52555Y-43924D01*
X52570Y-43909D01*
X52555Y-43894D01*
X52555Y-43924D01*
X52705Y-44209D02*
X52705Y-43999D01*
X52705Y-44059D02*
X52720Y-44029D01*
X52735Y-44014D01*
X52765Y-43999D01*
X52795Y-43999D01*
X52240Y-44729D02*
X52240Y-44414D01*
X52345Y-44639D01*
X52450Y-44414D01*
X52450Y-44729D01*
X52585Y-44714D02*
X52630Y-44729D01*
X52705Y-44729D01*
X52735Y-44714D01*
X52750Y-44699D01*
X52765Y-44669D01*
X52765Y-44639D01*
X52750Y-44609D01*
X52735Y-44594D01*
X52705Y-44579D01*
X52645Y-44564D01*
X52615Y-44549D01*
X52600Y-44534D01*
X52585Y-44504D01*
X52585Y-44474D01*
X52600Y-44444D01*
X52615Y-44429D01*
X52645Y-44414D01*
X52720Y-44414D01*
X52765Y-44429D01*
X53065Y-44729D02*
X52885Y-44729D01*
X52975Y-44729D02*
X52975Y-44414D01*
X52945Y-44459D01*
X52915Y-44489D01*
X52885Y-44504D01*
X52240Y-45248D02*
X52240Y-44933D01*
X52345Y-45158D01*
X52450Y-44933D01*
X52450Y-45248D01*
X52585Y-45233D02*
X52630Y-45248D01*
X52705Y-45248D01*
X52735Y-45233D01*
X52750Y-45218D01*
X52765Y-45188D01*
X52765Y-45158D01*
X52750Y-45128D01*
X52735Y-45113D01*
X52705Y-45098D01*
X52645Y-45083D01*
X52615Y-45068D01*
X52600Y-45053D01*
X52585Y-45023D01*
X52585Y-44993D01*
X52600Y-44963D01*
X52615Y-44948D01*
X52645Y-44933D01*
X52720Y-44933D01*
X52765Y-44948D01*
X52885Y-44963D02*
X52900Y-44948D01*
X52930Y-44933D01*
X53005Y-44933D01*
X53035Y-44948D01*
X53050Y-44963D01*
X53065Y-44993D01*
X53065Y-45023D01*
X53050Y-45068D01*
X52870Y-45248D01*
X53065Y-45248D01*
X52240Y-45768D02*
X52240Y-45453D01*
X52345Y-45678D01*
X52450Y-45453D01*
X52450Y-45768D01*
X52585Y-45753D02*
X52630Y-45768D01*
X52705Y-45768D01*
X52735Y-45753D01*
X52750Y-45738D01*
X52765Y-45708D01*
X52765Y-45678D01*
X52750Y-45648D01*
X52735Y-45633D01*
X52705Y-45618D01*
X52645Y-45603D01*
X52615Y-45588D01*
X52600Y-45573D01*
X52585Y-45543D01*
X52585Y-45513D01*
X52600Y-45483D01*
X52615Y-45468D01*
X52645Y-45453D01*
X52720Y-45453D01*
X52765Y-45468D01*
X52870Y-45453D02*
X53065Y-45453D01*
X52960Y-45573D01*
X53005Y-45573D01*
X53035Y-45588D01*
X53050Y-45603D01*
X53065Y-45633D01*
X53065Y-45708D01*
X53050Y-45738D01*
X53035Y-45753D01*
X53005Y-45768D01*
X52915Y-45768D01*
X52885Y-45753D01*
X52870Y-45738D01*
X49287Y-43134D02*
X49287Y-42819D01*
X49407Y-42819D01*
X49437Y-42834D01*
X49452Y-42849D01*
X49467Y-42879D01*
X49467Y-42924D01*
X49452Y-42954D01*
X49437Y-42969D01*
X49407Y-42984D01*
X49287Y-42984D01*
X49602Y-43134D02*
X49602Y-42924D01*
X49602Y-42819D02*
X49587Y-42834D01*
X49602Y-42849D01*
X49617Y-42834D01*
X49602Y-42819D01*
X49602Y-42849D01*
X49752Y-42924D02*
X49752Y-43134D01*
X49752Y-42954D02*
X49767Y-42939D01*
X49797Y-42924D01*
X49842Y-42924D01*
X49872Y-42939D01*
X49887Y-42969D01*
X49887Y-43134D01*
X49287Y-43624D02*
X49302Y-43639D01*
X49287Y-43654D01*
X49272Y-43639D01*
X49287Y-43624D01*
X49287Y-43654D01*
X49287Y-43459D02*
X49302Y-43474D01*
X49287Y-43489D01*
X49272Y-43474D01*
X49287Y-43459D01*
X49287Y-43489D01*
X49842Y-43654D02*
X49662Y-43654D01*
X49752Y-43654D02*
X49752Y-43339D01*
X49722Y-43384D01*
X49692Y-43414D01*
X49662Y-43429D01*
X50112Y-43339D02*
X50052Y-43339D01*
X50022Y-43354D01*
X50007Y-43369D01*
X49977Y-43414D01*
X49962Y-43474D01*
X49962Y-43594D01*
X49977Y-43624D01*
X49992Y-43639D01*
X50022Y-43654D01*
X50082Y-43654D01*
X50112Y-43639D01*
X50127Y-43624D01*
X50142Y-43594D01*
X50142Y-43519D01*
X50127Y-43489D01*
X50112Y-43474D01*
X50082Y-43459D01*
X50022Y-43459D01*
X49992Y-43474D01*
X49977Y-43489D01*
X49962Y-43519D01*
X50607Y-43774D02*
X50592Y-43759D01*
X50562Y-43714D01*
X50547Y-43684D01*
X50532Y-43639D01*
X50517Y-43564D01*
X50517Y-43504D01*
X50532Y-43429D01*
X50547Y-43384D01*
X50562Y-43354D01*
X50592Y-43309D01*
X50607Y-43294D01*
X50892Y-43654D02*
X50712Y-43654D01*
X50802Y-43654D02*
X50802Y-43339D01*
X50772Y-43384D01*
X50742Y-43414D01*
X50712Y-43429D01*
X51177Y-43339D02*
X51027Y-43339D01*
X51012Y-43489D01*
X51027Y-43474D01*
X51057Y-43459D01*
X51132Y-43459D01*
X51162Y-43474D01*
X51177Y-43489D01*
X51192Y-43519D01*
X51192Y-43594D01*
X51177Y-43624D01*
X51162Y-43639D01*
X51132Y-43654D01*
X51057Y-43654D01*
X51027Y-43639D01*
X51012Y-43624D01*
X51297Y-43774D02*
X51312Y-43759D01*
X51342Y-43714D01*
X51357Y-43684D01*
X51372Y-43639D01*
X51387Y-43564D01*
X51387Y-43504D01*
X51372Y-43429D01*
X51357Y-43384D01*
X51342Y-43354D01*
X51312Y-43309D01*
X51297Y-43294D01*
X49287Y-44143D02*
X49302Y-44158D01*
X49287Y-44173D01*
X49272Y-44158D01*
X49287Y-44143D01*
X49287Y-44173D01*
X49287Y-43979D02*
X49302Y-43994D01*
X49287Y-44008D01*
X49272Y-43994D01*
X49287Y-43979D01*
X49287Y-44008D01*
X49842Y-44173D02*
X49662Y-44173D01*
X49752Y-44173D02*
X49752Y-43859D01*
X49722Y-43904D01*
X49692Y-43934D01*
X49662Y-43949D01*
X50127Y-43859D02*
X49977Y-43859D01*
X49962Y-44008D01*
X49977Y-43994D01*
X50007Y-43979D01*
X50082Y-43979D01*
X50112Y-43994D01*
X50127Y-44008D01*
X50142Y-44038D01*
X50142Y-44113D01*
X50127Y-44143D01*
X50112Y-44158D01*
X50082Y-44173D01*
X50007Y-44173D01*
X49977Y-44158D01*
X49962Y-44143D01*
X50607Y-44293D02*
X50592Y-44278D01*
X50562Y-44233D01*
X50547Y-44203D01*
X50532Y-44158D01*
X50517Y-44083D01*
X50517Y-44023D01*
X50532Y-43949D01*
X50547Y-43904D01*
X50562Y-43874D01*
X50592Y-43829D01*
X50607Y-43814D01*
X50892Y-44173D02*
X50712Y-44173D01*
X50802Y-44173D02*
X50802Y-43859D01*
X50772Y-43904D01*
X50742Y-43934D01*
X50712Y-43949D01*
X51162Y-43964D02*
X51162Y-44173D01*
X51087Y-43844D02*
X51012Y-44068D01*
X51207Y-44068D01*
X51297Y-44293D02*
X51312Y-44278D01*
X51342Y-44233D01*
X51357Y-44203D01*
X51372Y-44158D01*
X51387Y-44083D01*
X51387Y-44023D01*
X51372Y-43949D01*
X51357Y-43904D01*
X51342Y-43874D01*
X51312Y-43829D01*
X51297Y-43814D01*
X49287Y-44663D02*
X49302Y-44678D01*
X49287Y-44693D01*
X49272Y-44678D01*
X49287Y-44663D01*
X49287Y-44693D01*
X49287Y-44498D02*
X49302Y-44513D01*
X49287Y-44528D01*
X49272Y-44513D01*
X49287Y-44498D01*
X49287Y-44528D01*
X49842Y-44693D02*
X49662Y-44693D01*
X49752Y-44693D02*
X49752Y-44378D01*
X49722Y-44423D01*
X49692Y-44453D01*
X49662Y-44468D01*
X50112Y-44483D02*
X50112Y-44693D01*
X50037Y-44363D02*
X49962Y-44588D01*
X50157Y-44588D01*
X50607Y-44813D02*
X50592Y-44798D01*
X50562Y-44753D01*
X50547Y-44723D01*
X50532Y-44678D01*
X50517Y-44603D01*
X50517Y-44543D01*
X50532Y-44468D01*
X50547Y-44423D01*
X50562Y-44393D01*
X50592Y-44348D01*
X50607Y-44333D01*
X50892Y-44693D02*
X50712Y-44693D01*
X50802Y-44693D02*
X50802Y-44378D01*
X50772Y-44423D01*
X50742Y-44453D01*
X50712Y-44468D01*
X51162Y-44378D02*
X51102Y-44378D01*
X51072Y-44393D01*
X51057Y-44408D01*
X51027Y-44453D01*
X51012Y-44513D01*
X51012Y-44633D01*
X51027Y-44663D01*
X51042Y-44678D01*
X51072Y-44693D01*
X51132Y-44693D01*
X51162Y-44678D01*
X51177Y-44663D01*
X51192Y-44633D01*
X51192Y-44558D01*
X51177Y-44528D01*
X51162Y-44513D01*
X51132Y-44498D01*
X51072Y-44498D01*
X51042Y-44513D01*
X51027Y-44528D01*
X51012Y-44558D01*
X51297Y-44813D02*
X51312Y-44798D01*
X51342Y-44753D01*
X51357Y-44723D01*
X51372Y-44678D01*
X51387Y-44603D01*
X51387Y-44543D01*
X51372Y-44468D01*
X51357Y-44423D01*
X51342Y-44393D01*
X51312Y-44348D01*
X51297Y-44333D01*
X49287Y-45183D02*
X49302Y-45198D01*
X49287Y-45213D01*
X49272Y-45198D01*
X49287Y-45183D01*
X49287Y-45213D01*
X49287Y-45018D02*
X49302Y-45033D01*
X49287Y-45048D01*
X49272Y-45033D01*
X49287Y-45018D01*
X49287Y-45048D01*
X49842Y-45213D02*
X49662Y-45213D01*
X49752Y-45213D02*
X49752Y-44898D01*
X49722Y-44943D01*
X49692Y-44973D01*
X49662Y-44988D01*
X49947Y-44898D02*
X50142Y-44898D01*
X50037Y-45018D01*
X50082Y-45018D01*
X50112Y-45033D01*
X50127Y-45048D01*
X50142Y-45078D01*
X50142Y-45153D01*
X50127Y-45183D01*
X50112Y-45198D01*
X50082Y-45213D01*
X49992Y-45213D01*
X49962Y-45198D01*
X49947Y-45183D01*
X50607Y-45333D02*
X50592Y-45318D01*
X50562Y-45273D01*
X50547Y-45243D01*
X50532Y-45198D01*
X50517Y-45123D01*
X50517Y-45063D01*
X50532Y-44988D01*
X50547Y-44943D01*
X50562Y-44913D01*
X50592Y-44868D01*
X50607Y-44853D01*
X50892Y-45213D02*
X50712Y-45213D01*
X50802Y-45213D02*
X50802Y-44898D01*
X50772Y-44943D01*
X50742Y-44973D01*
X50712Y-44988D01*
X51042Y-45213D02*
X51102Y-45213D01*
X51132Y-45198D01*
X51147Y-45183D01*
X51177Y-45138D01*
X51192Y-45078D01*
X51192Y-44958D01*
X51177Y-44928D01*
X51162Y-44913D01*
X51132Y-44898D01*
X51072Y-44898D01*
X51042Y-44913D01*
X51027Y-44928D01*
X51012Y-44958D01*
X51012Y-45033D01*
X51027Y-45063D01*
X51042Y-45078D01*
X51072Y-45093D01*
X51132Y-45093D01*
X51162Y-45078D01*
X51177Y-45063D01*
X51192Y-45033D01*
X51297Y-45333D02*
X51312Y-45318D01*
X51342Y-45273D01*
X51357Y-45243D01*
X51372Y-45198D01*
X51387Y-45123D01*
X51387Y-45063D01*
X51372Y-44988D01*
X51357Y-44943D01*
X51342Y-44913D01*
X51312Y-44868D01*
X51297Y-44853D01*
X49287Y-45703D02*
X49302Y-45718D01*
X49287Y-45733D01*
X49272Y-45718D01*
X49287Y-45703D01*
X49287Y-45733D01*
X49287Y-45538D02*
X49302Y-45553D01*
X49287Y-45568D01*
X49272Y-45553D01*
X49287Y-45538D01*
X49287Y-45568D01*
X49842Y-45733D02*
X49662Y-45733D01*
X49752Y-45733D02*
X49752Y-45418D01*
X49722Y-45463D01*
X49692Y-45493D01*
X49662Y-45508D01*
X50067Y-45853D02*
X50052Y-45838D01*
X50022Y-45793D01*
X50007Y-45763D01*
X49992Y-45718D01*
X49977Y-45643D01*
X49977Y-45583D01*
X49992Y-45508D01*
X50007Y-45463D01*
X50022Y-45433D01*
X50052Y-45388D01*
X50067Y-45373D01*
X50352Y-45733D02*
X50172Y-45733D01*
X50262Y-45733D02*
X50262Y-45418D01*
X50232Y-45463D01*
X50202Y-45493D01*
X50172Y-45508D01*
X50457Y-45853D02*
X50472Y-45838D01*
X50502Y-45793D01*
X50517Y-45763D01*
X50532Y-45718D01*
X50547Y-45643D01*
X50547Y-45583D01*
X50532Y-45508D01*
X50517Y-45463D01*
X50502Y-45433D01*
X50472Y-45388D01*
X50457Y-45373D01*
X52225Y-43139D02*
X52270Y-43154D01*
X52345Y-43154D01*
X52375Y-43139D01*
X52390Y-43124D01*
X52405Y-43094D01*
X52405Y-43064D01*
X52390Y-43034D01*
X52375Y-43019D01*
X52345Y-43004D01*
X52285Y-42989D01*
X52255Y-42974D01*
X52240Y-42959D01*
X52225Y-42929D01*
X52225Y-42899D01*
X52240Y-42869D01*
X52255Y-42854D01*
X52285Y-42839D01*
X52360Y-42839D01*
X52405Y-42854D01*
X52495Y-42944D02*
X52615Y-42944D01*
X52540Y-42839D02*
X52540Y-43109D01*
X52555Y-43139D01*
X52585Y-43154D01*
X52615Y-43154D01*
X52840Y-43139D02*
X52810Y-43154D01*
X52750Y-43154D01*
X52720Y-43139D01*
X52705Y-43109D01*
X52705Y-42989D01*
X52720Y-42959D01*
X52750Y-42944D01*
X52810Y-42944D01*
X52840Y-42959D01*
X52855Y-42989D01*
X52855Y-43019D01*
X52705Y-43049D01*
X52990Y-42944D02*
X52990Y-43259D01*
X52990Y-42959D02*
X53020Y-42944D01*
X53080Y-42944D01*
X53110Y-42959D01*
X53125Y-42974D01*
X53140Y-43004D01*
X53140Y-43094D01*
X53125Y-43124D01*
X53110Y-43139D01*
X53080Y-43154D01*
X53020Y-43154D01*
X52990Y-43139D01*
X53500Y-43139D02*
X53545Y-43154D01*
X53620Y-43154D01*
X53650Y-43139D01*
X53665Y-43124D01*
X53680Y-43094D01*
X53680Y-43064D01*
X53665Y-43034D01*
X53650Y-43019D01*
X53620Y-43004D01*
X53560Y-42989D01*
X53530Y-42974D01*
X53515Y-42959D01*
X53500Y-42929D01*
X53500Y-42899D01*
X53515Y-42869D01*
X53530Y-42854D01*
X53560Y-42839D01*
X53635Y-42839D01*
X53680Y-42854D01*
X53770Y-42944D02*
X53890Y-42944D01*
X53815Y-42839D02*
X53815Y-43109D01*
X53830Y-43139D01*
X53860Y-43154D01*
X53890Y-43154D01*
X53995Y-43154D02*
X53995Y-42944D01*
X53995Y-42839D02*
X53980Y-42854D01*
X53995Y-42869D01*
X54010Y-42854D01*
X53995Y-42839D01*
X53995Y-42869D01*
X54280Y-43139D02*
X54250Y-43154D01*
X54190Y-43154D01*
X54160Y-43139D01*
X54145Y-43124D01*
X54130Y-43094D01*
X54130Y-43004D01*
X54145Y-42974D01*
X54160Y-42959D01*
X54190Y-42944D01*
X54250Y-42944D01*
X54280Y-42959D01*
X54415Y-43154D02*
X54415Y-42839D01*
X54445Y-43034D02*
X54535Y-43154D01*
X54535Y-42944D02*
X54415Y-43064D01*
X48286Y-43104D02*
X48271Y-43119D01*
X48226Y-43134D01*
X48196Y-43134D01*
X48151Y-43119D01*
X48121Y-43089D01*
X48106Y-43059D01*
X48091Y-42999D01*
X48091Y-42954D01*
X48106Y-42894D01*
X48121Y-42864D01*
X48151Y-42834D01*
X48196Y-42819D01*
X48226Y-42819D01*
X48271Y-42834D01*
X48286Y-42849D01*
X48406Y-43044D02*
X48556Y-43044D01*
X48376Y-43134D02*
X48481Y-42819D01*
X48586Y-43134D01*
X48691Y-43134D02*
X48691Y-42819D01*
X48871Y-43134D01*
X48871Y-42819D01*
X48091Y-43639D02*
X48136Y-43654D01*
X48211Y-43654D01*
X48241Y-43639D01*
X48256Y-43624D01*
X48271Y-43594D01*
X48271Y-43564D01*
X48256Y-43534D01*
X48241Y-43519D01*
X48211Y-43504D01*
X48151Y-43489D01*
X48121Y-43474D01*
X48106Y-43459D01*
X48091Y-43429D01*
X48091Y-43399D01*
X48106Y-43369D01*
X48121Y-43354D01*
X48151Y-43339D01*
X48226Y-43339D01*
X48271Y-43354D01*
X48586Y-43624D02*
X48571Y-43639D01*
X48526Y-43654D01*
X48496Y-43654D01*
X48451Y-43639D01*
X48421Y-43609D01*
X48406Y-43579D01*
X48391Y-43519D01*
X48391Y-43474D01*
X48406Y-43414D01*
X48421Y-43384D01*
X48451Y-43354D01*
X48496Y-43339D01*
X48526Y-43339D01*
X48571Y-43354D01*
X48586Y-43369D01*
X48721Y-43654D02*
X48721Y-43339D01*
X48901Y-43654D02*
X48766Y-43474D01*
X48901Y-43339D02*
X48721Y-43519D01*
X48091Y-44158D02*
X48136Y-44173D01*
X48211Y-44173D01*
X48241Y-44158D01*
X48256Y-44143D01*
X48271Y-44113D01*
X48271Y-44083D01*
X48256Y-44053D01*
X48241Y-44038D01*
X48211Y-44023D01*
X48151Y-44008D01*
X48121Y-43994D01*
X48106Y-43979D01*
X48091Y-43949D01*
X48091Y-43919D01*
X48106Y-43889D01*
X48121Y-43874D01*
X48151Y-43859D01*
X48226Y-43859D01*
X48271Y-43874D01*
X48466Y-43859D02*
X48526Y-43859D01*
X48556Y-43874D01*
X48586Y-43904D01*
X48601Y-43964D01*
X48601Y-44068D01*
X48586Y-44128D01*
X48556Y-44158D01*
X48526Y-44173D01*
X48466Y-44173D01*
X48436Y-44158D01*
X48406Y-44128D01*
X48391Y-44068D01*
X48391Y-43964D01*
X48406Y-43904D01*
X48436Y-43874D01*
X48466Y-43859D01*
X48091Y-44678D02*
X48136Y-44693D01*
X48211Y-44693D01*
X48241Y-44678D01*
X48256Y-44663D01*
X48271Y-44633D01*
X48271Y-44603D01*
X48256Y-44573D01*
X48241Y-44558D01*
X48211Y-44543D01*
X48151Y-44528D01*
X48121Y-44513D01*
X48106Y-44498D01*
X48091Y-44468D01*
X48091Y-44438D01*
X48106Y-44408D01*
X48121Y-44393D01*
X48151Y-44378D01*
X48226Y-44378D01*
X48271Y-44393D01*
X48406Y-44693D02*
X48406Y-44378D01*
X48286Y-45183D02*
X48271Y-45198D01*
X48226Y-45213D01*
X48196Y-45213D01*
X48151Y-45198D01*
X48121Y-45168D01*
X48106Y-45138D01*
X48091Y-45078D01*
X48091Y-45033D01*
X48106Y-44973D01*
X48121Y-44943D01*
X48151Y-44913D01*
X48196Y-44898D01*
X48226Y-44898D01*
X48271Y-44913D01*
X48286Y-44928D01*
X48406Y-45198D02*
X48451Y-45213D01*
X48526Y-45213D01*
X48556Y-45198D01*
X48571Y-45183D01*
X48586Y-45153D01*
X48586Y-45123D01*
X48571Y-45093D01*
X48556Y-45078D01*
X48526Y-45063D01*
X48466Y-45048D01*
X48436Y-45033D01*
X48421Y-45018D01*
X48406Y-44988D01*
X48406Y-44958D01*
X48421Y-44928D01*
X48436Y-44913D01*
X48466Y-44898D01*
X48541Y-44898D01*
X48586Y-44913D01*
X48106Y-45733D02*
X48106Y-45418D01*
X48256Y-45733D02*
X48256Y-45418D01*
X48436Y-45733D01*
X48436Y-45418D01*
X48541Y-45418D02*
X48721Y-45418D01*
X48631Y-45733D02*
X48631Y-45418D01*
X57080Y-41362D02*
X57275Y-41362D01*
X57170Y-41482D01*
X57215Y-41482D01*
X57245Y-41497D01*
X57260Y-41512D01*
X57275Y-41542D01*
X57275Y-41617D01*
X57260Y-41647D01*
X57245Y-41662D01*
X57215Y-41677D01*
X57125Y-41677D01*
X57095Y-41662D01*
X57080Y-41647D01*
X54324Y-38705D02*
X54519Y-38705D01*
X54414Y-38825D01*
X54459Y-38825D01*
X54489Y-38840D01*
X54504Y-38855D01*
X54519Y-38885D01*
X54519Y-38960D01*
X54504Y-38990D01*
X54489Y-39005D01*
X54459Y-39020D01*
X54369Y-39020D01*
X54339Y-39005D01*
X54324Y-38990D01*
X50977Y-38705D02*
X51172Y-38705D01*
X51067Y-38825D01*
X51112Y-38825D01*
X51142Y-38840D01*
X51157Y-38855D01*
X51172Y-38885D01*
X51172Y-38960D01*
X51157Y-38990D01*
X51142Y-39005D01*
X51112Y-39020D01*
X51022Y-39020D01*
X50992Y-39005D01*
X50977Y-38990D01*
X57095Y-40408D02*
X57110Y-40393D01*
X57140Y-40378D01*
X57215Y-40378D01*
X57245Y-40393D01*
X57260Y-40408D01*
X57275Y-40438D01*
X57275Y-40468D01*
X57260Y-40513D01*
X57080Y-40693D01*
X57275Y-40693D01*
X54339Y-37751D02*
X54354Y-37736D01*
X54384Y-37721D01*
X54459Y-37721D01*
X54489Y-37736D01*
X54504Y-37751D01*
X54519Y-37781D01*
X54519Y-37811D01*
X54504Y-37856D01*
X54324Y-38036D01*
X54519Y-38036D01*
X50992Y-37751D02*
X51007Y-37736D01*
X51037Y-37721D01*
X51112Y-37721D01*
X51142Y-37736D01*
X51157Y-37751D01*
X51172Y-37781D01*
X51172Y-37811D01*
X51157Y-37856D01*
X50977Y-38036D01*
X51172Y-38036D01*
X57275Y-39709D02*
X57095Y-39709D01*
X57185Y-39709D02*
X57185Y-39394D01*
X57155Y-39439D01*
X57125Y-39469D01*
X57095Y-39484D01*
X54519Y-36953D02*
X54339Y-36953D01*
X54429Y-36953D02*
X54429Y-36638D01*
X54399Y-36683D01*
X54369Y-36713D01*
X54339Y-36728D01*
X51172Y-36953D02*
X50992Y-36953D01*
X51082Y-36953D02*
X51082Y-36638D01*
X51052Y-36683D01*
X51022Y-36713D01*
X50992Y-36728D01*
X68473Y-36948D02*
X68443Y-36933D01*
X68398Y-36933D01*
X68353Y-36948D01*
X68323Y-36978D01*
X68308Y-37008D01*
X68293Y-37068D01*
X68293Y-37113D01*
X68308Y-37173D01*
X68323Y-37203D01*
X68353Y-37233D01*
X68398Y-37248D01*
X68428Y-37248D01*
X68473Y-37233D01*
X68488Y-37218D01*
X68488Y-37113D01*
X68428Y-37113D01*
X68622Y-37248D02*
X68622Y-36933D01*
X68802Y-37248D01*
X68802Y-36933D01*
X68952Y-37248D02*
X68952Y-36933D01*
X69027Y-36933D01*
X69072Y-36948D01*
X69102Y-36978D01*
X69117Y-37008D01*
X69132Y-37068D01*
X69132Y-37113D01*
X69117Y-37173D01*
X69102Y-37203D01*
X69072Y-37233D01*
X69027Y-37248D01*
X68952Y-37248D01*
X68323Y-37918D02*
X68428Y-38233D01*
X68532Y-37918D01*
X68817Y-38203D02*
X68802Y-38218D01*
X68757Y-38233D01*
X68727Y-38233D01*
X68682Y-38218D01*
X68652Y-38188D01*
X68637Y-38158D01*
X68622Y-38098D01*
X68622Y-38053D01*
X68637Y-37993D01*
X68652Y-37963D01*
X68682Y-37933D01*
X68727Y-37918D01*
X68757Y-37918D01*
X68802Y-37933D01*
X68817Y-37948D01*
X69132Y-38203D02*
X69117Y-38218D01*
X69072Y-38233D01*
X69042Y-38233D01*
X68997Y-38218D01*
X68967Y-38188D01*
X68952Y-38158D01*
X68937Y-38098D01*
X68937Y-38053D01*
X68952Y-37993D01*
X68967Y-37963D01*
X68997Y-37933D01*
X69042Y-37918D01*
X69072Y-37918D01*
X69117Y-37933D01*
X69132Y-37948D01*
X68284Y-40186D02*
X68329Y-40201D01*
X68404Y-40201D01*
X68434Y-40186D01*
X68449Y-40171D01*
X68464Y-40141D01*
X68464Y-40111D01*
X68449Y-40081D01*
X68434Y-40066D01*
X68404Y-40051D01*
X68344Y-40036D01*
X68314Y-40021D01*
X68299Y-40006D01*
X68284Y-39976D01*
X68284Y-39946D01*
X68299Y-39916D01*
X68314Y-39901D01*
X68344Y-39886D01*
X68419Y-39886D01*
X68464Y-39901D01*
X68779Y-40171D02*
X68764Y-40186D01*
X68719Y-40201D01*
X68689Y-40201D01*
X68644Y-40186D01*
X68614Y-40156D01*
X68599Y-40126D01*
X68584Y-40066D01*
X68584Y-40021D01*
X68599Y-39961D01*
X68614Y-39931D01*
X68644Y-39901D01*
X68689Y-39886D01*
X68719Y-39886D01*
X68764Y-39901D01*
X68779Y-39916D01*
X69064Y-40201D02*
X68914Y-40201D01*
X68914Y-39886D01*
X68269Y-39202D02*
X68314Y-39217D01*
X68389Y-39217D01*
X68419Y-39202D01*
X68434Y-39187D01*
X68449Y-39157D01*
X68449Y-39127D01*
X68434Y-39097D01*
X68419Y-39082D01*
X68389Y-39067D01*
X68329Y-39052D01*
X68299Y-39037D01*
X68284Y-39022D01*
X68269Y-38992D01*
X68269Y-38962D01*
X68284Y-38932D01*
X68299Y-38917D01*
X68329Y-38902D01*
X68404Y-38902D01*
X68449Y-38917D01*
X68584Y-39217D02*
X68584Y-38902D01*
X68659Y-38902D01*
X68704Y-38917D01*
X68734Y-38947D01*
X68749Y-38977D01*
X68764Y-39037D01*
X68764Y-39082D01*
X68749Y-39142D01*
X68734Y-39172D01*
X68704Y-39202D01*
X68659Y-39217D01*
X68584Y-39217D01*
X68884Y-39127D02*
X69034Y-39127D01*
X68854Y-39217D02*
X68959Y-38902D01*
X69064Y-39217D01*
X64182Y-37529D02*
X64227Y-37544D01*
X64302Y-37544D01*
X64332Y-37529D01*
X64347Y-37514D01*
X64362Y-37484D01*
X64362Y-37454D01*
X64347Y-37424D01*
X64332Y-37409D01*
X64302Y-37394D01*
X64242Y-37379D01*
X64212Y-37364D01*
X64197Y-37349D01*
X64182Y-37319D01*
X64182Y-37289D01*
X64197Y-37259D01*
X64212Y-37244D01*
X64242Y-37229D01*
X64317Y-37229D01*
X64362Y-37244D01*
X64452Y-37334D02*
X64572Y-37334D01*
X64497Y-37229D02*
X64497Y-37499D01*
X64512Y-37529D01*
X64542Y-37544D01*
X64572Y-37544D01*
X64797Y-37529D02*
X64767Y-37544D01*
X64707Y-37544D01*
X64677Y-37529D01*
X64662Y-37499D01*
X64662Y-37379D01*
X64677Y-37349D01*
X64707Y-37334D01*
X64767Y-37334D01*
X64797Y-37349D01*
X64812Y-37379D01*
X64812Y-37409D01*
X64662Y-37439D01*
X64947Y-37334D02*
X64947Y-37649D01*
X64947Y-37349D02*
X64977Y-37334D01*
X65037Y-37334D01*
X65067Y-37349D01*
X65082Y-37364D01*
X65097Y-37394D01*
X65097Y-37484D01*
X65082Y-37514D01*
X65067Y-37529D01*
X65037Y-37544D01*
X64977Y-37544D01*
X64947Y-37529D01*
X64572Y-36461D02*
X64572Y-36146D01*
X64647Y-36146D01*
X64692Y-36161D01*
X64722Y-36191D01*
X64737Y-36221D01*
X64752Y-36281D01*
X64752Y-36326D01*
X64737Y-36386D01*
X64722Y-36416D01*
X64692Y-36446D01*
X64647Y-36461D01*
X64572Y-36461D01*
X64887Y-36461D02*
X64887Y-36251D01*
X64887Y-36146D02*
X64872Y-36161D01*
X64887Y-36176D01*
X64902Y-36161D01*
X64887Y-36146D01*
X64887Y-36176D01*
X65037Y-36461D02*
X65037Y-36251D01*
X65037Y-36311D02*
X65052Y-36281D01*
X65067Y-36266D01*
X65097Y-36251D01*
X65127Y-36251D01*
X63756Y-35312D02*
X63861Y-35312D01*
X63906Y-35477D02*
X63756Y-35477D01*
X63756Y-35162D01*
X63906Y-35162D01*
X64041Y-35267D02*
X64041Y-35477D01*
X64041Y-35297D02*
X64056Y-35282D01*
X64086Y-35267D01*
X64131Y-35267D01*
X64161Y-35282D01*
X64176Y-35312D01*
X64176Y-35477D01*
X64461Y-35477D02*
X64461Y-35312D01*
X64446Y-35282D01*
X64416Y-35267D01*
X64356Y-35267D01*
X64326Y-35282D01*
X64461Y-35462D02*
X64431Y-35477D01*
X64356Y-35477D01*
X64326Y-35462D01*
X64311Y-35432D01*
X64311Y-35402D01*
X64326Y-35372D01*
X64356Y-35357D01*
X64431Y-35357D01*
X64461Y-35342D01*
X64610Y-35477D02*
X64610Y-35162D01*
X64610Y-35282D02*
X64640Y-35267D01*
X64700Y-35267D01*
X64730Y-35282D01*
X64745Y-35297D01*
X64760Y-35327D01*
X64760Y-35417D01*
X64745Y-35447D01*
X64730Y-35462D01*
X64700Y-35477D01*
X64640Y-35477D01*
X64610Y-35462D01*
X64940Y-35477D02*
X64910Y-35462D01*
X64895Y-35432D01*
X64895Y-35162D01*
X65180Y-35462D02*
X65150Y-35477D01*
X65090Y-35477D01*
X65060Y-35462D01*
X65045Y-35432D01*
X65045Y-35312D01*
X65060Y-35282D01*
X65090Y-35267D01*
X65150Y-35267D01*
X65180Y-35282D01*
X65195Y-35312D01*
X65195Y-35342D01*
X65045Y-35372D01*
X63908Y-34492D02*
X63728Y-34492D01*
X63818Y-34492D02*
X63818Y-34177D01*
X63788Y-34222D01*
X63758Y-34252D01*
X63728Y-34267D01*
X64148Y-34327D02*
X64193Y-34342D01*
X64208Y-34357D01*
X64223Y-34387D01*
X64223Y-34432D01*
X64208Y-34462D01*
X64193Y-34477D01*
X64163Y-34492D01*
X64043Y-34492D01*
X64043Y-34177D01*
X64148Y-34177D01*
X64178Y-34192D01*
X64193Y-34207D01*
X64208Y-34237D01*
X64208Y-34267D01*
X64193Y-34297D01*
X64178Y-34312D01*
X64148Y-34327D01*
X64043Y-34327D01*
X61962Y-34492D02*
X61782Y-34492D01*
X61872Y-34492D02*
X61872Y-34177D01*
X61842Y-34222D01*
X61812Y-34252D01*
X61782Y-34267D01*
X62082Y-34402D02*
X62232Y-34402D01*
X62052Y-34492D02*
X62157Y-34177D01*
X62262Y-34492D01*
X59715Y-34207D02*
X59730Y-34192D01*
X59760Y-34177D01*
X59835Y-34177D01*
X59865Y-34192D01*
X59880Y-34207D01*
X59895Y-34237D01*
X59895Y-34267D01*
X59880Y-34312D01*
X59700Y-34492D01*
X59895Y-34492D01*
X60015Y-34402D02*
X60165Y-34402D01*
X59985Y-34492D02*
X60090Y-34177D01*
X60195Y-34492D01*
X57921Y-34207D02*
X57936Y-34192D01*
X57966Y-34177D01*
X58041Y-34177D01*
X58071Y-34192D01*
X58086Y-34207D01*
X58101Y-34237D01*
X58101Y-34267D01*
X58086Y-34312D01*
X57906Y-34492D01*
X58101Y-34492D01*
X58341Y-34327D02*
X58386Y-34342D01*
X58401Y-34357D01*
X58416Y-34387D01*
X58416Y-34432D01*
X58401Y-34462D01*
X58386Y-34477D01*
X58356Y-34492D01*
X58236Y-34492D01*
X58236Y-34177D01*
X58341Y-34177D01*
X58371Y-34192D01*
X58386Y-34207D01*
X58401Y-34237D01*
X58401Y-34267D01*
X58386Y-34297D01*
X58371Y-34312D01*
X58341Y-34327D01*
X58236Y-34327D01*
X44937Y-39394D02*
X45117Y-39394D01*
X45027Y-39709D02*
X45027Y-39394D01*
X45192Y-39394D02*
X45402Y-39709D01*
X45402Y-39394D02*
X45192Y-39709D01*
X45124Y-38528D02*
X45019Y-38378D01*
X44944Y-38528D02*
X44944Y-38213D01*
X45064Y-38213D01*
X45094Y-38228D01*
X45109Y-38243D01*
X45124Y-38273D01*
X45124Y-38318D01*
X45109Y-38348D01*
X45094Y-38363D01*
X45064Y-38378D01*
X44944Y-38378D01*
X45229Y-38213D02*
X45439Y-38528D01*
X45439Y-38213D02*
X45229Y-38528D01*
X44944Y-37150D02*
X44944Y-36835D01*
X45094Y-36940D02*
X45094Y-37150D01*
X45094Y-36970D02*
X45109Y-36955D01*
X45139Y-36940D01*
X45184Y-36940D01*
X45214Y-36955D01*
X45229Y-36985D01*
X45229Y-37150D01*
X45334Y-36940D02*
X45454Y-36940D01*
X45379Y-36835D02*
X45379Y-37105D01*
X45394Y-37135D01*
X45424Y-37150D01*
X45454Y-37150D01*
X44961Y-35607D02*
X44856Y-35607D01*
X44856Y-35772D02*
X44856Y-35457D01*
X45006Y-35457D01*
X45261Y-35772D02*
X45261Y-35607D01*
X45246Y-35577D01*
X45216Y-35562D01*
X45156Y-35562D01*
X45126Y-35577D01*
X45261Y-35757D02*
X45231Y-35772D01*
X45156Y-35772D01*
X45126Y-35757D01*
X45111Y-35727D01*
X45111Y-35697D01*
X45126Y-35667D01*
X45156Y-35652D01*
X45231Y-35652D01*
X45261Y-35637D01*
X45546Y-35562D02*
X45546Y-35772D01*
X45411Y-35562D02*
X45411Y-35727D01*
X45426Y-35757D01*
X45456Y-35772D01*
X45501Y-35772D01*
X45531Y-35757D01*
X45546Y-35742D01*
X45741Y-35772D02*
X45711Y-35757D01*
X45696Y-35727D01*
X45696Y-35457D01*
X45816Y-35562D02*
X45936Y-35562D01*
X45861Y-35457D02*
X45861Y-35727D01*
X45876Y-35757D01*
X45906Y-35772D01*
X45936Y-35772D01*
G54D10*
X48779Y-34586D02*
X47677Y-34586D01*
X47677Y-34586D02*
X47677Y-35295D01*
X47677Y-35295D02*
X48779Y-35295D01*
X48779Y-35295D02*
X48779Y-34586D01*
G54D13*
X47436Y-33630D02*
X48036Y-33630D01*
X48186Y-33580D02*
X47286Y-33580D01*
X47186Y-33530D02*
X48286Y-33530D01*
X48386Y-33480D02*
X47086Y-33480D01*
X47036Y-33430D02*
X48436Y-33430D01*
X48936Y-32480D02*
G75*
G03X48936Y-32480I-1200J0D01*
G74*
G01*
X46436Y-33780D02*
X49036Y-33780D01*
X49036Y-33780D02*
X49036Y-31480D01*
X49036Y-31480D02*
X48736Y-31180D01*
X48736Y-31180D02*
X46736Y-31180D01*
X46736Y-31180D02*
X46436Y-31480D01*
X46436Y-31480D02*
X46436Y-33780D01*
X47736Y-31630D02*
X47736Y-31930D01*
X47586Y-31780D02*
X47886Y-31780D01*
G54D10*
X48188Y-39803D02*
X47086Y-39803D01*
X47086Y-39803D02*
X47086Y-40511D01*
X47086Y-40511D02*
X48188Y-40511D01*
X48188Y-40511D02*
X48188Y-39803D01*
X62559Y-34980D02*
X62559Y-34842D01*
X62559Y-34842D02*
X61850Y-34842D01*
X61850Y-34842D02*
X61850Y-34980D01*
X61850Y-34980D02*
X61850Y-36082D01*
X61850Y-36082D02*
X62559Y-36082D01*
X62559Y-36082D02*
X62559Y-34980D01*
X62559Y-34980D02*
X61850Y-34980D01*
X61377Y-34980D02*
X61377Y-34842D01*
X61377Y-34842D02*
X60669Y-34842D01*
X60669Y-34842D02*
X60669Y-34980D01*
X60669Y-34980D02*
X60669Y-36082D01*
X60669Y-36082D02*
X61377Y-36082D01*
X61377Y-36082D02*
X61377Y-34980D01*
X61377Y-34980D02*
X60669Y-34980D01*
X60196Y-34980D02*
X60196Y-34842D01*
X60196Y-34842D02*
X59488Y-34842D01*
X59488Y-34842D02*
X59488Y-34980D01*
X59488Y-34980D02*
X59488Y-36082D01*
X59488Y-36082D02*
X60196Y-36082D01*
X60196Y-36082D02*
X60196Y-34980D01*
X60196Y-34980D02*
X59488Y-34980D01*
X42460Y-35275D02*
X42322Y-35275D01*
X42322Y-35275D02*
X42322Y-35984D01*
X42322Y-35984D02*
X42460Y-35984D01*
X42460Y-35984D02*
X43562Y-35984D01*
X43562Y-35984D02*
X43562Y-35275D01*
X43562Y-35275D02*
X42460Y-35275D01*
X42460Y-35275D02*
X42460Y-35984D01*
X42460Y-39212D02*
X42322Y-39212D01*
X42322Y-39212D02*
X42322Y-39921D01*
X42322Y-39921D02*
X42460Y-39921D01*
X42460Y-39921D02*
X43562Y-39921D01*
X43562Y-39921D02*
X43562Y-39212D01*
X43562Y-39212D02*
X42460Y-39212D01*
X42460Y-39212D02*
X42460Y-39921D01*
X42460Y-38031D02*
X42322Y-38031D01*
X42322Y-38031D02*
X42322Y-38740D01*
X42322Y-38740D02*
X42460Y-38740D01*
X42460Y-38740D02*
X43562Y-38740D01*
X43562Y-38740D02*
X43562Y-38031D01*
X43562Y-38031D02*
X42460Y-38031D01*
X42460Y-38031D02*
X42460Y-38740D01*
X42460Y-36653D02*
X42322Y-36653D01*
X42322Y-36653D02*
X42322Y-37362D01*
X42322Y-37362D02*
X42460Y-37362D01*
X42460Y-37362D02*
X43562Y-37362D01*
X43562Y-37362D02*
X43562Y-36653D01*
X43562Y-36653D02*
X42460Y-36653D01*
X42460Y-36653D02*
X42460Y-37362D01*
G54D14*
X61024Y-32972D02*
X57086Y-32972D01*
X61024Y-33957D02*
X61024Y-30019D01*
X61024Y-30019D02*
X57086Y-30019D01*
X57086Y-30019D02*
X57086Y-33957D01*
X57086Y-33957D02*
X61024Y-33957D01*
X45176Y-30511D02*
X45176Y-34449D01*
X46161Y-30511D02*
X42223Y-30511D01*
X42223Y-30511D02*
X42223Y-34449D01*
X42223Y-34449D02*
X46161Y-34449D01*
X46161Y-34449D02*
X46161Y-30511D01*
G54D15*
X66444Y-36826D02*
X66444Y-33826D01*
X65444Y-36826D02*
X65444Y-33826D01*
X65444Y-37826D02*
X65444Y-36826D01*
X66444Y-33826D02*
X65444Y-33826D01*
X65444Y-36826D02*
X66444Y-36826D01*
X65444Y-37826D02*
X66444Y-37826D01*
X66444Y-37826D02*
X66444Y-36826D01*
X68019Y-39582D02*
X68019Y-36582D01*
X67019Y-39582D02*
X67019Y-36582D01*
X67019Y-40582D02*
X67019Y-39582D01*
X68019Y-36582D02*
X67019Y-36582D01*
X67019Y-39582D02*
X68019Y-39582D01*
X67019Y-40582D02*
X68019Y-40582D01*
X68019Y-40582D02*
X68019Y-39582D01*
G54D14*
X45176Y-42716D02*
X45176Y-46654D01*
X46161Y-42716D02*
X42223Y-42716D01*
X42223Y-42716D02*
X42223Y-46654D01*
X42223Y-46654D02*
X46161Y-46654D01*
X46161Y-46654D02*
X46161Y-42716D01*
X64961Y-32972D02*
X61023Y-32972D01*
X64961Y-33957D02*
X64961Y-30019D01*
X64961Y-30019D02*
X61023Y-30019D01*
X61023Y-30019D02*
X61023Y-33957D01*
X61023Y-33957D02*
X64961Y-33957D01*
G54D10*
X59881Y-37637D02*
X59881Y-38740D01*
X59881Y-38740D02*
X60590Y-38740D01*
X60590Y-38740D02*
X60590Y-37637D01*
X60590Y-37637D02*
X59881Y-37637D01*
X61161Y-37637D02*
X61161Y-38740D01*
X61161Y-38740D02*
X61870Y-38740D01*
X61870Y-38740D02*
X61870Y-37637D01*
X61870Y-37637D02*
X61161Y-37637D01*
X61958Y-36328D02*
X61958Y-37096D01*
X61958Y-37096D02*
X62450Y-37096D01*
X62450Y-37096D02*
X62450Y-36328D01*
X62450Y-36328D02*
X61958Y-36328D01*
X60777Y-36328D02*
X60777Y-37096D01*
X60777Y-37096D02*
X61269Y-37096D01*
X61269Y-37096D02*
X61269Y-36328D01*
X61269Y-36328D02*
X60777Y-36328D01*
X59596Y-36328D02*
X59596Y-37096D01*
X59596Y-37096D02*
X60088Y-37096D01*
X60088Y-37096D02*
X60088Y-36328D01*
X60088Y-36328D02*
X59596Y-36328D01*
X43809Y-35875D02*
X44576Y-35875D01*
X44576Y-35875D02*
X44576Y-35383D01*
X44576Y-35383D02*
X43809Y-35383D01*
X43809Y-35383D02*
X43809Y-35875D01*
X46397Y-35295D02*
X47500Y-35295D01*
X47500Y-35295D02*
X47500Y-34586D01*
X47500Y-34586D02*
X46397Y-34586D01*
X46397Y-34586D02*
X46397Y-35295D01*
X43809Y-39812D02*
X44576Y-39812D01*
X44576Y-39812D02*
X44576Y-39320D01*
X44576Y-39320D02*
X43809Y-39320D01*
X43809Y-39320D02*
X43809Y-39812D01*
X43809Y-38631D02*
X44576Y-38631D01*
X44576Y-38631D02*
X44576Y-38139D01*
X44576Y-38139D02*
X43809Y-38139D01*
X43809Y-38139D02*
X43809Y-38631D01*
X43809Y-37253D02*
X44576Y-37253D01*
X44576Y-37253D02*
X44576Y-36761D01*
X44576Y-36761D02*
X43809Y-36761D01*
X43809Y-36761D02*
X43809Y-37253D01*
X58866Y-38677D02*
G75*
G03X59417Y-38125I0J551D01*
G74*
G01*
G54D15*
X57578Y-38027D02*
X57578Y-39027D01*
X58578Y-38027D02*
X57578Y-38027D01*
X58578Y-38027D02*
X58578Y-39027D01*
X57578Y-46027D02*
X57578Y-39027D01*
X58578Y-46027D02*
X57578Y-46027D01*
X58578Y-39027D02*
X58578Y-46027D01*
X64574Y-39027D02*
X64574Y-46027D01*
X64574Y-46027D02*
X63574Y-46027D01*
X63574Y-46027D02*
X63574Y-39027D01*
X64574Y-38027D02*
X64574Y-39027D01*
X64574Y-39027D02*
X63574Y-39027D01*
X64574Y-38027D02*
X63574Y-38027D01*
X63574Y-38027D02*
X63574Y-39027D01*
X52755Y-36295D02*
X52755Y-37295D01*
X52755Y-37295D02*
X51755Y-37295D01*
X51755Y-36295D02*
X51755Y-39295D01*
X51755Y-39295D02*
X53755Y-39295D01*
X53755Y-39295D02*
X53755Y-37295D01*
X51755Y-36295D02*
X52755Y-36295D01*
X53755Y-36295D02*
X52755Y-36295D01*
X53755Y-37295D02*
X53755Y-36295D01*
X49303Y-30417D02*
X49303Y-31417D01*
X50303Y-30417D02*
X49303Y-30417D01*
X50303Y-31417D02*
X49303Y-31417D01*
X50303Y-30417D02*
X50303Y-31417D01*
X49303Y-42417D02*
X49303Y-31417D01*
X50303Y-42417D02*
X49303Y-42417D01*
X50303Y-31417D02*
X50303Y-42417D01*
X56307Y-31417D02*
X56307Y-42417D01*
X56307Y-42417D02*
X55307Y-42417D01*
X55307Y-42417D02*
X55307Y-31417D01*
X56307Y-30417D02*
X56307Y-31417D01*
X56307Y-30417D02*
X55307Y-30417D01*
X55307Y-30417D02*
X55307Y-31417D01*
G54D14*
X46810Y-37323D02*
G75*
G03X46594Y-37067I-236J20D01*
G74*
G01*
X46594Y-37520D02*
G75*
G03X46811Y-37303I0J217D01*
G74*
G01*
X46555Y-36516D02*
X46555Y-38090D01*
X46555Y-38090D02*
X48523Y-38090D01*
X48523Y-38090D02*
X48523Y-36516D01*
X48523Y-36516D02*
X46555Y-36516D01*
X46555Y-36516D02*
X46574Y-36535D01*
G54D16*
X48198Y-35583D02*
X48189Y-35592D01*
X48164Y-35602D01*
X48146Y-35602D01*
X48121Y-35592D01*
X48104Y-35573D01*
X48095Y-35554D01*
X48086Y-35516D01*
X48086Y-35488D01*
X48095Y-35449D01*
X48104Y-35430D01*
X48121Y-35411D01*
X48146Y-35402D01*
X48164Y-35402D01*
X48189Y-35411D01*
X48198Y-35421D01*
X48369Y-35602D02*
X48266Y-35602D01*
X48318Y-35602D02*
X48318Y-35402D01*
X48301Y-35430D01*
X48284Y-35449D01*
X48266Y-35459D01*
G54D17*
X48593Y-30938D02*
X48603Y-30947D01*
X48612Y-30975D01*
X48612Y-30994D01*
X48603Y-31022D01*
X48584Y-31041D01*
X48565Y-31050D01*
X48528Y-31060D01*
X48500Y-31060D01*
X48462Y-31050D01*
X48443Y-31041D01*
X48425Y-31022D01*
X48415Y-30994D01*
X48415Y-30975D01*
X48425Y-30947D01*
X48434Y-30938D01*
X48415Y-30872D02*
X48415Y-30750D01*
X48490Y-30816D01*
X48490Y-30788D01*
X48500Y-30769D01*
X48509Y-30760D01*
X48528Y-30750D01*
X48575Y-30750D01*
X48593Y-30760D01*
X48603Y-30769D01*
X48612Y-30788D01*
X48612Y-30844D01*
X48603Y-30863D01*
X48593Y-30872D01*
G54D16*
X47607Y-40799D02*
X47599Y-40809D01*
X47573Y-40818D01*
X47556Y-40818D01*
X47530Y-40809D01*
X47513Y-40790D01*
X47504Y-40771D01*
X47496Y-40733D01*
X47496Y-40704D01*
X47504Y-40666D01*
X47513Y-40647D01*
X47530Y-40628D01*
X47556Y-40618D01*
X47573Y-40618D01*
X47599Y-40628D01*
X47607Y-40637D01*
X47770Y-40618D02*
X47684Y-40618D01*
X47676Y-40714D01*
X47684Y-40704D01*
X47702Y-40695D01*
X47744Y-40695D01*
X47762Y-40704D01*
X47770Y-40714D01*
X47779Y-40733D01*
X47779Y-40780D01*
X47770Y-40799D01*
X47762Y-40809D01*
X47744Y-40818D01*
X47702Y-40818D01*
X47684Y-40809D01*
X47676Y-40799D01*
X62866Y-35664D02*
X62666Y-35664D01*
X62666Y-35621D01*
X62675Y-35595D01*
X62694Y-35578D01*
X62713Y-35570D01*
X62751Y-35561D01*
X62780Y-35561D01*
X62818Y-35570D01*
X62837Y-35578D01*
X62856Y-35595D01*
X62866Y-35621D01*
X62866Y-35664D01*
X62866Y-35390D02*
X62866Y-35492D01*
X62866Y-35441D02*
X62666Y-35441D01*
X62694Y-35458D01*
X62713Y-35475D01*
X62723Y-35492D01*
X61684Y-35664D02*
X61484Y-35664D01*
X61484Y-35621D01*
X61494Y-35595D01*
X61513Y-35578D01*
X61532Y-35570D01*
X61570Y-35561D01*
X61599Y-35561D01*
X61637Y-35570D01*
X61656Y-35578D01*
X61675Y-35595D01*
X61684Y-35621D01*
X61684Y-35664D01*
X61504Y-35492D02*
X61494Y-35484D01*
X61484Y-35467D01*
X61484Y-35424D01*
X61494Y-35407D01*
X61504Y-35398D01*
X61523Y-35390D01*
X61542Y-35390D01*
X61570Y-35398D01*
X61684Y-35501D01*
X61684Y-35390D01*
X60503Y-35664D02*
X60303Y-35664D01*
X60303Y-35621D01*
X60313Y-35595D01*
X60332Y-35578D01*
X60351Y-35570D01*
X60389Y-35561D01*
X60418Y-35561D01*
X60456Y-35570D01*
X60475Y-35578D01*
X60494Y-35595D01*
X60503Y-35621D01*
X60503Y-35664D01*
X60303Y-35501D02*
X60303Y-35390D01*
X60380Y-35450D01*
X60380Y-35424D01*
X60389Y-35407D01*
X60399Y-35398D01*
X60418Y-35390D01*
X60465Y-35390D01*
X60484Y-35398D01*
X60494Y-35407D01*
X60503Y-35424D01*
X60503Y-35475D01*
X60494Y-35492D01*
X60484Y-35501D01*
X42878Y-35149D02*
X42878Y-34949D01*
X42921Y-34949D01*
X42947Y-34959D01*
X42964Y-34978D01*
X42973Y-34997D01*
X42981Y-35035D01*
X42981Y-35063D01*
X42973Y-35101D01*
X42964Y-35120D01*
X42947Y-35140D01*
X42921Y-35149D01*
X42878Y-35149D01*
X43136Y-35016D02*
X43136Y-35149D01*
X43093Y-34940D02*
X43050Y-35082D01*
X43161Y-35082D01*
X42878Y-39086D02*
X42878Y-38886D01*
X42921Y-38886D01*
X42947Y-38896D01*
X42964Y-38915D01*
X42973Y-38934D01*
X42981Y-38972D01*
X42981Y-39000D01*
X42973Y-39038D01*
X42964Y-39057D01*
X42947Y-39077D01*
X42921Y-39086D01*
X42878Y-39086D01*
X43144Y-38886D02*
X43058Y-38886D01*
X43050Y-38981D01*
X43058Y-38972D01*
X43076Y-38962D01*
X43118Y-38962D01*
X43136Y-38972D01*
X43144Y-38981D01*
X43153Y-39000D01*
X43153Y-39048D01*
X43144Y-39067D01*
X43136Y-39077D01*
X43118Y-39086D01*
X43076Y-39086D01*
X43058Y-39077D01*
X43050Y-39067D01*
X42878Y-37905D02*
X42878Y-37705D01*
X42921Y-37705D01*
X42947Y-37714D01*
X42964Y-37734D01*
X42973Y-37753D01*
X42981Y-37791D01*
X42981Y-37819D01*
X42973Y-37857D01*
X42964Y-37876D01*
X42947Y-37895D01*
X42921Y-37905D01*
X42878Y-37905D01*
X43136Y-37705D02*
X43101Y-37705D01*
X43084Y-37714D01*
X43076Y-37724D01*
X43058Y-37753D01*
X43050Y-37791D01*
X43050Y-37867D01*
X43058Y-37886D01*
X43067Y-37895D01*
X43084Y-37905D01*
X43118Y-37905D01*
X43136Y-37895D01*
X43144Y-37886D01*
X43153Y-37867D01*
X43153Y-37819D01*
X43144Y-37800D01*
X43136Y-37791D01*
X43118Y-37781D01*
X43084Y-37781D01*
X43067Y-37791D01*
X43058Y-37800D01*
X43050Y-37819D01*
X42878Y-36527D02*
X42878Y-36327D01*
X42921Y-36327D01*
X42947Y-36337D01*
X42964Y-36356D01*
X42973Y-36375D01*
X42981Y-36413D01*
X42981Y-36441D01*
X42973Y-36479D01*
X42964Y-36498D01*
X42947Y-36517D01*
X42921Y-36527D01*
X42878Y-36527D01*
X43041Y-36327D02*
X43161Y-36327D01*
X43084Y-36527D01*
G54D18*
X60236Y-33743D02*
X60236Y-33343D01*
X60388Y-33343D01*
X60426Y-33362D01*
X60445Y-33382D01*
X60464Y-33420D01*
X60464Y-33477D01*
X60445Y-33515D01*
X60426Y-33534D01*
X60388Y-33553D01*
X60236Y-33553D01*
X60845Y-33743D02*
X60617Y-33743D01*
X60731Y-33743D02*
X60731Y-33343D01*
X60693Y-33401D01*
X60655Y-33439D01*
X60617Y-33458D01*
X45948Y-31299D02*
X45548Y-31299D01*
X45548Y-31146D01*
X45567Y-31108D01*
X45586Y-31089D01*
X45624Y-31070D01*
X45682Y-31070D01*
X45720Y-31089D01*
X45739Y-31108D01*
X45758Y-31146D01*
X45758Y-31299D01*
X45586Y-30918D02*
X45567Y-30899D01*
X45548Y-30861D01*
X45548Y-30765D01*
X45567Y-30727D01*
X45586Y-30708D01*
X45624Y-30689D01*
X45662Y-30689D01*
X45720Y-30708D01*
X45948Y-30937D01*
X45948Y-30689D01*
X42995Y-31645D02*
X42995Y-31873D01*
X42995Y-31759D02*
X42595Y-31759D01*
X42653Y-31797D01*
X42691Y-31835D01*
X42710Y-31873D01*
X42634Y-31492D02*
X42614Y-31473D01*
X42595Y-31435D01*
X42595Y-31340D01*
X42614Y-31302D01*
X42634Y-31283D01*
X42672Y-31264D01*
X42710Y-31264D01*
X42767Y-31283D01*
X42995Y-31511D01*
X42995Y-31264D01*
X42595Y-31150D02*
X42995Y-31016D01*
X42595Y-30883D01*
G54D19*
X67155Y-34719D02*
X66655Y-34719D01*
X66655Y-34528D01*
X66679Y-34481D01*
X66702Y-34457D01*
X66750Y-34433D01*
X66821Y-34433D01*
X66869Y-34457D01*
X66893Y-34481D01*
X66917Y-34528D01*
X66917Y-34719D01*
X66655Y-34267D02*
X66655Y-33957D01*
X66845Y-34124D01*
X66845Y-34052D01*
X66869Y-34005D01*
X66893Y-33981D01*
X66941Y-33957D01*
X67060Y-33957D01*
X67107Y-33981D01*
X67131Y-34005D01*
X67155Y-34052D01*
X67155Y-34195D01*
X67131Y-34243D01*
X67107Y-34267D01*
X66845Y-38951D02*
X66345Y-38951D01*
X66345Y-38761D01*
X66369Y-38713D01*
X66393Y-38689D01*
X66441Y-38666D01*
X66512Y-38666D01*
X66560Y-38689D01*
X66583Y-38713D01*
X66607Y-38761D01*
X66607Y-38951D01*
X66512Y-38237D02*
X66845Y-38237D01*
X66322Y-38356D02*
X66679Y-38475D01*
X66679Y-38166D01*
G54D18*
X45850Y-43799D02*
X45450Y-43799D01*
X45450Y-43646D01*
X45469Y-43608D01*
X45488Y-43589D01*
X45526Y-43570D01*
X45583Y-43570D01*
X45621Y-43589D01*
X45640Y-43608D01*
X45659Y-43646D01*
X45659Y-43799D01*
X45450Y-43208D02*
X45450Y-43399D01*
X45640Y-43418D01*
X45621Y-43399D01*
X45602Y-43361D01*
X45602Y-43265D01*
X45621Y-43227D01*
X45640Y-43208D01*
X45678Y-43189D01*
X45774Y-43189D01*
X45812Y-43208D01*
X45831Y-43227D01*
X45850Y-43265D01*
X45850Y-43361D01*
X45831Y-43399D01*
X45812Y-43418D01*
X46796Y-45637D02*
X46815Y-45656D01*
X46834Y-45713D01*
X46834Y-45751D01*
X46815Y-45808D01*
X46777Y-45846D01*
X46739Y-45865D01*
X46663Y-45885D01*
X46605Y-45885D01*
X46529Y-45865D01*
X46491Y-45846D01*
X46453Y-45808D01*
X46434Y-45751D01*
X46434Y-45713D01*
X46453Y-45656D01*
X46472Y-45637D01*
X46720Y-45485D02*
X46720Y-45294D01*
X46834Y-45523D02*
X46434Y-45389D01*
X46834Y-45256D01*
X46834Y-45123D02*
X46434Y-45123D01*
X46834Y-44894D01*
X46434Y-44894D01*
X46624Y-44265D02*
X46644Y-44208D01*
X46663Y-44189D01*
X46701Y-44170D01*
X46758Y-44170D01*
X46796Y-44189D01*
X46815Y-44208D01*
X46834Y-44246D01*
X46834Y-44399D01*
X46434Y-44399D01*
X46434Y-44265D01*
X46453Y-44227D01*
X46472Y-44208D01*
X46510Y-44189D01*
X46548Y-44189D01*
X46586Y-44208D01*
X46605Y-44227D01*
X46624Y-44265D01*
X46624Y-44399D01*
X46567Y-43827D02*
X46834Y-43827D01*
X46567Y-43999D02*
X46777Y-43999D01*
X46815Y-43980D01*
X46834Y-43942D01*
X46834Y-43885D01*
X46815Y-43846D01*
X46796Y-43827D01*
X46815Y-43656D02*
X46834Y-43618D01*
X46834Y-43542D01*
X46815Y-43504D01*
X46777Y-43485D01*
X46758Y-43485D01*
X46720Y-43504D01*
X46701Y-43542D01*
X46701Y-43599D01*
X46682Y-43637D01*
X46644Y-43656D01*
X46624Y-43656D01*
X46586Y-43637D01*
X46567Y-43599D01*
X46567Y-43542D01*
X46586Y-43504D01*
X64074Y-33743D02*
X64074Y-33343D01*
X64227Y-33343D01*
X64265Y-33362D01*
X64284Y-33382D01*
X64303Y-33420D01*
X64303Y-33477D01*
X64284Y-33515D01*
X64265Y-33534D01*
X64227Y-33553D01*
X64074Y-33553D01*
X64646Y-33343D02*
X64570Y-33343D01*
X64531Y-33362D01*
X64512Y-33382D01*
X64474Y-33439D01*
X64455Y-33515D01*
X64455Y-33667D01*
X64474Y-33705D01*
X64493Y-33724D01*
X64531Y-33743D01*
X64608Y-33743D01*
X64646Y-33724D01*
X64665Y-33705D01*
X64684Y-33667D01*
X64684Y-33572D01*
X64665Y-33534D01*
X64646Y-33515D01*
X64608Y-33496D01*
X64531Y-33496D01*
X64493Y-33515D01*
X64474Y-33534D01*
X64455Y-33572D01*
G54D16*
X60206Y-37492D02*
X60146Y-37396D01*
X60103Y-37492D02*
X60103Y-37292D01*
X60171Y-37292D01*
X60189Y-37301D01*
X60197Y-37311D01*
X60206Y-37330D01*
X60206Y-37358D01*
X60197Y-37377D01*
X60189Y-37387D01*
X60171Y-37396D01*
X60103Y-37396D01*
X60377Y-37492D02*
X60274Y-37492D01*
X60326Y-37492D02*
X60326Y-37292D01*
X60309Y-37320D01*
X60291Y-37339D01*
X60274Y-37349D01*
X61485Y-37492D02*
X61425Y-37396D01*
X61382Y-37492D02*
X61382Y-37292D01*
X61451Y-37292D01*
X61468Y-37301D01*
X61477Y-37311D01*
X61485Y-37330D01*
X61485Y-37358D01*
X61477Y-37377D01*
X61468Y-37387D01*
X61451Y-37396D01*
X61382Y-37396D01*
X61545Y-37292D02*
X61657Y-37292D01*
X61597Y-37368D01*
X61622Y-37368D01*
X61640Y-37377D01*
X61648Y-37387D01*
X61657Y-37406D01*
X61657Y-37453D01*
X61648Y-37473D01*
X61640Y-37482D01*
X61622Y-37492D01*
X61571Y-37492D01*
X61554Y-37482D01*
X61545Y-37473D01*
G54D20*
X61835Y-36732D02*
X61778Y-36772D01*
X61835Y-36801D02*
X61715Y-36801D01*
X61715Y-36755D01*
X61721Y-36744D01*
X61727Y-36738D01*
X61738Y-36732D01*
X61755Y-36732D01*
X61767Y-36738D01*
X61772Y-36744D01*
X61778Y-36755D01*
X61778Y-36801D01*
X61755Y-36629D02*
X61835Y-36629D01*
X61710Y-36658D02*
X61795Y-36686D01*
X61795Y-36612D01*
X60654Y-36732D02*
X60597Y-36772D01*
X60654Y-36801D02*
X60534Y-36801D01*
X60534Y-36755D01*
X60540Y-36744D01*
X60546Y-36738D01*
X60557Y-36732D01*
X60574Y-36732D01*
X60586Y-36738D01*
X60591Y-36744D01*
X60597Y-36755D01*
X60597Y-36801D01*
X60534Y-36624D02*
X60534Y-36681D01*
X60591Y-36686D01*
X60586Y-36681D01*
X60580Y-36669D01*
X60580Y-36641D01*
X60586Y-36629D01*
X60591Y-36624D01*
X60603Y-36618D01*
X60631Y-36618D01*
X60643Y-36624D01*
X60648Y-36629D01*
X60654Y-36641D01*
X60654Y-36669D01*
X60648Y-36681D01*
X60643Y-36686D01*
X59473Y-36732D02*
X59416Y-36772D01*
X59473Y-36801D02*
X59353Y-36801D01*
X59353Y-36755D01*
X59359Y-36744D01*
X59365Y-36738D01*
X59376Y-36732D01*
X59393Y-36732D01*
X59405Y-36738D01*
X59410Y-36744D01*
X59416Y-36755D01*
X59416Y-36801D01*
X59353Y-36629D02*
X59353Y-36652D01*
X59359Y-36664D01*
X59365Y-36669D01*
X59382Y-36681D01*
X59405Y-36686D01*
X59450Y-36686D01*
X59462Y-36681D01*
X59467Y-36675D01*
X59473Y-36664D01*
X59473Y-36641D01*
X59467Y-36629D01*
X59462Y-36624D01*
X59450Y-36618D01*
X59422Y-36618D01*
X59410Y-36624D01*
X59405Y-36629D01*
X59399Y-36641D01*
X59399Y-36664D01*
X59405Y-36675D01*
X59410Y-36681D01*
X59422Y-36686D01*
X44172Y-35290D02*
X44132Y-35233D01*
X44104Y-35290D02*
X44104Y-35170D01*
X44150Y-35170D01*
X44161Y-35176D01*
X44167Y-35181D01*
X44172Y-35193D01*
X44172Y-35210D01*
X44167Y-35221D01*
X44161Y-35227D01*
X44150Y-35233D01*
X44104Y-35233D01*
X44212Y-35170D02*
X44292Y-35170D01*
X44241Y-35290D01*
G54D16*
X46918Y-35621D02*
X46858Y-35526D01*
X46815Y-35621D02*
X46815Y-35421D01*
X46884Y-35421D01*
X46901Y-35431D01*
X46910Y-35441D01*
X46918Y-35460D01*
X46918Y-35488D01*
X46910Y-35507D01*
X46901Y-35517D01*
X46884Y-35526D01*
X46815Y-35526D01*
X47021Y-35507D02*
X47004Y-35498D01*
X46995Y-35488D01*
X46987Y-35469D01*
X46987Y-35460D01*
X46995Y-35441D01*
X47004Y-35431D01*
X47021Y-35421D01*
X47055Y-35421D01*
X47073Y-35431D01*
X47081Y-35441D01*
X47090Y-35460D01*
X47090Y-35469D01*
X47081Y-35488D01*
X47073Y-35498D01*
X47055Y-35507D01*
X47021Y-35507D01*
X47004Y-35517D01*
X46995Y-35526D01*
X46987Y-35545D01*
X46987Y-35583D01*
X46995Y-35602D01*
X47004Y-35612D01*
X47021Y-35621D01*
X47055Y-35621D01*
X47073Y-35612D01*
X47081Y-35602D01*
X47090Y-35583D01*
X47090Y-35545D01*
X47081Y-35526D01*
X47073Y-35517D01*
X47055Y-35507D01*
G54D20*
X44172Y-39227D02*
X44132Y-39170D01*
X44104Y-39227D02*
X44104Y-39107D01*
X44150Y-39107D01*
X44161Y-39113D01*
X44167Y-39118D01*
X44172Y-39130D01*
X44172Y-39147D01*
X44167Y-39158D01*
X44161Y-39164D01*
X44150Y-39170D01*
X44104Y-39170D01*
X44230Y-39227D02*
X44252Y-39227D01*
X44264Y-39221D01*
X44270Y-39216D01*
X44281Y-39198D01*
X44287Y-39176D01*
X44287Y-39130D01*
X44281Y-39118D01*
X44275Y-39113D01*
X44264Y-39107D01*
X44241Y-39107D01*
X44230Y-39113D01*
X44224Y-39118D01*
X44218Y-39130D01*
X44218Y-39158D01*
X44224Y-39170D01*
X44230Y-39176D01*
X44241Y-39181D01*
X44264Y-39181D01*
X44275Y-39176D01*
X44281Y-39170D01*
X44287Y-39158D01*
X44115Y-38046D02*
X44075Y-37989D01*
X44047Y-38046D02*
X44047Y-37926D01*
X44092Y-37926D01*
X44104Y-37932D01*
X44110Y-37937D01*
X44115Y-37949D01*
X44115Y-37966D01*
X44110Y-37977D01*
X44104Y-37983D01*
X44092Y-37989D01*
X44047Y-37989D01*
X44230Y-38046D02*
X44161Y-38046D01*
X44195Y-38046D02*
X44195Y-37926D01*
X44184Y-37943D01*
X44172Y-37954D01*
X44161Y-37960D01*
X44304Y-37926D02*
X44315Y-37926D01*
X44327Y-37932D01*
X44332Y-37937D01*
X44338Y-37949D01*
X44344Y-37972D01*
X44344Y-38000D01*
X44338Y-38023D01*
X44332Y-38034D01*
X44327Y-38040D01*
X44315Y-38046D01*
X44304Y-38046D01*
X44292Y-38040D01*
X44287Y-38034D01*
X44281Y-38023D01*
X44275Y-38000D01*
X44275Y-37972D01*
X44281Y-37949D01*
X44287Y-37937D01*
X44292Y-37932D01*
X44304Y-37926D01*
X44115Y-36668D02*
X44075Y-36611D01*
X44047Y-36668D02*
X44047Y-36548D01*
X44092Y-36548D01*
X44104Y-36554D01*
X44110Y-36559D01*
X44115Y-36571D01*
X44115Y-36588D01*
X44110Y-36599D01*
X44104Y-36605D01*
X44092Y-36611D01*
X44047Y-36611D01*
X44230Y-36668D02*
X44161Y-36668D01*
X44195Y-36668D02*
X44195Y-36548D01*
X44184Y-36565D01*
X44172Y-36577D01*
X44161Y-36582D01*
X44344Y-36668D02*
X44275Y-36668D01*
X44310Y-36668D02*
X44310Y-36548D01*
X44298Y-36565D01*
X44287Y-36577D01*
X44275Y-36582D01*
G54D19*
X64860Y-42408D02*
X65264Y-42408D01*
X65312Y-42384D01*
X65336Y-42360D01*
X65360Y-42313D01*
X65360Y-42218D01*
X65336Y-42170D01*
X65312Y-42146D01*
X65264Y-42122D01*
X64860Y-42122D01*
X64907Y-41908D02*
X64883Y-41884D01*
X64860Y-41837D01*
X64860Y-41718D01*
X64883Y-41670D01*
X64907Y-41646D01*
X64955Y-41622D01*
X65002Y-41622D01*
X65074Y-41646D01*
X65360Y-41932D01*
X65360Y-41622D01*
G54D10*
X58744Y-45709D02*
X58744Y-45315D01*
X58838Y-45315D01*
X58894Y-45334D01*
X58931Y-45372D01*
X58950Y-45409D01*
X58969Y-45484D01*
X58969Y-45540D01*
X58950Y-45615D01*
X58931Y-45653D01*
X58894Y-45690D01*
X58838Y-45709D01*
X58744Y-45709D01*
X59137Y-45709D02*
X59137Y-45447D01*
X59137Y-45315D02*
X59119Y-45334D01*
X59137Y-45353D01*
X59156Y-45334D01*
X59137Y-45315D01*
X59137Y-45353D01*
X59325Y-45709D02*
X59325Y-45447D01*
X59325Y-45522D02*
X59344Y-45484D01*
X59362Y-45465D01*
X59400Y-45447D01*
X59437Y-45447D01*
X58739Y-44686D02*
X58795Y-44705D01*
X58889Y-44705D01*
X58926Y-44686D01*
X58945Y-44668D01*
X58964Y-44630D01*
X58964Y-44593D01*
X58945Y-44555D01*
X58926Y-44536D01*
X58889Y-44518D01*
X58814Y-44499D01*
X58776Y-44480D01*
X58757Y-44461D01*
X58739Y-44424D01*
X58739Y-44386D01*
X58757Y-44349D01*
X58776Y-44330D01*
X58814Y-44311D01*
X58907Y-44311D01*
X58964Y-44330D01*
X59076Y-44443D02*
X59226Y-44443D01*
X59132Y-44311D02*
X59132Y-44649D01*
X59151Y-44686D01*
X59189Y-44705D01*
X59226Y-44705D01*
X59507Y-44686D02*
X59470Y-44705D01*
X59395Y-44705D01*
X59357Y-44686D01*
X59339Y-44649D01*
X59339Y-44499D01*
X59357Y-44461D01*
X59395Y-44443D01*
X59470Y-44443D01*
X59507Y-44461D01*
X59526Y-44499D01*
X59526Y-44536D01*
X59339Y-44574D01*
X59695Y-44443D02*
X59695Y-44836D01*
X59695Y-44461D02*
X59732Y-44443D01*
X59807Y-44443D01*
X59845Y-44461D01*
X59864Y-44480D01*
X59882Y-44518D01*
X59882Y-44630D01*
X59864Y-44668D01*
X59845Y-44686D01*
X59807Y-44705D01*
X59732Y-44705D01*
X59695Y-44686D01*
X61971Y-38304D02*
X62102Y-38697D01*
X62233Y-38304D01*
X62365Y-38697D02*
X62365Y-38304D01*
X62496Y-38585D01*
X62627Y-38304D01*
X62627Y-38697D01*
X62871Y-38697D02*
X62833Y-38679D01*
X62814Y-38660D01*
X62796Y-38622D01*
X62796Y-38510D01*
X62814Y-38472D01*
X62833Y-38454D01*
X62871Y-38435D01*
X62927Y-38435D01*
X62964Y-38454D01*
X62983Y-38472D01*
X63002Y-38510D01*
X63002Y-38622D01*
X62983Y-38660D01*
X62964Y-38679D01*
X62927Y-38697D01*
X62871Y-38697D01*
X63114Y-38435D02*
X63264Y-38435D01*
X63171Y-38304D02*
X63171Y-38641D01*
X63189Y-38679D01*
X63227Y-38697D01*
X63264Y-38697D01*
G54D19*
X52374Y-35552D02*
X52374Y-35957D01*
X52398Y-36005D01*
X52422Y-36029D01*
X52470Y-36052D01*
X52565Y-36052D01*
X52613Y-36029D01*
X52636Y-36005D01*
X52660Y-35957D01*
X52660Y-35552D01*
X52851Y-35552D02*
X53160Y-35552D01*
X52994Y-35743D01*
X53065Y-35743D01*
X53113Y-35767D01*
X53136Y-35791D01*
X53160Y-35838D01*
X53160Y-35957D01*
X53136Y-36005D01*
X53113Y-36029D01*
X53065Y-36052D01*
X52922Y-36052D01*
X52874Y-36029D01*
X52851Y-36005D01*
X56433Y-36798D02*
X56838Y-36798D01*
X56885Y-36774D01*
X56909Y-36750D01*
X56933Y-36703D01*
X56933Y-36607D01*
X56909Y-36560D01*
X56885Y-36536D01*
X56838Y-36512D01*
X56433Y-36512D01*
X56599Y-36060D02*
X56933Y-36060D01*
X56409Y-36179D02*
X56766Y-36298D01*
X56766Y-35988D01*
G54D21*
X47180Y-36974D02*
X47180Y-37460D01*
X47209Y-37517D01*
X47237Y-37546D01*
X47294Y-37574D01*
X47409Y-37574D01*
X47466Y-37546D01*
X47494Y-37517D01*
X47523Y-37460D01*
X47523Y-36974D01*
X48094Y-36974D02*
X47809Y-36974D01*
X47780Y-37260D01*
X47809Y-37231D01*
X47866Y-37203D01*
X48009Y-37203D01*
X48066Y-37231D01*
X48094Y-37260D01*
X48123Y-37317D01*
X48123Y-37460D01*
X48094Y-37517D01*
X48066Y-37546D01*
X48009Y-37574D01*
X47866Y-37574D01*
X47809Y-37546D01*
X47780Y-37517D01*
G54D12*
X46077Y-39497D02*
X46122Y-39512D01*
X46197Y-39512D01*
X46227Y-39497D01*
X46242Y-39482D01*
X46257Y-39452D01*
X46257Y-39422D01*
X46242Y-39392D01*
X46227Y-39377D01*
X46197Y-39362D01*
X46137Y-39347D01*
X46107Y-39332D01*
X46092Y-39317D01*
X46077Y-39287D01*
X46077Y-39257D01*
X46092Y-39227D01*
X46107Y-39212D01*
X46137Y-39197D01*
X46212Y-39197D01*
X46257Y-39212D01*
X46392Y-39512D02*
X46392Y-39197D01*
X46571Y-39512D01*
X46571Y-39197D01*
X46856Y-39197D02*
X46796Y-39197D01*
X46766Y-39212D01*
X46751Y-39227D01*
X46721Y-39272D01*
X46706Y-39332D01*
X46706Y-39452D01*
X46721Y-39482D01*
X46736Y-39497D01*
X46766Y-39512D01*
X46826Y-39512D01*
X46856Y-39497D01*
X46871Y-39482D01*
X46886Y-39452D01*
X46886Y-39377D01*
X46871Y-39347D01*
X46856Y-39332D01*
X46826Y-39317D01*
X46766Y-39317D01*
X46736Y-39332D01*
X46721Y-39347D01*
X46706Y-39377D01*
X47171Y-39197D02*
X47021Y-39197D01*
X47006Y-39347D01*
X47021Y-39332D01*
X47051Y-39317D01*
X47126Y-39317D01*
X47156Y-39332D01*
X47171Y-39347D01*
X47186Y-39377D01*
X47186Y-39452D01*
X47171Y-39482D01*
X47156Y-39497D01*
X47126Y-39512D01*
X47051Y-39512D01*
X47021Y-39497D01*
X47006Y-39482D01*
X47321Y-39512D02*
X47321Y-39197D01*
X47321Y-39347D02*
X47501Y-39347D01*
X47501Y-39512D02*
X47501Y-39197D01*
X47606Y-39197D02*
X47711Y-39512D01*
X47816Y-39197D01*
X47921Y-39512D02*
X47921Y-39197D01*
X47996Y-39197D01*
X48041Y-39212D01*
X48071Y-39242D01*
X48086Y-39272D01*
X48101Y-39332D01*
X48101Y-39377D01*
X48086Y-39437D01*
X48071Y-39467D01*
X48041Y-39497D01*
X47996Y-39512D01*
X47921Y-39512D01*
X48221Y-39227D02*
X48236Y-39212D01*
X48266Y-39197D01*
X48341Y-39197D01*
X48371Y-39212D01*
X48386Y-39227D01*
X48401Y-39257D01*
X48401Y-39287D01*
X48386Y-39332D01*
X48206Y-39512D01*
X48401Y-39512D01*
X48506Y-39197D02*
X48701Y-39197D01*
X48596Y-39317D01*
X48641Y-39317D01*
X48671Y-39332D01*
X48686Y-39347D01*
X48701Y-39377D01*
X48701Y-39452D01*
X48686Y-39482D01*
X48671Y-39497D01*
X48641Y-39512D01*
X48551Y-39512D01*
X48521Y-39497D01*
X48506Y-39482D01*
X48821Y-39227D02*
X48836Y-39212D01*
X48866Y-39197D01*
X48941Y-39197D01*
X48971Y-39212D01*
X48986Y-39227D01*
X49001Y-39257D01*
X49001Y-39287D01*
X48986Y-39332D01*
X48806Y-39512D01*
X49001Y-39512D01*
M02*
